G04 #@! TF.GenerationSoftware,KiCad,Pcbnew,(6.0.2)*
G04 #@! TF.CreationDate,2022-03-10T22:37:31+00:00*
G04 #@! TF.ProjectId,EncoderCMOS,456e636f-6465-4724-934d-4f532e6b6963,rev?*
G04 #@! TF.SameCoordinates,Original*
G04 #@! TF.FileFunction,Soldermask,Top*
G04 #@! TF.FilePolarity,Negative*
%FSLAX46Y46*%
G04 Gerber Fmt 4.6, Leading zero omitted, Abs format (unit mm)*
G04 Created by KiCad (PCBNEW (6.0.2)) date 2022-03-10 22:37:31*
%MOMM*%
%LPD*%
G01*
G04 APERTURE LIST*
G04 Aperture macros list*
%AMRoundRect*
0 Rectangle with rounded corners*
0 $1 Rounding radius*
0 $2 $3 $4 $5 $6 $7 $8 $9 X,Y pos of 4 corners*
0 Add a 4 corners polygon primitive as box body*
4,1,4,$2,$3,$4,$5,$6,$7,$8,$9,$2,$3,0*
0 Add four circle primitives for the rounded corners*
1,1,$1+$1,$2,$3*
1,1,$1+$1,$4,$5*
1,1,$1+$1,$6,$7*
1,1,$1+$1,$8,$9*
0 Add four rect primitives between the rounded corners*
20,1,$1+$1,$2,$3,$4,$5,0*
20,1,$1+$1,$4,$5,$6,$7,0*
20,1,$1+$1,$6,$7,$8,$9,0*
20,1,$1+$1,$8,$9,$2,$3,0*%
G04 Aperture macros list end*
%ADD10RoundRect,0.250000X0.650000X-0.412500X0.650000X0.412500X-0.650000X0.412500X-0.650000X-0.412500X0*%
%ADD11R,1.600000X1.600000*%
%ADD12O,1.600000X1.600000*%
%ADD13RoundRect,0.250000X0.412500X0.650000X-0.412500X0.650000X-0.412500X-0.650000X0.412500X-0.650000X0*%
%ADD14R,1.600000X1.500000*%
%ADD15R,6.700000X6.500000*%
%ADD16RoundRect,0.250000X-0.400000X-0.625000X0.400000X-0.625000X0.400000X0.625000X-0.400000X0.625000X0*%
%ADD17RoundRect,0.250000X-0.650000X0.412500X-0.650000X-0.412500X0.650000X-0.412500X0.650000X0.412500X0*%
%ADD18RoundRect,0.250000X0.400000X0.625000X-0.400000X0.625000X-0.400000X-0.625000X0.400000X-0.625000X0*%
%ADD19RoundRect,0.250001X-0.624999X0.462499X-0.624999X-0.462499X0.624999X-0.462499X0.624999X0.462499X0*%
%ADD20RoundRect,0.250000X-0.625000X0.350000X-0.625000X-0.350000X0.625000X-0.350000X0.625000X0.350000X0*%
%ADD21O,1.750000X1.200000*%
%ADD22RoundRect,0.250000X0.625000X-0.400000X0.625000X0.400000X-0.625000X0.400000X-0.625000X-0.400000X0*%
%ADD23RoundRect,0.250001X-0.462499X-0.624999X0.462499X-0.624999X0.462499X0.624999X-0.462499X0.624999X0*%
%ADD24R,1.000000X0.400000*%
%ADD25RoundRect,0.250000X-0.412500X-0.650000X0.412500X-0.650000X0.412500X0.650000X-0.412500X0.650000X0*%
%ADD26RoundRect,0.150000X-0.150000X0.825000X-0.150000X-0.825000X0.150000X-0.825000X0.150000X0.825000X0*%
G04 APERTURE END LIST*
D10*
X36068000Y-36576000D03*
X36068000Y-33451000D03*
D11*
X98943000Y-22958500D03*
D12*
X101483000Y-22958500D03*
X104023000Y-22958500D03*
X106563000Y-22958500D03*
X106563000Y-30578500D03*
X104023000Y-30578500D03*
X101483000Y-30578500D03*
X98943000Y-30578500D03*
D13*
X63030500Y-25488500D03*
X59905500Y-25488500D03*
D14*
X23568000Y-37793500D03*
D15*
X29718000Y-40093500D03*
D14*
X23568000Y-42393500D03*
D16*
X44043000Y-23583500D03*
X47143000Y-23583500D03*
D17*
X57658000Y-30911000D03*
X57658000Y-34036000D03*
X65278000Y-18211000D03*
X65278000Y-21336000D03*
D18*
X39608000Y-44196000D03*
X36508000Y-44196000D03*
X69368000Y-25488500D03*
X66268000Y-25488500D03*
D19*
X62445500Y-41146000D03*
X62445500Y-44121000D03*
D17*
X69088000Y-18211000D03*
X69088000Y-21336000D03*
D20*
X24638000Y-19203500D03*
D21*
X24638000Y-21203500D03*
X24638000Y-23203500D03*
X24638000Y-25203500D03*
X24638000Y-27203500D03*
X24638000Y-29203500D03*
X24638000Y-31203500D03*
X24638000Y-33203500D03*
D17*
X74168000Y-41071000D03*
X74168000Y-44196000D03*
X62738000Y-30911000D03*
X62738000Y-34036000D03*
D18*
X47143000Y-27393500D03*
X44043000Y-27393500D03*
D22*
X36068000Y-41643500D03*
X36068000Y-38543500D03*
D10*
X71628000Y-44196000D03*
X71628000Y-41071000D03*
X39878000Y-36576000D03*
X39878000Y-33451000D03*
D23*
X66038000Y-41363500D03*
X69013000Y-41363500D03*
D13*
X31915500Y-31838500D03*
X28790500Y-31838500D03*
D11*
X51298000Y-44186000D03*
D12*
X51298000Y-41646000D03*
X51298000Y-39106000D03*
X51298000Y-36566000D03*
X43678000Y-36566000D03*
X43678000Y-39106000D03*
X43678000Y-41646000D03*
X43678000Y-44186000D03*
D24*
X33168000Y-23198500D03*
X33168000Y-23848500D03*
X33168000Y-24498500D03*
X33168000Y-25148500D03*
X33168000Y-25798500D03*
X33168000Y-26448500D03*
X33168000Y-27098500D03*
X33168000Y-27748500D03*
X33168000Y-28398500D03*
X33168000Y-29048500D03*
X38968000Y-29048500D03*
X38968000Y-28398500D03*
X38968000Y-27748500D03*
X38968000Y-27098500D03*
X38968000Y-26448500D03*
X38968000Y-25798500D03*
X38968000Y-25148500D03*
X38968000Y-24498500D03*
X38968000Y-23848500D03*
X38968000Y-23198500D03*
D25*
X55803000Y-41363500D03*
X58928000Y-41363500D03*
D13*
X31915500Y-34378500D03*
X28790500Y-34378500D03*
D26*
X72263000Y-28728500D03*
X70993000Y-28728500D03*
X69723000Y-28728500D03*
X68453000Y-28728500D03*
X68453000Y-33678500D03*
X69723000Y-33678500D03*
X70993000Y-33678500D03*
X72263000Y-33678500D03*
D17*
X76708000Y-41071000D03*
X76708000Y-44196000D03*
M02*
