M48
INCH,TZ
T1C0.0157
T2C0.0295
T3C0.0315
%
G90
G05
T1
X10700Y-12035
X11950Y-11285
X13444Y-13041
X14450Y-11285
X19950Y-9285
X19950Y-10785
X20450Y-12785
X21700Y-14285
T2
X9700Y-7560
X9700Y-8348
X9700Y-9135
X9700Y-9923
X9700Y-10710
X9700Y-11497
X9700Y-12285
X9700Y-13072
T3
X17196Y-14396
X17196Y-15396
X17196Y-16396
X17196Y-17396
X20196Y-14396
X20196Y-15396
X20196Y-16396
X20196Y-17396
X38954Y-9039
X38954Y-12039
X39954Y-9039
X39954Y-12039
X40954Y-9039
X40954Y-12039
X41954Y-9039
X41954Y-12039
T0
M30
