G04 #@! TF.GenerationSoftware,KiCad,Pcbnew,(6.0.2)*
G04 #@! TF.CreationDate,2022-03-10T22:37:30+00:00*
G04 #@! TF.ProjectId,EncoderCMOS,456e636f-6465-4724-934d-4f532e6b6963,rev?*
G04 #@! TF.SameCoordinates,Original*
G04 #@! TF.FileFunction,Copper,L2,Bot*
G04 #@! TF.FilePolarity,Positive*
%FSLAX46Y46*%
G04 Gerber Fmt 4.6, Leading zero omitted, Abs format (unit mm)*
G04 Created by KiCad (PCBNEW (6.0.2)) date 2022-03-10 22:37:30*
%MOMM*%
%LPD*%
G01*
G04 APERTURE LIST*
G04 Aperture macros list*
%AMRoundRect*
0 Rectangle with rounded corners*
0 $1 Rounding radius*
0 $2 $3 $4 $5 $6 $7 $8 $9 X,Y pos of 4 corners*
0 Add a 4 corners polygon primitive as box body*
4,1,4,$2,$3,$4,$5,$6,$7,$8,$9,$2,$3,0*
0 Add four circle primitives for the rounded corners*
1,1,$1+$1,$2,$3*
1,1,$1+$1,$4,$5*
1,1,$1+$1,$6,$7*
1,1,$1+$1,$8,$9*
0 Add four rect primitives between the rounded corners*
20,1,$1+$1,$2,$3,$4,$5,0*
20,1,$1+$1,$4,$5,$6,$7,0*
20,1,$1+$1,$6,$7,$8,$9,0*
20,1,$1+$1,$8,$9,$2,$3,0*%
G04 Aperture macros list end*
G04 #@! TA.AperFunction,ComponentPad*
%ADD10R,1.600000X1.600000*%
G04 #@! TD*
G04 #@! TA.AperFunction,ComponentPad*
%ADD11O,1.600000X1.600000*%
G04 #@! TD*
G04 #@! TA.AperFunction,ComponentPad*
%ADD12RoundRect,0.250000X-0.625000X0.350000X-0.625000X-0.350000X0.625000X-0.350000X0.625000X0.350000X0*%
G04 #@! TD*
G04 #@! TA.AperFunction,ComponentPad*
%ADD13O,1.750000X1.200000*%
G04 #@! TD*
G04 #@! TA.AperFunction,ViaPad*
%ADD14C,0.800000*%
G04 #@! TD*
G04 #@! TA.AperFunction,Conductor*
%ADD15C,0.250000*%
G04 #@! TD*
G04 APERTURE END LIST*
D10*
X98943000Y-22958500D03*
D11*
X101483000Y-22958500D03*
X104023000Y-22958500D03*
X106563000Y-22958500D03*
X106563000Y-30578500D03*
X104023000Y-30578500D03*
X101483000Y-30578500D03*
X98943000Y-30578500D03*
D12*
X24638000Y-19203500D03*
D13*
X24638000Y-21203500D03*
X24638000Y-23203500D03*
X24638000Y-25203500D03*
X24638000Y-27203500D03*
X24638000Y-29203500D03*
X24638000Y-31203500D03*
X24638000Y-33203500D03*
D10*
X51298000Y-44186000D03*
D11*
X51298000Y-41646000D03*
X51298000Y-39106000D03*
X51298000Y-36566000D03*
X43678000Y-36566000D03*
X43678000Y-39106000D03*
X43678000Y-41646000D03*
X43678000Y-44186000D03*
D14*
X50673000Y-27393500D03*
X50673000Y-23583500D03*
X51943000Y-32473500D03*
X55118000Y-36283500D03*
X27178000Y-30568500D03*
X30353000Y-28663500D03*
X34148000Y-33123500D03*
X36703000Y-28663500D03*
D15*
X85280500Y-25806000D02*
X74485500Y-25806000D01*
X72263000Y-23583500D02*
X74485500Y-25806000D01*
X98943000Y-30578500D02*
X90053000Y-30578500D01*
X90053000Y-30578500D02*
X85280500Y-25806000D01*
X100858000Y-33743500D02*
X104023000Y-30578500D01*
X89408000Y-33743500D02*
X100858000Y-33743500D01*
X84963000Y-29298500D02*
X89408000Y-33743500D01*
X37338000Y-29298500D02*
X84963000Y-29298500D01*
X99905500Y-32156000D02*
X89725500Y-32156000D01*
X101483000Y-30578500D02*
X99905500Y-32156000D01*
X84963000Y-27393500D02*
X89725500Y-32156000D01*
X50673000Y-27393500D02*
X84963000Y-27393500D01*
X72263000Y-23583500D02*
X50673000Y-23583500D01*
X36703000Y-28663500D02*
X37338000Y-29298500D01*
X55118000Y-36283500D02*
X51943000Y-33108500D01*
X51943000Y-33108500D02*
X51943000Y-32473500D01*
X29083000Y-28663500D02*
X30353000Y-28663500D01*
X27178000Y-30568500D02*
X29083000Y-28663500D01*
X26558000Y-33123500D02*
X34148000Y-33123500D01*
X24638000Y-31203500D02*
X26558000Y-33123500D01*
X46218000Y-41646000D02*
X43678000Y-39106000D01*
X51298000Y-41646000D02*
X46218000Y-41646000D01*
M02*
