G04 #@! TF.GenerationSoftware,KiCad,Pcbnew,(6.0.2)*
G04 #@! TF.CreationDate,2022-03-10T22:37:30+00:00*
G04 #@! TF.ProjectId,EncoderCMOS,456e636f-6465-4724-934d-4f532e6b6963,rev?*
G04 #@! TF.SameCoordinates,Original*
G04 #@! TF.FileFunction,Copper,L1,Top*
G04 #@! TF.FilePolarity,Positive*
%FSLAX46Y46*%
G04 Gerber Fmt 4.6, Leading zero omitted, Abs format (unit mm)*
G04 Created by KiCad (PCBNEW (6.0.2)) date 2022-03-10 22:37:30*
%MOMM*%
%LPD*%
G01*
G04 APERTURE LIST*
G04 Aperture macros list*
%AMRoundRect*
0 Rectangle with rounded corners*
0 $1 Rounding radius*
0 $2 $3 $4 $5 $6 $7 $8 $9 X,Y pos of 4 corners*
0 Add a 4 corners polygon primitive as box body*
4,1,4,$2,$3,$4,$5,$6,$7,$8,$9,$2,$3,0*
0 Add four circle primitives for the rounded corners*
1,1,$1+$1,$2,$3*
1,1,$1+$1,$4,$5*
1,1,$1+$1,$6,$7*
1,1,$1+$1,$8,$9*
0 Add four rect primitives between the rounded corners*
20,1,$1+$1,$2,$3,$4,$5,0*
20,1,$1+$1,$4,$5,$6,$7,0*
20,1,$1+$1,$6,$7,$8,$9,0*
20,1,$1+$1,$8,$9,$2,$3,0*%
G04 Aperture macros list end*
G04 #@! TA.AperFunction,NonConductor*
%ADD10C,0.200000*%
G04 #@! TD*
G04 #@! TA.AperFunction,SMDPad,CuDef*
%ADD11RoundRect,0.250000X0.650000X-0.412500X0.650000X0.412500X-0.650000X0.412500X-0.650000X-0.412500X0*%
G04 #@! TD*
G04 #@! TA.AperFunction,ComponentPad*
%ADD12R,1.600000X1.600000*%
G04 #@! TD*
G04 #@! TA.AperFunction,ComponentPad*
%ADD13O,1.600000X1.600000*%
G04 #@! TD*
G04 #@! TA.AperFunction,SMDPad,CuDef*
%ADD14RoundRect,0.250000X0.412500X0.650000X-0.412500X0.650000X-0.412500X-0.650000X0.412500X-0.650000X0*%
G04 #@! TD*
G04 #@! TA.AperFunction,SMDPad,CuDef*
%ADD15R,1.600000X1.500000*%
G04 #@! TD*
G04 #@! TA.AperFunction,SMDPad,CuDef*
%ADD16R,6.700000X6.500000*%
G04 #@! TD*
G04 #@! TA.AperFunction,SMDPad,CuDef*
%ADD17RoundRect,0.250000X-0.400000X-0.625000X0.400000X-0.625000X0.400000X0.625000X-0.400000X0.625000X0*%
G04 #@! TD*
G04 #@! TA.AperFunction,SMDPad,CuDef*
%ADD18RoundRect,0.250000X-0.650000X0.412500X-0.650000X-0.412500X0.650000X-0.412500X0.650000X0.412500X0*%
G04 #@! TD*
G04 #@! TA.AperFunction,SMDPad,CuDef*
%ADD19RoundRect,0.250000X0.400000X0.625000X-0.400000X0.625000X-0.400000X-0.625000X0.400000X-0.625000X0*%
G04 #@! TD*
G04 #@! TA.AperFunction,SMDPad,CuDef*
%ADD20RoundRect,0.250001X-0.624999X0.462499X-0.624999X-0.462499X0.624999X-0.462499X0.624999X0.462499X0*%
G04 #@! TD*
G04 #@! TA.AperFunction,ComponentPad*
%ADD21RoundRect,0.250000X-0.625000X0.350000X-0.625000X-0.350000X0.625000X-0.350000X0.625000X0.350000X0*%
G04 #@! TD*
G04 #@! TA.AperFunction,ComponentPad*
%ADD22O,1.750000X1.200000*%
G04 #@! TD*
G04 #@! TA.AperFunction,SMDPad,CuDef*
%ADD23RoundRect,0.250000X0.625000X-0.400000X0.625000X0.400000X-0.625000X0.400000X-0.625000X-0.400000X0*%
G04 #@! TD*
G04 #@! TA.AperFunction,SMDPad,CuDef*
%ADD24RoundRect,0.250001X-0.462499X-0.624999X0.462499X-0.624999X0.462499X0.624999X-0.462499X0.624999X0*%
G04 #@! TD*
G04 #@! TA.AperFunction,SMDPad,CuDef*
%ADD25R,1.000000X0.400000*%
G04 #@! TD*
G04 #@! TA.AperFunction,SMDPad,CuDef*
%ADD26RoundRect,0.250000X-0.412500X-0.650000X0.412500X-0.650000X0.412500X0.650000X-0.412500X0.650000X0*%
G04 #@! TD*
G04 #@! TA.AperFunction,SMDPad,CuDef*
%ADD27RoundRect,0.150000X-0.150000X0.825000X-0.150000X-0.825000X0.150000X-0.825000X0.150000X0.825000X0*%
G04 #@! TD*
G04 #@! TA.AperFunction,ViaPad*
%ADD28C,0.800000*%
G04 #@! TD*
G04 #@! TA.AperFunction,Conductor*
%ADD29C,0.250000*%
G04 #@! TD*
G04 APERTURE END LIST*
D10*
X84963000Y-21678500D02*
G75*
G03*
X84963000Y-21678500I-2540000J0D01*
G01*
X22176172Y-43268500D02*
G75*
G03*
X22176172Y-43268500I-2618172J0D01*
G01*
X85041172Y-40093500D02*
G75*
G03*
X85041172Y-40093500I-2618172J0D01*
G01*
D11*
X36068000Y-36576000D03*
X36068000Y-33451000D03*
D12*
X98943000Y-22958500D03*
D13*
X101483000Y-22958500D03*
X104023000Y-22958500D03*
X106563000Y-22958500D03*
X106563000Y-30578500D03*
X104023000Y-30578500D03*
X101483000Y-30578500D03*
X98943000Y-30578500D03*
D14*
X63030500Y-25488500D03*
X59905500Y-25488500D03*
D15*
X23568000Y-37793500D03*
D16*
X29718000Y-40093500D03*
D15*
X23568000Y-42393500D03*
D17*
X44043000Y-23583500D03*
X47143000Y-23583500D03*
D18*
X57658000Y-30911000D03*
X57658000Y-34036000D03*
X65278000Y-18211000D03*
X65278000Y-21336000D03*
D19*
X39608000Y-44196000D03*
X36508000Y-44196000D03*
X69368000Y-25488500D03*
X66268000Y-25488500D03*
D20*
X62445500Y-41146000D03*
X62445500Y-44121000D03*
D18*
X69088000Y-18211000D03*
X69088000Y-21336000D03*
D21*
X24638000Y-19203500D03*
D22*
X24638000Y-21203500D03*
X24638000Y-23203500D03*
X24638000Y-25203500D03*
X24638000Y-27203500D03*
X24638000Y-29203500D03*
X24638000Y-31203500D03*
X24638000Y-33203500D03*
D18*
X74168000Y-41071000D03*
X74168000Y-44196000D03*
X62738000Y-30911000D03*
X62738000Y-34036000D03*
D19*
X47143000Y-27393500D03*
X44043000Y-27393500D03*
D23*
X36068000Y-41643500D03*
X36068000Y-38543500D03*
D11*
X71628000Y-44196000D03*
X71628000Y-41071000D03*
X39878000Y-36576000D03*
X39878000Y-33451000D03*
D24*
X66038000Y-41363500D03*
X69013000Y-41363500D03*
D14*
X31915500Y-31838500D03*
X28790500Y-31838500D03*
D12*
X51298000Y-44186000D03*
D13*
X51298000Y-41646000D03*
X51298000Y-39106000D03*
X51298000Y-36566000D03*
X43678000Y-36566000D03*
X43678000Y-39106000D03*
X43678000Y-41646000D03*
X43678000Y-44186000D03*
D25*
X33168000Y-23198500D03*
X33168000Y-23848500D03*
X33168000Y-24498500D03*
X33168000Y-25148500D03*
X33168000Y-25798500D03*
X33168000Y-26448500D03*
X33168000Y-27098500D03*
X33168000Y-27748500D03*
X33168000Y-28398500D03*
X33168000Y-29048500D03*
X38968000Y-29048500D03*
X38968000Y-28398500D03*
X38968000Y-27748500D03*
X38968000Y-27098500D03*
X38968000Y-26448500D03*
X38968000Y-25798500D03*
X38968000Y-25148500D03*
X38968000Y-24498500D03*
X38968000Y-23848500D03*
X38968000Y-23198500D03*
D26*
X55803000Y-41363500D03*
X58928000Y-41363500D03*
D14*
X31915500Y-34378500D03*
X28790500Y-34378500D03*
D27*
X72263000Y-28728500D03*
X70993000Y-28728500D03*
X69723000Y-28728500D03*
X68453000Y-28728500D03*
X68453000Y-33678500D03*
X69723000Y-33678500D03*
X70993000Y-33678500D03*
X72263000Y-33678500D03*
D18*
X76708000Y-41071000D03*
X76708000Y-44196000D03*
D28*
X50673000Y-27393500D03*
X50673000Y-23583500D03*
X51943000Y-32473500D03*
X55118000Y-36283500D03*
X27178000Y-30568500D03*
X30353000Y-28663500D03*
X34148000Y-33123500D03*
X36703000Y-28663500D03*
D29*
X69305500Y-41071000D02*
X69013000Y-41363500D01*
X71628000Y-41071000D02*
X69305500Y-41071000D01*
X74168000Y-41071000D02*
X76708000Y-41071000D01*
X71628000Y-41071000D02*
X74168000Y-41071000D01*
X106563000Y-30578500D02*
X104713000Y-28728500D01*
X104713000Y-28728500D02*
X72263000Y-28728500D01*
X95758000Y-24853500D02*
X104668000Y-24853500D01*
X104668000Y-24853500D02*
X106563000Y-22958500D01*
X88773000Y-17868500D02*
X95758000Y-24853500D01*
X21463000Y-35688500D02*
X21463000Y-29298500D01*
X23568000Y-37793500D02*
X21463000Y-35688500D01*
X41420500Y-46443500D02*
X27618000Y-46443500D01*
X27618000Y-46443500D02*
X23568000Y-42393500D01*
X88773000Y-17868500D02*
X67818000Y-17868500D01*
X67818000Y-17868500D02*
X68745500Y-17868500D01*
X63373000Y-17868500D02*
X67818000Y-17868500D01*
X68745500Y-17868500D02*
X69088000Y-18211000D01*
X63373000Y-17868500D02*
X64935500Y-17868500D01*
X22733000Y-17868500D02*
X63373000Y-17868500D01*
X64935500Y-17868500D02*
X65278000Y-18211000D01*
X30738000Y-29048500D02*
X33168000Y-29048500D01*
X30353000Y-28663500D02*
X30738000Y-29048500D01*
X40180500Y-36566000D02*
X39878000Y-36868500D01*
X43678000Y-36566000D02*
X40180500Y-36566000D01*
X57658000Y-34036000D02*
X62738000Y-34036000D01*
X32863000Y-31838500D02*
X31915500Y-31838500D01*
X34148000Y-33123500D02*
X32863000Y-31838500D01*
X22733000Y-17868500D02*
X21463000Y-19138500D01*
X23368000Y-31203500D02*
X24638000Y-31203500D01*
X21463000Y-29298500D02*
X23368000Y-31203500D01*
X32893000Y-34378500D02*
X31915500Y-34378500D01*
X21463000Y-19138500D02*
X21463000Y-29298500D01*
X39718000Y-23198500D02*
X38968000Y-23198500D01*
X34148000Y-33123500D02*
X32893000Y-34378500D01*
X36068000Y-31203500D02*
X39243000Y-31203500D01*
X34148000Y-33123500D02*
X36068000Y-31203500D01*
X41148000Y-29298500D02*
X41148000Y-24628500D01*
X39243000Y-31203500D02*
X41148000Y-29298500D01*
X41148000Y-24628500D02*
X39718000Y-23198500D01*
X36630500Y-39106000D02*
X36068000Y-38543500D01*
X43678000Y-39106000D02*
X36630500Y-39106000D01*
X36068000Y-38543500D02*
X36068000Y-36576000D01*
X51298000Y-39106000D02*
X53545500Y-39106000D01*
X53545500Y-39106000D02*
X55803000Y-41363500D01*
X65820500Y-41146000D02*
X66038000Y-41363500D01*
X62228000Y-41363500D02*
X62445500Y-41146000D01*
X58928000Y-41363500D02*
X62228000Y-41363500D01*
X62445500Y-41146000D02*
X65820500Y-41146000D01*
X39618000Y-44186000D02*
X39608000Y-44196000D01*
X43678000Y-44186000D02*
X39618000Y-44186000D01*
X41420500Y-46443500D02*
X43678000Y-44186000D01*
X57658000Y-30911000D02*
X62738000Y-30911000D01*
X62738000Y-30911000D02*
X66270500Y-30911000D01*
X51298000Y-36566000D02*
X56953000Y-30911000D01*
X56953000Y-30911000D02*
X57658000Y-30911000D01*
X66270500Y-30911000D02*
X68453000Y-28728500D01*
X43678000Y-44186000D02*
X51298000Y-36566000D01*
X68453000Y-33678500D02*
X68453000Y-40803500D01*
X68453000Y-40803500D02*
X69013000Y-41363500D01*
X56745500Y-19203500D02*
X24638000Y-19203500D01*
X63030500Y-25488500D02*
X56745500Y-19203500D01*
X66268000Y-25488500D02*
X63030500Y-25488500D01*
X33168000Y-23198500D02*
X26633000Y-23198500D01*
X26633000Y-23198500D02*
X24638000Y-21203500D01*
X27368000Y-27203500D02*
X24638000Y-27203500D01*
X30073000Y-24498500D02*
X27368000Y-27203500D01*
X33168000Y-24498500D02*
X30073000Y-24498500D01*
X33168000Y-23848500D02*
X25993000Y-23848500D01*
X25993000Y-23848500D02*
X24638000Y-25203500D01*
X38083000Y-29933500D02*
X30353000Y-29933500D01*
X38968000Y-29048500D02*
X38083000Y-29933500D01*
X29623000Y-29203500D02*
X24638000Y-29203500D01*
X30353000Y-29933500D02*
X29623000Y-29203500D01*
X47143000Y-27393500D02*
X50673000Y-27393500D01*
X47143000Y-23583500D02*
X50673000Y-23583500D01*
X36068000Y-41643500D02*
X36070500Y-41646000D01*
X36070500Y-41646000D02*
X43678000Y-41646000D01*
X36508000Y-42083500D02*
X36068000Y-41643500D01*
X36508000Y-44196000D02*
X36508000Y-42083500D01*
X69723000Y-28728500D02*
X69723000Y-25843500D01*
X69723000Y-25843500D02*
X69368000Y-25488500D01*
X69723000Y-28728500D02*
X70993000Y-28728500D01*
X36438000Y-28398500D02*
X33168000Y-28398500D01*
X36703000Y-28663500D02*
X36438000Y-28398500D01*
X37338000Y-21678500D02*
X36703000Y-22313500D01*
X37633000Y-25148500D02*
X38968000Y-25148500D01*
X36703000Y-22313500D02*
X36703000Y-24218500D01*
X36703000Y-24218500D02*
X37633000Y-25148500D01*
X42138000Y-21678500D02*
X44043000Y-23583500D01*
X42138000Y-21678500D02*
X37338000Y-21678500D01*
X37973000Y-22313500D02*
X37338000Y-22948500D01*
X39878000Y-22313500D02*
X44043000Y-26478500D01*
X37338000Y-23583500D02*
X38253000Y-24498500D01*
X39878000Y-22313500D02*
X37973000Y-22313500D01*
X44043000Y-26478500D02*
X44043000Y-27393500D01*
X38253000Y-24498500D02*
X38968000Y-24498500D01*
X37338000Y-22948500D02*
X37338000Y-23583500D01*
G04 #@! TA.AperFunction,Conductor*
G36*
X109771721Y-15869602D02*
G01*
X109818214Y-15923258D01*
X109829600Y-15975600D01*
X109829600Y-36932600D01*
X109809598Y-37000721D01*
X109755942Y-37047214D01*
X109703600Y-37058600D01*
X88819826Y-37058600D01*
X88808278Y-37058070D01*
X88803363Y-37057618D01*
X88794630Y-37055536D01*
X88744471Y-37058070D01*
X88737147Y-37058440D01*
X88730790Y-37058600D01*
X88711123Y-37058600D01*
X88704575Y-37059538D01*
X88704398Y-37059563D01*
X88692893Y-37060676D01*
X88681398Y-37061256D01*
X88658259Y-37062425D01*
X88658256Y-37062426D01*
X88649300Y-37062878D01*
X88638461Y-37066651D01*
X88614914Y-37072378D01*
X88603555Y-37074005D01*
X88595391Y-37077717D01*
X88595384Y-37077719D01*
X88563823Y-37092069D01*
X88553096Y-37096365D01*
X88520345Y-37107765D01*
X88520343Y-37107766D01*
X88511874Y-37110714D01*
X88504569Y-37115923D01*
X88504567Y-37115924D01*
X88502535Y-37117373D01*
X88481530Y-37129486D01*
X88471090Y-37134233D01*
X88464293Y-37140090D01*
X88464291Y-37140091D01*
X88438022Y-37162726D01*
X88428935Y-37169857D01*
X88393396Y-37195199D01*
X88387844Y-37202251D01*
X88387845Y-37202251D01*
X88386300Y-37204214D01*
X88369541Y-37221733D01*
X88367652Y-37223360D01*
X88367650Y-37223362D01*
X88360853Y-37229219D01*
X88345291Y-37253229D01*
X88337120Y-37265836D01*
X88330394Y-37275237D01*
X88327261Y-37279217D01*
X88327257Y-37279223D01*
X88324242Y-37283053D01*
X88314892Y-37299675D01*
X88310824Y-37306404D01*
X88281707Y-37351327D01*
X88279134Y-37359928D01*
X88275370Y-37368075D01*
X88274958Y-37367885D01*
X88270141Y-37379232D01*
X82813909Y-47079202D01*
X82771625Y-47154373D01*
X82720794Y-47203939D01*
X82661806Y-47218600D01*
X41819229Y-47218600D01*
X41751108Y-47198598D01*
X41704615Y-47144942D01*
X41694511Y-47074668D01*
X41724005Y-47010088D01*
X41745170Y-46990663D01*
X41763888Y-46977064D01*
X41773807Y-46970548D01*
X41805035Y-46952080D01*
X41805038Y-46952078D01*
X41811862Y-46948042D01*
X41826183Y-46933721D01*
X41841217Y-46920880D01*
X41851194Y-46913631D01*
X41857607Y-46908972D01*
X41885798Y-46874895D01*
X41893788Y-46866116D01*
X43264752Y-45495152D01*
X43327064Y-45461126D01*
X43386459Y-45462541D01*
X43444591Y-45478118D01*
X43444602Y-45478120D01*
X43449913Y-45479543D01*
X43678000Y-45499498D01*
X43906087Y-45479543D01*
X43911400Y-45478119D01*
X43911402Y-45478119D01*
X44121933Y-45421707D01*
X44121935Y-45421706D01*
X44127243Y-45420284D01*
X44132225Y-45417961D01*
X44329762Y-45325849D01*
X44329767Y-45325846D01*
X44334749Y-45323523D01*
X44454533Y-45239649D01*
X44517789Y-45195357D01*
X44517792Y-45195355D01*
X44522300Y-45192198D01*
X44683829Y-45030669D01*
X49990001Y-45030669D01*
X49990371Y-45037490D01*
X49995895Y-45088352D01*
X49999521Y-45103604D01*
X50044676Y-45224054D01*
X50053214Y-45239649D01*
X50129715Y-45341724D01*
X50142276Y-45354285D01*
X50244351Y-45430786D01*
X50259946Y-45439324D01*
X50380394Y-45484478D01*
X50395649Y-45488105D01*
X50446514Y-45493631D01*
X50453328Y-45494000D01*
X51025885Y-45494000D01*
X51041124Y-45489525D01*
X51042329Y-45488135D01*
X51044000Y-45480452D01*
X51044000Y-45475884D01*
X51552000Y-45475884D01*
X51556475Y-45491123D01*
X51557865Y-45492328D01*
X51565548Y-45493999D01*
X52142669Y-45493999D01*
X52149490Y-45493629D01*
X52200352Y-45488105D01*
X52215604Y-45484479D01*
X52336054Y-45439324D01*
X52351649Y-45430786D01*
X52453724Y-45354285D01*
X52466285Y-45341724D01*
X52542786Y-45239649D01*
X52551324Y-45224054D01*
X52596478Y-45103606D01*
X52600105Y-45088351D01*
X52605631Y-45037486D01*
X52606000Y-45030672D01*
X52606000Y-44630596D01*
X61062500Y-44630596D01*
X61062837Y-44637111D01*
X61072756Y-44732703D01*
X61075650Y-44746102D01*
X61127088Y-44900283D01*
X61133262Y-44913462D01*
X61218563Y-45051307D01*
X61227599Y-45062708D01*
X61342330Y-45177239D01*
X61353741Y-45186251D01*
X61491745Y-45271318D01*
X61504923Y-45277462D01*
X61659216Y-45328639D01*
X61672581Y-45331505D01*
X61766939Y-45341172D01*
X61773355Y-45341500D01*
X62173385Y-45341500D01*
X62188624Y-45337025D01*
X62189829Y-45335635D01*
X62191500Y-45327952D01*
X62191500Y-45323385D01*
X62699500Y-45323385D01*
X62703975Y-45338624D01*
X62705365Y-45339829D01*
X62713048Y-45341500D01*
X63117596Y-45341500D01*
X63124111Y-45341163D01*
X63219703Y-45331244D01*
X63233102Y-45328350D01*
X63387283Y-45276912D01*
X63400462Y-45270738D01*
X63538307Y-45185437D01*
X63549708Y-45176401D01*
X63664239Y-45061670D01*
X63673251Y-45050259D01*
X63758318Y-44912255D01*
X63764462Y-44899077D01*
X63815639Y-44744784D01*
X63818505Y-44731419D01*
X63826273Y-44655595D01*
X70220001Y-44655595D01*
X70220338Y-44662114D01*
X70230257Y-44757706D01*
X70233149Y-44771100D01*
X70284588Y-44925284D01*
X70290761Y-44938462D01*
X70376063Y-45076307D01*
X70385099Y-45087708D01*
X70499829Y-45202239D01*
X70511240Y-45211251D01*
X70649243Y-45296316D01*
X70662424Y-45302463D01*
X70816710Y-45353638D01*
X70830086Y-45356505D01*
X70924438Y-45366172D01*
X70930854Y-45366500D01*
X71355885Y-45366500D01*
X71371124Y-45362025D01*
X71372329Y-45360635D01*
X71374000Y-45352952D01*
X71374000Y-45348384D01*
X71882000Y-45348384D01*
X71886475Y-45363623D01*
X71887865Y-45364828D01*
X71895548Y-45366499D01*
X72325095Y-45366499D01*
X72331614Y-45366162D01*
X72427206Y-45356243D01*
X72440600Y-45353351D01*
X72594784Y-45301912D01*
X72607962Y-45295739D01*
X72745807Y-45210437D01*
X72757208Y-45201401D01*
X72808836Y-45149683D01*
X72871119Y-45115604D01*
X72941939Y-45120607D01*
X72987028Y-45149529D01*
X73039829Y-45202239D01*
X73051240Y-45211251D01*
X73189243Y-45296316D01*
X73202424Y-45302463D01*
X73356710Y-45353638D01*
X73370086Y-45356505D01*
X73464438Y-45366172D01*
X73470854Y-45366500D01*
X73895885Y-45366500D01*
X73911124Y-45362025D01*
X73912329Y-45360635D01*
X73914000Y-45352952D01*
X73914000Y-45348384D01*
X74422000Y-45348384D01*
X74426475Y-45363623D01*
X74427865Y-45364828D01*
X74435548Y-45366499D01*
X74865095Y-45366499D01*
X74871614Y-45366162D01*
X74967206Y-45356243D01*
X74980600Y-45353351D01*
X75134784Y-45301912D01*
X75147962Y-45295739D01*
X75285807Y-45210437D01*
X75297208Y-45201401D01*
X75348836Y-45149683D01*
X75411119Y-45115604D01*
X75481939Y-45120607D01*
X75527028Y-45149529D01*
X75579829Y-45202239D01*
X75591240Y-45211251D01*
X75729243Y-45296316D01*
X75742424Y-45302463D01*
X75896710Y-45353638D01*
X75910086Y-45356505D01*
X76004438Y-45366172D01*
X76010854Y-45366500D01*
X76435885Y-45366500D01*
X76451124Y-45362025D01*
X76452329Y-45360635D01*
X76454000Y-45352952D01*
X76454000Y-45348384D01*
X76962000Y-45348384D01*
X76966475Y-45363623D01*
X76967865Y-45364828D01*
X76975548Y-45366499D01*
X77405095Y-45366499D01*
X77411614Y-45366162D01*
X77507206Y-45356243D01*
X77520600Y-45353351D01*
X77674784Y-45301912D01*
X77687962Y-45295739D01*
X77825807Y-45210437D01*
X77837208Y-45201401D01*
X77951739Y-45086671D01*
X77960751Y-45075260D01*
X78045816Y-44937257D01*
X78051963Y-44924076D01*
X78103138Y-44769790D01*
X78106005Y-44756414D01*
X78115672Y-44662062D01*
X78116000Y-44655646D01*
X78116000Y-44468115D01*
X78111525Y-44452876D01*
X78110135Y-44451671D01*
X78102452Y-44450000D01*
X76980115Y-44450000D01*
X76964876Y-44454475D01*
X76963671Y-44455865D01*
X76962000Y-44463548D01*
X76962000Y-45348384D01*
X76454000Y-45348384D01*
X76454000Y-44468115D01*
X76449525Y-44452876D01*
X76448135Y-44451671D01*
X76440452Y-44450000D01*
X74440115Y-44450000D01*
X74424876Y-44454475D01*
X74423671Y-44455865D01*
X74422000Y-44463548D01*
X74422000Y-45348384D01*
X73914000Y-45348384D01*
X73914000Y-44468115D01*
X73909525Y-44452876D01*
X73908135Y-44451671D01*
X73900452Y-44450000D01*
X71900115Y-44450000D01*
X71884876Y-44454475D01*
X71883671Y-44455865D01*
X71882000Y-44463548D01*
X71882000Y-45348384D01*
X71374000Y-45348384D01*
X71374000Y-44468115D01*
X71369525Y-44452876D01*
X71368135Y-44451671D01*
X71360452Y-44450000D01*
X70238116Y-44450000D01*
X70222877Y-44454475D01*
X70221672Y-44455865D01*
X70220001Y-44463548D01*
X70220001Y-44655595D01*
X63826273Y-44655595D01*
X63828172Y-44637061D01*
X63828500Y-44630645D01*
X63828500Y-44393115D01*
X63824025Y-44377876D01*
X63822635Y-44376671D01*
X63814952Y-44375000D01*
X62717615Y-44375000D01*
X62702376Y-44379475D01*
X62701171Y-44380865D01*
X62699500Y-44388548D01*
X62699500Y-45323385D01*
X62191500Y-45323385D01*
X62191500Y-44393115D01*
X62187025Y-44377876D01*
X62185635Y-44376671D01*
X62177952Y-44375000D01*
X61080615Y-44375000D01*
X61065376Y-44379475D01*
X61064171Y-44380865D01*
X61062500Y-44388548D01*
X61062500Y-44630596D01*
X52606000Y-44630596D01*
X52606000Y-44458115D01*
X52601525Y-44442876D01*
X52600135Y-44441671D01*
X52592452Y-44440000D01*
X51570115Y-44440000D01*
X51554876Y-44444475D01*
X51553671Y-44445865D01*
X51552000Y-44453548D01*
X51552000Y-45475884D01*
X51044000Y-45475884D01*
X51044000Y-44458115D01*
X51039525Y-44442876D01*
X51038135Y-44441671D01*
X51030452Y-44440000D01*
X50008116Y-44440000D01*
X49992877Y-44444475D01*
X49991672Y-44445865D01*
X49990001Y-44453548D01*
X49990001Y-45030669D01*
X44683829Y-45030669D01*
X44684198Y-45030300D01*
X44727106Y-44969022D01*
X44743733Y-44945276D01*
X44815523Y-44842749D01*
X44817846Y-44837767D01*
X44817849Y-44837762D01*
X44909961Y-44640225D01*
X44909961Y-44640224D01*
X44912284Y-44635243D01*
X44916213Y-44620582D01*
X44970119Y-44419402D01*
X44970119Y-44419400D01*
X44971543Y-44414087D01*
X44991498Y-44186000D01*
X44971543Y-43957913D01*
X44970120Y-43952602D01*
X44970118Y-43952591D01*
X44954541Y-43894459D01*
X44956230Y-43823483D01*
X44987152Y-43772752D01*
X49771411Y-38988493D01*
X49833723Y-38954467D01*
X49904538Y-38959532D01*
X49961374Y-39002079D01*
X49986185Y-39068599D01*
X49986026Y-39088570D01*
X49984981Y-39100514D01*
X49984981Y-39100525D01*
X49984502Y-39106000D01*
X50004457Y-39334087D01*
X50005881Y-39339400D01*
X50005881Y-39339402D01*
X50058998Y-39537634D01*
X50063716Y-39555243D01*
X50066039Y-39560224D01*
X50066039Y-39560225D01*
X50158151Y-39757762D01*
X50158154Y-39757767D01*
X50160477Y-39762749D01*
X50210112Y-39833635D01*
X50281771Y-39935974D01*
X50291802Y-39950300D01*
X50453700Y-40112198D01*
X50458208Y-40115355D01*
X50458211Y-40115357D01*
X50500837Y-40145204D01*
X50641251Y-40243523D01*
X50646233Y-40245846D01*
X50646238Y-40245849D01*
X50680457Y-40261805D01*
X50733742Y-40308722D01*
X50753203Y-40376999D01*
X50732661Y-40444959D01*
X50680457Y-40490195D01*
X50646238Y-40506151D01*
X50646233Y-40506154D01*
X50641251Y-40508477D01*
X50545108Y-40575797D01*
X50458211Y-40636643D01*
X50458208Y-40636645D01*
X50453700Y-40639802D01*
X50291802Y-40801700D01*
X50160477Y-40989251D01*
X50158154Y-40994233D01*
X50158151Y-40994238D01*
X50066039Y-41191775D01*
X50063716Y-41196757D01*
X50062294Y-41202065D01*
X50062293Y-41202067D01*
X50005881Y-41412598D01*
X50004457Y-41417913D01*
X49984502Y-41646000D01*
X50004457Y-41874087D01*
X50005881Y-41879400D01*
X50005881Y-41879402D01*
X50060162Y-42081978D01*
X50063716Y-42095243D01*
X50066039Y-42100224D01*
X50066039Y-42100225D01*
X50158151Y-42297762D01*
X50158154Y-42297767D01*
X50160477Y-42302749D01*
X50291802Y-42490300D01*
X50453700Y-42652198D01*
X50458211Y-42655357D01*
X50462424Y-42658892D01*
X50461612Y-42659860D01*
X50502090Y-42710494D01*
X50509404Y-42781113D01*
X50477376Y-42844476D01*
X50416177Y-42880464D01*
X50399099Y-42883520D01*
X50395648Y-42883895D01*
X50380396Y-42887521D01*
X50259946Y-42932676D01*
X50244351Y-42941214D01*
X50142276Y-43017715D01*
X50129715Y-43030276D01*
X50053214Y-43132351D01*
X50044676Y-43147946D01*
X49999522Y-43268394D01*
X49995895Y-43283649D01*
X49990369Y-43334514D01*
X49990000Y-43341328D01*
X49990000Y-43913885D01*
X49994475Y-43929124D01*
X49995865Y-43930329D01*
X50003548Y-43932000D01*
X52587884Y-43932000D01*
X52603123Y-43927525D01*
X52604328Y-43926135D01*
X52604817Y-43923885D01*
X70220000Y-43923885D01*
X70224475Y-43939124D01*
X70225865Y-43940329D01*
X70233548Y-43942000D01*
X71355885Y-43942000D01*
X71371124Y-43937525D01*
X71372329Y-43936135D01*
X71374000Y-43928452D01*
X71374000Y-43923885D01*
X71882000Y-43923885D01*
X71886475Y-43939124D01*
X71887865Y-43940329D01*
X71895548Y-43942000D01*
X73895885Y-43942000D01*
X73911124Y-43937525D01*
X73912329Y-43936135D01*
X73914000Y-43928452D01*
X73914000Y-43923885D01*
X74422000Y-43923885D01*
X74426475Y-43939124D01*
X74427865Y-43940329D01*
X74435548Y-43942000D01*
X76435885Y-43942000D01*
X76451124Y-43937525D01*
X76452329Y-43936135D01*
X76454000Y-43928452D01*
X76454000Y-43923885D01*
X76962000Y-43923885D01*
X76966475Y-43939124D01*
X76967865Y-43940329D01*
X76975548Y-43942000D01*
X78097884Y-43942000D01*
X78113123Y-43937525D01*
X78114328Y-43936135D01*
X78115999Y-43928452D01*
X78115999Y-43736405D01*
X78115662Y-43729886D01*
X78105743Y-43634294D01*
X78102851Y-43620900D01*
X78051412Y-43466716D01*
X78045239Y-43453538D01*
X77959937Y-43315693D01*
X77950901Y-43304292D01*
X77836171Y-43189761D01*
X77824760Y-43180749D01*
X77686757Y-43095684D01*
X77673576Y-43089537D01*
X77519290Y-43038362D01*
X77505914Y-43035495D01*
X77411562Y-43025828D01*
X77405145Y-43025500D01*
X76980115Y-43025500D01*
X76964876Y-43029975D01*
X76963671Y-43031365D01*
X76962000Y-43039048D01*
X76962000Y-43923885D01*
X76454000Y-43923885D01*
X76454000Y-43043616D01*
X76449525Y-43028377D01*
X76448135Y-43027172D01*
X76440452Y-43025501D01*
X76010905Y-43025501D01*
X76004386Y-43025838D01*
X75908794Y-43035757D01*
X75895400Y-43038649D01*
X75741216Y-43090088D01*
X75728038Y-43096261D01*
X75590193Y-43181563D01*
X75578792Y-43190599D01*
X75527164Y-43242317D01*
X75464881Y-43276396D01*
X75394061Y-43271393D01*
X75348972Y-43242471D01*
X75296171Y-43189761D01*
X75284760Y-43180749D01*
X75146757Y-43095684D01*
X75133576Y-43089537D01*
X74979290Y-43038362D01*
X74965914Y-43035495D01*
X74871562Y-43025828D01*
X74865145Y-43025500D01*
X74440115Y-43025500D01*
X74424876Y-43029975D01*
X74423671Y-43031365D01*
X74422000Y-43039048D01*
X74422000Y-43923885D01*
X73914000Y-43923885D01*
X73914000Y-43043616D01*
X73909525Y-43028377D01*
X73908135Y-43027172D01*
X73900452Y-43025501D01*
X73470905Y-43025501D01*
X73464386Y-43025838D01*
X73368794Y-43035757D01*
X73355400Y-43038649D01*
X73201216Y-43090088D01*
X73188038Y-43096261D01*
X73050193Y-43181563D01*
X73038792Y-43190599D01*
X72987164Y-43242317D01*
X72924881Y-43276396D01*
X72854061Y-43271393D01*
X72808972Y-43242471D01*
X72756171Y-43189761D01*
X72744760Y-43180749D01*
X72606757Y-43095684D01*
X72593576Y-43089537D01*
X72439290Y-43038362D01*
X72425914Y-43035495D01*
X72331562Y-43025828D01*
X72325145Y-43025500D01*
X71900115Y-43025500D01*
X71884876Y-43029975D01*
X71883671Y-43031365D01*
X71882000Y-43039048D01*
X71882000Y-43923885D01*
X71374000Y-43923885D01*
X71374000Y-43043616D01*
X71369525Y-43028377D01*
X71368135Y-43027172D01*
X71360452Y-43025501D01*
X70930905Y-43025501D01*
X70924386Y-43025838D01*
X70828794Y-43035757D01*
X70815400Y-43038649D01*
X70661216Y-43090088D01*
X70648038Y-43096261D01*
X70510193Y-43181563D01*
X70498792Y-43190599D01*
X70384261Y-43305329D01*
X70375249Y-43316740D01*
X70290184Y-43454743D01*
X70284037Y-43467924D01*
X70232862Y-43622210D01*
X70229995Y-43635586D01*
X70220328Y-43729938D01*
X70220000Y-43736355D01*
X70220000Y-43923885D01*
X52604817Y-43923885D01*
X52605999Y-43918452D01*
X52605999Y-43848885D01*
X61062500Y-43848885D01*
X61066975Y-43864124D01*
X61068365Y-43865329D01*
X61076048Y-43867000D01*
X62173385Y-43867000D01*
X62188624Y-43862525D01*
X62189829Y-43861135D01*
X62191500Y-43853452D01*
X62191500Y-43848885D01*
X62699500Y-43848885D01*
X62703975Y-43864124D01*
X62705365Y-43865329D01*
X62713048Y-43867000D01*
X63810385Y-43867000D01*
X63825624Y-43862525D01*
X63826829Y-43861135D01*
X63828500Y-43853452D01*
X63828500Y-43611404D01*
X63828163Y-43604889D01*
X63818244Y-43509297D01*
X63815350Y-43495898D01*
X63763912Y-43341717D01*
X63757738Y-43328538D01*
X63672437Y-43190693D01*
X63663401Y-43179292D01*
X63548670Y-43064761D01*
X63537259Y-43055749D01*
X63399255Y-42970682D01*
X63386077Y-42964538D01*
X63231784Y-42913361D01*
X63218419Y-42910495D01*
X63124061Y-42900828D01*
X63117644Y-42900500D01*
X62717615Y-42900500D01*
X62702376Y-42904975D01*
X62701171Y-42906365D01*
X62699500Y-42914048D01*
X62699500Y-43848885D01*
X62191500Y-43848885D01*
X62191500Y-42918615D01*
X62187025Y-42903376D01*
X62185635Y-42902171D01*
X62177952Y-42900500D01*
X61773404Y-42900500D01*
X61766889Y-42900837D01*
X61671297Y-42910756D01*
X61657898Y-42913650D01*
X61503717Y-42965088D01*
X61490538Y-42971262D01*
X61352693Y-43056563D01*
X61341292Y-43065599D01*
X61226761Y-43180330D01*
X61217749Y-43191741D01*
X61132682Y-43329745D01*
X61126538Y-43342923D01*
X61075361Y-43497216D01*
X61072495Y-43510581D01*
X61062828Y-43604939D01*
X61062500Y-43611356D01*
X61062500Y-43848885D01*
X52605999Y-43848885D01*
X52605999Y-43341331D01*
X52605629Y-43334510D01*
X52600105Y-43283648D01*
X52596479Y-43268396D01*
X52551324Y-43147946D01*
X52542786Y-43132351D01*
X52466285Y-43030276D01*
X52453724Y-43017715D01*
X52351649Y-42941214D01*
X52336054Y-42932676D01*
X52215606Y-42887522D01*
X52200357Y-42883896D01*
X52196904Y-42883521D01*
X52194394Y-42882478D01*
X52192669Y-42882068D01*
X52192735Y-42881789D01*
X52131341Y-42856281D01*
X52090912Y-42797920D01*
X52088454Y-42726966D01*
X52124747Y-42665946D01*
X52136240Y-42656656D01*
X52137788Y-42655357D01*
X52142300Y-42652198D01*
X52304198Y-42490300D01*
X52435523Y-42302749D01*
X52437846Y-42297767D01*
X52437849Y-42297762D01*
X52529961Y-42100225D01*
X52529961Y-42100224D01*
X52532284Y-42095243D01*
X52535839Y-42081978D01*
X52590119Y-41879402D01*
X52590119Y-41879400D01*
X52591543Y-41874087D01*
X52611498Y-41646000D01*
X52591543Y-41417913D01*
X52590119Y-41412598D01*
X52533707Y-41202067D01*
X52533706Y-41202065D01*
X52532284Y-41196757D01*
X52529961Y-41191775D01*
X52437849Y-40994238D01*
X52437846Y-40994233D01*
X52435523Y-40989251D01*
X52304198Y-40801700D01*
X52142300Y-40639802D01*
X52137792Y-40636645D01*
X52137789Y-40636643D01*
X52050892Y-40575797D01*
X51954749Y-40508477D01*
X51949767Y-40506154D01*
X51949762Y-40506151D01*
X51915543Y-40490195D01*
X51862258Y-40443278D01*
X51842797Y-40375001D01*
X51863339Y-40307041D01*
X51915543Y-40261805D01*
X51949762Y-40245849D01*
X51949767Y-40245846D01*
X51954749Y-40243523D01*
X52095163Y-40145204D01*
X52137789Y-40115357D01*
X52137792Y-40115355D01*
X52142300Y-40112198D01*
X52304198Y-39950300D01*
X52312903Y-39937868D01*
X52414181Y-39793229D01*
X52469638Y-39748901D01*
X52517394Y-39739500D01*
X53230906Y-39739500D01*
X53299027Y-39759502D01*
X53320001Y-39776405D01*
X54595095Y-41051500D01*
X54629121Y-41113812D01*
X54632000Y-41140595D01*
X54632000Y-42063900D01*
X54632337Y-42067146D01*
X54632337Y-42067150D01*
X54640245Y-42143361D01*
X54642974Y-42169666D01*
X54645155Y-42176202D01*
X54645155Y-42176204D01*
X54679618Y-42279500D01*
X54698950Y-42337446D01*
X54792022Y-42487848D01*
X54797204Y-42493021D01*
X54822074Y-42517848D01*
X54917197Y-42612805D01*
X54923427Y-42616645D01*
X54923428Y-42616646D01*
X55060590Y-42701194D01*
X55067762Y-42705615D01*
X55082472Y-42710494D01*
X55229111Y-42759132D01*
X55229113Y-42759132D01*
X55235639Y-42761297D01*
X55242475Y-42761997D01*
X55242478Y-42761998D01*
X55285531Y-42766409D01*
X55340100Y-42772000D01*
X56265900Y-42772000D01*
X56269146Y-42771663D01*
X56269150Y-42771663D01*
X56364808Y-42761738D01*
X56364812Y-42761737D01*
X56371666Y-42761026D01*
X56378202Y-42758845D01*
X56378204Y-42758845D01*
X56523128Y-42710494D01*
X56539446Y-42705050D01*
X56689848Y-42611978D01*
X56814805Y-42486803D01*
X56818646Y-42480572D01*
X56903775Y-42342468D01*
X56903776Y-42342466D01*
X56907615Y-42336238D01*
X56943140Y-42229132D01*
X56961132Y-42174889D01*
X56961132Y-42174887D01*
X56963297Y-42168361D01*
X56965859Y-42143361D01*
X56970593Y-42097150D01*
X56974000Y-42063900D01*
X57757000Y-42063900D01*
X57757337Y-42067146D01*
X57757337Y-42067150D01*
X57765245Y-42143361D01*
X57767974Y-42169666D01*
X57770155Y-42176202D01*
X57770155Y-42176204D01*
X57804618Y-42279500D01*
X57823950Y-42337446D01*
X57917022Y-42487848D01*
X57922204Y-42493021D01*
X57947074Y-42517848D01*
X58042197Y-42612805D01*
X58048427Y-42616645D01*
X58048428Y-42616646D01*
X58185590Y-42701194D01*
X58192762Y-42705615D01*
X58207472Y-42710494D01*
X58354111Y-42759132D01*
X58354113Y-42759132D01*
X58360639Y-42761297D01*
X58367475Y-42761997D01*
X58367478Y-42761998D01*
X58410531Y-42766409D01*
X58465100Y-42772000D01*
X59390900Y-42772000D01*
X59394146Y-42771663D01*
X59394150Y-42771663D01*
X59489808Y-42761738D01*
X59489812Y-42761737D01*
X59496666Y-42761026D01*
X59503202Y-42758845D01*
X59503204Y-42758845D01*
X59648128Y-42710494D01*
X59664446Y-42705050D01*
X59814848Y-42611978D01*
X59939805Y-42486803D01*
X59943646Y-42480572D01*
X60028775Y-42342468D01*
X60028776Y-42342466D01*
X60032615Y-42336238D01*
X60068140Y-42229132D01*
X60086132Y-42174889D01*
X60086132Y-42174887D01*
X60088297Y-42168361D01*
X60090725Y-42144665D01*
X60094261Y-42110156D01*
X60121103Y-42044429D01*
X60179218Y-42003648D01*
X60219605Y-41997000D01*
X61098694Y-41997000D01*
X61166815Y-42017002D01*
X61205838Y-42056696D01*
X61218171Y-42076625D01*
X61222022Y-42082848D01*
X61347197Y-42207805D01*
X61353427Y-42211645D01*
X61353428Y-42211646D01*
X61490590Y-42296194D01*
X61497762Y-42300615D01*
X61529790Y-42311238D01*
X61659111Y-42354132D01*
X61659113Y-42354132D01*
X61665639Y-42356297D01*
X61672475Y-42356997D01*
X61672478Y-42356998D01*
X61715531Y-42361409D01*
X61770100Y-42367000D01*
X63120900Y-42367000D01*
X63124146Y-42366663D01*
X63124150Y-42366663D01*
X63219807Y-42356738D01*
X63219811Y-42356737D01*
X63226665Y-42356026D01*
X63233201Y-42353845D01*
X63233203Y-42353845D01*
X63381733Y-42304291D01*
X63394445Y-42300050D01*
X63544848Y-42206978D01*
X63581252Y-42170511D01*
X63664634Y-42086983D01*
X63669805Y-42081803D01*
X63673646Y-42075572D01*
X63758775Y-41937468D01*
X63758776Y-41937466D01*
X63762615Y-41931238D01*
X63784309Y-41865833D01*
X63824740Y-41807473D01*
X63890304Y-41780236D01*
X63903902Y-41779500D01*
X64691000Y-41779500D01*
X64759121Y-41799502D01*
X64805614Y-41853158D01*
X64817000Y-41905500D01*
X64817000Y-42038900D01*
X64817337Y-42042146D01*
X64817337Y-42042150D01*
X64822707Y-42093900D01*
X64827974Y-42144665D01*
X64830155Y-42151201D01*
X64830155Y-42151203D01*
X64856786Y-42231026D01*
X64883950Y-42312445D01*
X64977022Y-42462848D01*
X65102197Y-42587805D01*
X65108427Y-42591645D01*
X65108428Y-42591646D01*
X65245590Y-42676194D01*
X65252762Y-42680615D01*
X65314806Y-42701194D01*
X65414111Y-42734132D01*
X65414113Y-42734132D01*
X65420639Y-42736297D01*
X65427475Y-42736997D01*
X65427478Y-42736998D01*
X65470531Y-42741409D01*
X65525100Y-42747000D01*
X66550900Y-42747000D01*
X66554146Y-42746663D01*
X66554150Y-42746663D01*
X66649807Y-42736738D01*
X66649811Y-42736737D01*
X66656665Y-42736026D01*
X66663201Y-42733845D01*
X66663203Y-42733845D01*
X66795305Y-42689772D01*
X66824445Y-42680050D01*
X66974848Y-42586978D01*
X67099805Y-42461803D01*
X67118839Y-42430925D01*
X67188775Y-42317468D01*
X67188776Y-42317466D01*
X67192615Y-42311238D01*
X67236835Y-42177919D01*
X67246132Y-42149889D01*
X67246132Y-42149887D01*
X67248297Y-42143361D01*
X67259000Y-42038900D01*
X67259000Y-40688100D01*
X67256069Y-40659850D01*
X67248738Y-40589193D01*
X67248737Y-40589189D01*
X67248026Y-40582335D01*
X67241974Y-40564193D01*
X67194368Y-40421503D01*
X67192050Y-40414555D01*
X67098978Y-40264152D01*
X66973803Y-40139195D01*
X66948518Y-40123609D01*
X66829468Y-40050225D01*
X66829466Y-40050224D01*
X66823238Y-40046385D01*
X66740919Y-40019081D01*
X66661889Y-39992868D01*
X66661887Y-39992868D01*
X66655361Y-39990703D01*
X66648525Y-39990003D01*
X66648522Y-39990002D01*
X66605469Y-39985591D01*
X66550900Y-39980000D01*
X65525100Y-39980000D01*
X65521854Y-39980337D01*
X65521850Y-39980337D01*
X65426193Y-39990262D01*
X65426189Y-39990263D01*
X65419335Y-39990974D01*
X65412799Y-39993155D01*
X65412797Y-39993155D01*
X65314931Y-40025806D01*
X65251555Y-40046950D01*
X65101152Y-40140022D01*
X64976195Y-40265197D01*
X64972355Y-40271427D01*
X64972354Y-40271428D01*
X64902636Y-40384532D01*
X64883385Y-40415762D01*
X64880787Y-40423597D01*
X64879935Y-40426165D01*
X64878511Y-40428221D01*
X64877987Y-40429344D01*
X64877795Y-40429254D01*
X64839505Y-40484526D01*
X64773941Y-40511764D01*
X64760341Y-40512500D01*
X63903867Y-40512500D01*
X63835746Y-40492498D01*
X63789253Y-40438842D01*
X63784344Y-40426377D01*
X63764367Y-40366499D01*
X63764366Y-40366497D01*
X63762050Y-40359555D01*
X63757360Y-40351975D01*
X63672832Y-40215380D01*
X63668978Y-40209152D01*
X63543803Y-40084195D01*
X63524749Y-40072450D01*
X63399468Y-39995225D01*
X63399466Y-39995224D01*
X63393238Y-39991385D01*
X63232754Y-39938155D01*
X63231889Y-39937868D01*
X63231887Y-39937868D01*
X63225361Y-39935703D01*
X63218525Y-39935003D01*
X63218522Y-39935002D01*
X63175469Y-39930591D01*
X63120900Y-39925000D01*
X61770100Y-39925000D01*
X61766854Y-39925337D01*
X61766850Y-39925337D01*
X61671193Y-39935262D01*
X61671189Y-39935263D01*
X61664335Y-39935974D01*
X61657799Y-39938155D01*
X61657797Y-39938155D01*
X61559931Y-39970806D01*
X61496555Y-39991950D01*
X61346152Y-40085022D01*
X61221195Y-40210197D01*
X61217355Y-40216427D01*
X61217354Y-40216428D01*
X61132945Y-40353365D01*
X61128385Y-40360762D01*
X61102932Y-40437500D01*
X61083774Y-40495262D01*
X61072703Y-40528639D01*
X61072002Y-40535477D01*
X61072002Y-40535479D01*
X61068239Y-40572209D01*
X61064562Y-40608100D01*
X61063666Y-40616842D01*
X61036825Y-40682570D01*
X60978710Y-40723352D01*
X60938322Y-40730000D01*
X60219544Y-40730000D01*
X60151423Y-40709998D01*
X60104930Y-40656342D01*
X60094217Y-40617003D01*
X60088738Y-40564193D01*
X60088737Y-40564190D01*
X60088026Y-40557334D01*
X60085457Y-40549632D01*
X60034368Y-40396502D01*
X60032050Y-40389554D01*
X59938978Y-40239152D01*
X59909973Y-40210197D01*
X59818983Y-40119366D01*
X59813803Y-40114195D01*
X59801482Y-40106600D01*
X59669468Y-40025225D01*
X59669466Y-40025224D01*
X59663238Y-40021385D01*
X59565844Y-39989081D01*
X59501889Y-39967868D01*
X59501887Y-39967868D01*
X59495361Y-39965703D01*
X59488525Y-39965003D01*
X59488522Y-39965002D01*
X59439680Y-39959998D01*
X59390900Y-39955000D01*
X58465100Y-39955000D01*
X58461854Y-39955337D01*
X58461850Y-39955337D01*
X58366192Y-39965262D01*
X58366188Y-39965263D01*
X58359334Y-39965974D01*
X58352798Y-39968155D01*
X58352796Y-39968155D01*
X58278723Y-39992868D01*
X58191554Y-40021950D01*
X58041152Y-40115022D01*
X57916195Y-40240197D01*
X57912355Y-40246427D01*
X57912354Y-40246428D01*
X57831869Y-40376999D01*
X57823385Y-40390762D01*
X57810618Y-40429254D01*
X57769922Y-40551950D01*
X57767703Y-40558639D01*
X57767003Y-40565475D01*
X57767002Y-40565478D01*
X57764572Y-40589193D01*
X57757000Y-40663100D01*
X57757000Y-42063900D01*
X56974000Y-42063900D01*
X56974000Y-40663100D01*
X56972575Y-40649366D01*
X56963738Y-40564192D01*
X56963737Y-40564188D01*
X56963026Y-40557334D01*
X56960457Y-40549632D01*
X56909368Y-40396502D01*
X56907050Y-40389554D01*
X56813978Y-40239152D01*
X56784973Y-40210197D01*
X56693983Y-40119366D01*
X56688803Y-40114195D01*
X56676482Y-40106600D01*
X56544468Y-40025225D01*
X56544466Y-40025224D01*
X56538238Y-40021385D01*
X56440844Y-39989081D01*
X56376889Y-39967868D01*
X56376887Y-39967868D01*
X56370361Y-39965703D01*
X56363525Y-39965003D01*
X56363522Y-39965002D01*
X56314680Y-39959998D01*
X56265900Y-39955000D01*
X55342594Y-39955000D01*
X55274473Y-39934998D01*
X55253499Y-39918095D01*
X54665735Y-39330330D01*
X54049152Y-38713747D01*
X54041612Y-38705461D01*
X54037500Y-38698982D01*
X53987848Y-38652356D01*
X53985007Y-38649602D01*
X53965270Y-38629865D01*
X53962073Y-38627385D01*
X53953051Y-38619680D01*
X53942964Y-38610208D01*
X53920821Y-38589414D01*
X53913875Y-38585595D01*
X53913872Y-38585593D01*
X53903066Y-38579652D01*
X53886547Y-38568801D01*
X53886083Y-38568441D01*
X53870541Y-38556386D01*
X53863272Y-38553241D01*
X53863268Y-38553238D01*
X53829963Y-38538826D01*
X53819313Y-38533609D01*
X53780560Y-38512305D01*
X53760937Y-38507267D01*
X53742234Y-38500863D01*
X53730920Y-38495967D01*
X53730919Y-38495967D01*
X53723645Y-38492819D01*
X53715822Y-38491580D01*
X53715812Y-38491577D01*
X53679976Y-38485901D01*
X53668356Y-38483495D01*
X53633211Y-38474472D01*
X53633210Y-38474472D01*
X53625530Y-38472500D01*
X53605276Y-38472500D01*
X53585565Y-38470949D01*
X53573386Y-38469020D01*
X53565557Y-38467780D01*
X53557665Y-38468526D01*
X53521539Y-38471941D01*
X53509681Y-38472500D01*
X52517394Y-38472500D01*
X52449273Y-38452498D01*
X52414181Y-38418771D01*
X52307357Y-38266211D01*
X52307355Y-38266208D01*
X52304198Y-38261700D01*
X52142300Y-38099802D01*
X52137792Y-38096645D01*
X52137789Y-38096643D01*
X51993310Y-37995478D01*
X51954749Y-37968477D01*
X51949767Y-37966154D01*
X51949762Y-37966151D01*
X51915543Y-37950195D01*
X51862258Y-37903278D01*
X51842797Y-37835001D01*
X51863339Y-37767041D01*
X51915543Y-37721805D01*
X51949762Y-37705849D01*
X51949767Y-37705846D01*
X51954749Y-37703523D01*
X52095057Y-37605278D01*
X52137789Y-37575357D01*
X52137792Y-37575355D01*
X52142300Y-37572198D01*
X52304198Y-37410300D01*
X52324782Y-37380904D01*
X52378424Y-37304294D01*
X52435523Y-37222749D01*
X52437846Y-37217767D01*
X52437849Y-37217762D01*
X52529961Y-37020225D01*
X52529961Y-37020224D01*
X52532284Y-37015243D01*
X52536695Y-36998783D01*
X52590119Y-36799402D01*
X52590120Y-36799398D01*
X52591543Y-36794087D01*
X52611498Y-36566000D01*
X52591543Y-36337913D01*
X52590119Y-36332598D01*
X52590118Y-36332591D01*
X52574541Y-36274459D01*
X52576230Y-36203483D01*
X52607152Y-36152752D01*
X54264309Y-34495595D01*
X56250001Y-34495595D01*
X56250338Y-34502114D01*
X56260257Y-34597706D01*
X56263149Y-34611100D01*
X56314588Y-34765284D01*
X56320761Y-34778462D01*
X56406063Y-34916307D01*
X56415099Y-34927708D01*
X56529829Y-35042239D01*
X56541240Y-35051251D01*
X56679243Y-35136316D01*
X56692424Y-35142463D01*
X56846710Y-35193638D01*
X56860086Y-35196505D01*
X56954438Y-35206172D01*
X56960854Y-35206500D01*
X57385885Y-35206500D01*
X57401124Y-35202025D01*
X57402329Y-35200635D01*
X57404000Y-35192952D01*
X57404000Y-35188384D01*
X57912000Y-35188384D01*
X57916475Y-35203623D01*
X57917865Y-35204828D01*
X57925548Y-35206499D01*
X58355095Y-35206499D01*
X58361614Y-35206162D01*
X58457206Y-35196243D01*
X58470600Y-35193351D01*
X58624784Y-35141912D01*
X58637962Y-35135739D01*
X58775807Y-35050437D01*
X58787208Y-35041401D01*
X58901739Y-34926671D01*
X58910751Y-34915260D01*
X58995816Y-34777257D01*
X59001963Y-34764076D01*
X59053138Y-34609790D01*
X59056005Y-34596414D01*
X59065672Y-34502062D01*
X59066000Y-34495646D01*
X59066000Y-34495595D01*
X61330001Y-34495595D01*
X61330338Y-34502114D01*
X61340257Y-34597706D01*
X61343149Y-34611100D01*
X61394588Y-34765284D01*
X61400761Y-34778462D01*
X61486063Y-34916307D01*
X61495099Y-34927708D01*
X61609829Y-35042239D01*
X61621240Y-35051251D01*
X61759243Y-35136316D01*
X61772424Y-35142463D01*
X61926710Y-35193638D01*
X61940086Y-35196505D01*
X62034438Y-35206172D01*
X62040854Y-35206500D01*
X62465885Y-35206500D01*
X62481124Y-35202025D01*
X62482329Y-35200635D01*
X62484000Y-35192952D01*
X62484000Y-35188384D01*
X62992000Y-35188384D01*
X62996475Y-35203623D01*
X62997865Y-35204828D01*
X63005548Y-35206499D01*
X63435095Y-35206499D01*
X63441614Y-35206162D01*
X63537206Y-35196243D01*
X63550600Y-35193351D01*
X63704784Y-35141912D01*
X63717962Y-35135739D01*
X63855807Y-35050437D01*
X63867208Y-35041401D01*
X63981739Y-34926671D01*
X63990751Y-34915260D01*
X64075816Y-34777257D01*
X64081963Y-34764076D01*
X64133138Y-34609790D01*
X64136005Y-34596414D01*
X64138711Y-34570002D01*
X67644500Y-34570002D01*
X67644693Y-34572450D01*
X67644693Y-34572458D01*
X67646579Y-34596414D01*
X67647438Y-34607331D01*
X67693855Y-34767101D01*
X67697892Y-34773927D01*
X67774509Y-34903480D01*
X67774511Y-34903483D01*
X67778547Y-34910307D01*
X67784155Y-34915915D01*
X67789011Y-34922175D01*
X67787504Y-34923344D01*
X67816621Y-34976667D01*
X67819500Y-35003450D01*
X67819500Y-40512647D01*
X67813093Y-40552313D01*
X67802703Y-40583639D01*
X67802003Y-40590475D01*
X67802002Y-40590478D01*
X67797635Y-40633100D01*
X67792000Y-40688100D01*
X67792000Y-42038900D01*
X67792337Y-42042146D01*
X67792337Y-42042150D01*
X67797707Y-42093900D01*
X67802974Y-42144665D01*
X67805155Y-42151201D01*
X67805155Y-42151203D01*
X67831786Y-42231026D01*
X67858950Y-42312445D01*
X67952022Y-42462848D01*
X68077197Y-42587805D01*
X68083427Y-42591645D01*
X68083428Y-42591646D01*
X68220590Y-42676194D01*
X68227762Y-42680615D01*
X68289806Y-42701194D01*
X68389111Y-42734132D01*
X68389113Y-42734132D01*
X68395639Y-42736297D01*
X68402475Y-42736997D01*
X68402478Y-42736998D01*
X68445531Y-42741409D01*
X68500100Y-42747000D01*
X69525900Y-42747000D01*
X69529146Y-42746663D01*
X69529150Y-42746663D01*
X69624807Y-42736738D01*
X69624811Y-42736737D01*
X69631665Y-42736026D01*
X69638201Y-42733845D01*
X69638203Y-42733845D01*
X69770305Y-42689772D01*
X69799445Y-42680050D01*
X69949848Y-42586978D01*
X70074805Y-42461803D01*
X70093839Y-42430925D01*
X70163775Y-42317468D01*
X70163776Y-42317466D01*
X70167615Y-42311238D01*
X70211835Y-42177919D01*
X70221132Y-42149889D01*
X70221132Y-42149887D01*
X70223297Y-42143361D01*
X70228051Y-42096961D01*
X70254892Y-42031234D01*
X70313007Y-41990451D01*
X70383945Y-41987563D01*
X70442412Y-42020630D01*
X70499512Y-42077630D01*
X70499517Y-42077634D01*
X70504697Y-42082805D01*
X70510927Y-42086645D01*
X70510928Y-42086646D01*
X70648090Y-42171194D01*
X70655262Y-42175615D01*
X70707098Y-42192808D01*
X70816611Y-42229132D01*
X70816613Y-42229132D01*
X70823139Y-42231297D01*
X70829975Y-42231997D01*
X70829978Y-42231998D01*
X70873031Y-42236409D01*
X70927600Y-42242000D01*
X72328400Y-42242000D01*
X72331646Y-42241663D01*
X72331650Y-42241663D01*
X72427308Y-42231738D01*
X72427312Y-42231737D01*
X72434166Y-42231026D01*
X72440702Y-42228845D01*
X72440704Y-42228845D01*
X72573513Y-42184536D01*
X72601946Y-42175050D01*
X72752348Y-42081978D01*
X72767202Y-42067098D01*
X72808837Y-42025391D01*
X72871120Y-41991312D01*
X72941940Y-41996315D01*
X72987027Y-42025235D01*
X73044697Y-42082805D01*
X73050927Y-42086645D01*
X73050928Y-42086646D01*
X73188090Y-42171194D01*
X73195262Y-42175615D01*
X73247098Y-42192808D01*
X73356611Y-42229132D01*
X73356613Y-42229132D01*
X73363139Y-42231297D01*
X73369975Y-42231997D01*
X73369978Y-42231998D01*
X73413031Y-42236409D01*
X73467600Y-42242000D01*
X74868400Y-42242000D01*
X74871646Y-42241663D01*
X74871650Y-42241663D01*
X74967308Y-42231738D01*
X74967312Y-42231737D01*
X74974166Y-42231026D01*
X74980702Y-42228845D01*
X74980704Y-42228845D01*
X75113513Y-42184536D01*
X75141946Y-42175050D01*
X75292348Y-42081978D01*
X75307202Y-42067098D01*
X75348837Y-42025391D01*
X75411120Y-41991312D01*
X75481940Y-41996315D01*
X75527027Y-42025235D01*
X75584697Y-42082805D01*
X75590927Y-42086645D01*
X75590928Y-42086646D01*
X75728090Y-42171194D01*
X75735262Y-42175615D01*
X75787098Y-42192808D01*
X75896611Y-42229132D01*
X75896613Y-42229132D01*
X75903139Y-42231297D01*
X75909975Y-42231997D01*
X75909978Y-42231998D01*
X75953031Y-42236409D01*
X76007600Y-42242000D01*
X77408400Y-42242000D01*
X77411646Y-42241663D01*
X77411650Y-42241663D01*
X77507308Y-42231738D01*
X77507312Y-42231737D01*
X77514166Y-42231026D01*
X77520702Y-42228845D01*
X77520704Y-42228845D01*
X77653513Y-42184536D01*
X77681946Y-42175050D01*
X77832348Y-42081978D01*
X77849262Y-42065035D01*
X77952134Y-41961983D01*
X77957305Y-41956803D01*
X77973064Y-41931238D01*
X78046275Y-41812468D01*
X78046276Y-41812466D01*
X78050115Y-41806238D01*
X78101444Y-41651485D01*
X78103632Y-41644889D01*
X78103632Y-41644887D01*
X78105797Y-41638361D01*
X78116500Y-41533900D01*
X78116500Y-40608100D01*
X78114672Y-40590478D01*
X78106238Y-40509192D01*
X78106237Y-40509188D01*
X78105526Y-40502334D01*
X78102245Y-40492498D01*
X78057891Y-40359555D01*
X78049550Y-40334554D01*
X77956478Y-40184152D01*
X77831303Y-40059195D01*
X77813766Y-40048385D01*
X79192060Y-40048385D01*
X79193069Y-40072450D01*
X79207166Y-40408815D01*
X79225716Y-40528639D01*
X79255860Y-40723352D01*
X79262356Y-40765316D01*
X79263278Y-40768708D01*
X79263278Y-40768710D01*
X79324563Y-40994274D01*
X79356940Y-41113443D01*
X79358233Y-41116708D01*
X79358234Y-41116712D01*
X79455375Y-41362062D01*
X79489739Y-41448857D01*
X79659100Y-41767377D01*
X79661085Y-41770276D01*
X79860919Y-42062128D01*
X79860924Y-42062134D01*
X79862910Y-42065035D01*
X80098630Y-42338118D01*
X80101200Y-42340498D01*
X80101204Y-42340502D01*
X80137029Y-42373676D01*
X80363321Y-42583225D01*
X80366143Y-42585306D01*
X80366146Y-42585308D01*
X80403442Y-42612805D01*
X80653684Y-42797299D01*
X80656721Y-42799053D01*
X80656725Y-42799055D01*
X80803025Y-42883521D01*
X80966100Y-42977672D01*
X81079401Y-43027172D01*
X81293454Y-43120690D01*
X81293457Y-43120691D01*
X81296675Y-43122097D01*
X81300032Y-43123136D01*
X81300037Y-43123138D01*
X81637929Y-43227733D01*
X81641289Y-43228773D01*
X81644745Y-43229432D01*
X81644744Y-43229432D01*
X81992195Y-43295712D01*
X81992200Y-43295713D01*
X81995646Y-43296370D01*
X82193306Y-43311579D01*
X82351833Y-43323777D01*
X82351834Y-43323777D01*
X82355330Y-43324046D01*
X82581025Y-43316164D01*
X82712342Y-43311579D01*
X82712346Y-43311579D01*
X82715857Y-43311456D01*
X82822475Y-43295712D01*
X83069242Y-43259273D01*
X83069248Y-43259272D01*
X83072734Y-43258757D01*
X83076138Y-43257858D01*
X83076141Y-43257857D01*
X83418122Y-43167502D01*
X83418123Y-43167502D01*
X83421513Y-43166606D01*
X83757846Y-43036151D01*
X84077541Y-42869018D01*
X84273269Y-42736998D01*
X84373698Y-42669258D01*
X84373700Y-42669257D01*
X84376614Y-42667291D01*
X84385346Y-42659860D01*
X84648664Y-42435759D01*
X84648665Y-42435758D01*
X84651337Y-42433484D01*
X84724075Y-42356026D01*
X84895874Y-42173079D01*
X84895878Y-42173074D01*
X84898285Y-42170511D01*
X84900390Y-42167697D01*
X84900396Y-42167690D01*
X85077645Y-41930756D01*
X85114381Y-41881649D01*
X85123661Y-41865833D01*
X85191666Y-41749920D01*
X85296931Y-41570500D01*
X85307356Y-41547085D01*
X85442228Y-41244158D01*
X85442230Y-41244153D01*
X85443660Y-41240941D01*
X85552739Y-40897080D01*
X85622809Y-40543204D01*
X85637721Y-40365615D01*
X85652812Y-40185906D01*
X85652813Y-40185895D01*
X85652995Y-40183722D01*
X85653062Y-40178979D01*
X85654225Y-40095677D01*
X85654225Y-40095665D01*
X85654255Y-40093500D01*
X85653079Y-40072450D01*
X85640865Y-39854000D01*
X85634118Y-39733315D01*
X85633530Y-39729838D01*
X85574545Y-39381101D01*
X85574544Y-39381097D01*
X85573956Y-39377620D01*
X85474521Y-39030848D01*
X85371870Y-38781797D01*
X85338389Y-38700566D01*
X85338385Y-38700558D01*
X85337051Y-38697321D01*
X85163260Y-38381196D01*
X84962530Y-38096643D01*
X84957344Y-38089292D01*
X84957343Y-38089291D01*
X84955313Y-38086413D01*
X84834373Y-37950195D01*
X84718137Y-37819274D01*
X84718131Y-37819268D01*
X84715804Y-37816647D01*
X84712114Y-37813324D01*
X84450337Y-37577619D01*
X84450336Y-37577618D01*
X84447717Y-37575260D01*
X84296477Y-37466983D01*
X84157260Y-37367313D01*
X84157253Y-37367309D01*
X84154393Y-37365261D01*
X83839489Y-37189267D01*
X83506930Y-37049472D01*
X83503561Y-37048481D01*
X83503557Y-37048479D01*
X83323094Y-36995366D01*
X83160860Y-36947618D01*
X82805593Y-36884975D01*
X82802084Y-36884754D01*
X82802082Y-36884754D01*
X82449076Y-36862545D01*
X82449070Y-36862545D01*
X82445558Y-36862324D01*
X82342492Y-36867365D01*
X82088749Y-36879774D01*
X82088740Y-36879775D01*
X82085242Y-36879946D01*
X82081774Y-36880508D01*
X82081771Y-36880508D01*
X81732610Y-36937060D01*
X81732607Y-36937061D01*
X81729135Y-36937623D01*
X81725748Y-36938569D01*
X81725742Y-36938570D01*
X81510084Y-36998783D01*
X81381677Y-37034635D01*
X81239523Y-37092069D01*
X81050463Y-37168454D01*
X81050459Y-37168456D01*
X81047199Y-37169773D01*
X81044112Y-37171442D01*
X81044108Y-37171444D01*
X80965806Y-37213782D01*
X80729868Y-37341353D01*
X80433641Y-37547236D01*
X80430999Y-37549549D01*
X80430995Y-37549552D01*
X80279281Y-37682368D01*
X80162209Y-37784857D01*
X80159834Y-37787458D01*
X79976131Y-37988639D01*
X79918957Y-38051252D01*
X79706915Y-38343103D01*
X79705173Y-38346169D01*
X79705172Y-38346171D01*
X79649175Y-38444743D01*
X79528727Y-38656770D01*
X79386614Y-38988346D01*
X79282346Y-39333696D01*
X79217224Y-39688516D01*
X79216978Y-39692032D01*
X79216978Y-39692033D01*
X79197955Y-39964081D01*
X79192060Y-40048385D01*
X77813766Y-40048385D01*
X77811438Y-40046950D01*
X77686968Y-39970225D01*
X77686966Y-39970224D01*
X77680738Y-39966385D01*
X77586109Y-39934998D01*
X77519389Y-39912868D01*
X77519387Y-39912868D01*
X77512861Y-39910703D01*
X77506025Y-39910003D01*
X77506022Y-39910002D01*
X77462969Y-39905591D01*
X77408400Y-39900000D01*
X76007600Y-39900000D01*
X76004354Y-39900337D01*
X76004350Y-39900337D01*
X75908692Y-39910262D01*
X75908688Y-39910263D01*
X75901834Y-39910974D01*
X75895298Y-39913155D01*
X75895296Y-39913155D01*
X75829034Y-39935262D01*
X75734054Y-39966950D01*
X75583652Y-40060022D01*
X75578479Y-40065204D01*
X75527163Y-40116609D01*
X75464880Y-40150688D01*
X75394060Y-40145685D01*
X75348972Y-40116764D01*
X75345773Y-40113570D01*
X75291303Y-40059195D01*
X75271438Y-40046950D01*
X75146968Y-39970225D01*
X75146966Y-39970224D01*
X75140738Y-39966385D01*
X75046109Y-39934998D01*
X74979389Y-39912868D01*
X74979387Y-39912868D01*
X74972861Y-39910703D01*
X74966025Y-39910003D01*
X74966022Y-39910002D01*
X74922969Y-39905591D01*
X74868400Y-39900000D01*
X73467600Y-39900000D01*
X73464354Y-39900337D01*
X73464350Y-39900337D01*
X73368692Y-39910262D01*
X73368688Y-39910263D01*
X73361834Y-39910974D01*
X73355298Y-39913155D01*
X73355296Y-39913155D01*
X73289034Y-39935262D01*
X73194054Y-39966950D01*
X73043652Y-40060022D01*
X73038479Y-40065204D01*
X72987163Y-40116609D01*
X72924880Y-40150688D01*
X72854060Y-40145685D01*
X72808972Y-40116764D01*
X72805773Y-40113570D01*
X72751303Y-40059195D01*
X72731438Y-40046950D01*
X72606968Y-39970225D01*
X72606966Y-39970224D01*
X72600738Y-39966385D01*
X72506109Y-39934998D01*
X72439389Y-39912868D01*
X72439387Y-39912868D01*
X72432861Y-39910703D01*
X72426025Y-39910003D01*
X72426022Y-39910002D01*
X72382969Y-39905591D01*
X72328400Y-39900000D01*
X70927600Y-39900000D01*
X70924354Y-39900337D01*
X70924350Y-39900337D01*
X70828692Y-39910262D01*
X70828688Y-39910263D01*
X70821834Y-39910974D01*
X70815298Y-39913155D01*
X70815296Y-39913155D01*
X70749034Y-39935262D01*
X70654054Y-39966950D01*
X70503652Y-40060022D01*
X70378695Y-40185197D01*
X70374855Y-40191427D01*
X70374854Y-40191428D01*
X70309302Y-40297772D01*
X70256529Y-40345266D01*
X70186458Y-40356688D01*
X70121334Y-40328414D01*
X70094900Y-40297961D01*
X70073978Y-40264152D01*
X69948803Y-40139195D01*
X69923518Y-40123609D01*
X69804468Y-40050225D01*
X69804466Y-40050224D01*
X69798238Y-40046385D01*
X69715919Y-40019081D01*
X69636889Y-39992868D01*
X69636887Y-39992868D01*
X69630361Y-39990703D01*
X69623525Y-39990003D01*
X69623522Y-39990002D01*
X69580469Y-39985591D01*
X69525900Y-39980000D01*
X69212500Y-39980000D01*
X69144379Y-39959998D01*
X69097886Y-39906342D01*
X69086500Y-39854000D01*
X69086500Y-35201724D01*
X69106502Y-35133603D01*
X69160158Y-35087110D01*
X69230432Y-35077006D01*
X69276636Y-35093269D01*
X69309399Y-35112645D01*
X69317010Y-35114856D01*
X69317012Y-35114857D01*
X69369231Y-35130028D01*
X69469169Y-35159062D01*
X69475574Y-35159566D01*
X69475579Y-35159567D01*
X69504042Y-35161807D01*
X69504050Y-35161807D01*
X69506498Y-35162000D01*
X69939502Y-35162000D01*
X69941950Y-35161807D01*
X69941958Y-35161807D01*
X69970421Y-35159567D01*
X69970426Y-35159566D01*
X69976831Y-35159062D01*
X70076769Y-35130028D01*
X70128988Y-35114857D01*
X70128990Y-35114856D01*
X70136601Y-35112645D01*
X70279807Y-35027953D01*
X70282489Y-35025271D01*
X70346861Y-34999998D01*
X70416484Y-35013900D01*
X70432312Y-35024072D01*
X70436193Y-35027953D01*
X70579399Y-35112645D01*
X70587010Y-35114856D01*
X70587012Y-35114857D01*
X70639231Y-35130028D01*
X70739169Y-35159062D01*
X70745574Y-35159566D01*
X70745579Y-35159567D01*
X70774042Y-35161807D01*
X70774050Y-35161807D01*
X70776498Y-35162000D01*
X71209502Y-35162000D01*
X71211950Y-35161807D01*
X71211958Y-35161807D01*
X71240421Y-35159567D01*
X71240426Y-35159566D01*
X71246831Y-35159062D01*
X71346769Y-35130028D01*
X71398988Y-35114857D01*
X71398990Y-35114856D01*
X71406601Y-35112645D01*
X71549807Y-35027953D01*
X71552489Y-35025271D01*
X71616861Y-34999998D01*
X71686484Y-35013900D01*
X71702312Y-35024072D01*
X71706193Y-35027953D01*
X71849399Y-35112645D01*
X71857010Y-35114856D01*
X71857012Y-35114857D01*
X71909231Y-35130028D01*
X72009169Y-35159062D01*
X72015574Y-35159566D01*
X72015579Y-35159567D01*
X72044042Y-35161807D01*
X72044050Y-35161807D01*
X72046498Y-35162000D01*
X72479502Y-35162000D01*
X72481950Y-35161807D01*
X72481958Y-35161807D01*
X72510421Y-35159567D01*
X72510426Y-35159566D01*
X72516831Y-35159062D01*
X72616769Y-35130028D01*
X72668988Y-35114857D01*
X72668990Y-35114856D01*
X72676601Y-35112645D01*
X72745453Y-35071926D01*
X72812980Y-35031991D01*
X72812983Y-35031989D01*
X72819807Y-35027953D01*
X72937453Y-34910307D01*
X72941489Y-34903483D01*
X72941491Y-34903480D01*
X73018108Y-34773927D01*
X73022145Y-34767101D01*
X73068562Y-34607331D01*
X73069422Y-34596414D01*
X73071307Y-34572458D01*
X73071307Y-34572450D01*
X73071500Y-34570002D01*
X73071500Y-32786998D01*
X73068562Y-32749669D01*
X73022145Y-32589899D01*
X72952464Y-32472075D01*
X72941491Y-32453520D01*
X72941489Y-32453517D01*
X72937453Y-32446693D01*
X72819807Y-32329047D01*
X72812983Y-32325011D01*
X72812980Y-32325009D01*
X72683427Y-32248392D01*
X72683428Y-32248392D01*
X72676601Y-32244355D01*
X72668990Y-32242144D01*
X72668988Y-32242143D01*
X72575559Y-32215000D01*
X72516831Y-32197938D01*
X72510426Y-32197434D01*
X72510421Y-32197433D01*
X72481958Y-32195193D01*
X72481950Y-32195193D01*
X72479502Y-32195000D01*
X72046498Y-32195000D01*
X72044050Y-32195193D01*
X72044042Y-32195193D01*
X72015579Y-32197433D01*
X72015574Y-32197434D01*
X72009169Y-32197938D01*
X71950441Y-32215000D01*
X71857012Y-32242143D01*
X71857010Y-32242144D01*
X71849399Y-32244355D01*
X71706193Y-32329047D01*
X71703511Y-32331729D01*
X71639139Y-32357002D01*
X71569516Y-32343100D01*
X71553688Y-32332928D01*
X71549807Y-32329047D01*
X71406601Y-32244355D01*
X71398990Y-32242144D01*
X71398988Y-32242143D01*
X71305559Y-32215000D01*
X71246831Y-32197938D01*
X71240426Y-32197434D01*
X71240421Y-32197433D01*
X71211958Y-32195193D01*
X71211950Y-32195193D01*
X71209502Y-32195000D01*
X70776498Y-32195000D01*
X70774050Y-32195193D01*
X70774042Y-32195193D01*
X70745579Y-32197433D01*
X70745574Y-32197434D01*
X70739169Y-32197938D01*
X70680441Y-32215000D01*
X70587012Y-32242143D01*
X70587010Y-32242144D01*
X70579399Y-32244355D01*
X70436193Y-32329047D01*
X70433511Y-32331729D01*
X70369139Y-32357002D01*
X70299516Y-32343100D01*
X70283688Y-32332928D01*
X70279807Y-32329047D01*
X70136601Y-32244355D01*
X70128990Y-32242144D01*
X70128988Y-32242143D01*
X70035559Y-32215000D01*
X69976831Y-32197938D01*
X69970426Y-32197434D01*
X69970421Y-32197433D01*
X69941958Y-32195193D01*
X69941950Y-32195193D01*
X69939502Y-32195000D01*
X69506498Y-32195000D01*
X69504050Y-32195193D01*
X69504042Y-32195193D01*
X69475579Y-32197433D01*
X69475574Y-32197434D01*
X69469169Y-32197938D01*
X69410441Y-32215000D01*
X69317012Y-32242143D01*
X69317010Y-32242144D01*
X69309399Y-32244355D01*
X69166193Y-32329047D01*
X69163511Y-32331729D01*
X69099139Y-32357002D01*
X69029516Y-32343100D01*
X69013688Y-32332928D01*
X69009807Y-32329047D01*
X68866601Y-32244355D01*
X68858990Y-32242144D01*
X68858988Y-32242143D01*
X68765559Y-32215000D01*
X68706831Y-32197938D01*
X68700426Y-32197434D01*
X68700421Y-32197433D01*
X68671958Y-32195193D01*
X68671950Y-32195193D01*
X68669502Y-32195000D01*
X68236498Y-32195000D01*
X68234050Y-32195193D01*
X68234042Y-32195193D01*
X68205579Y-32197433D01*
X68205574Y-32197434D01*
X68199169Y-32197938D01*
X68140441Y-32215000D01*
X68047012Y-32242143D01*
X68047010Y-32242144D01*
X68039399Y-32244355D01*
X68032572Y-32248392D01*
X68032573Y-32248392D01*
X67903020Y-32325009D01*
X67903017Y-32325011D01*
X67896193Y-32329047D01*
X67778547Y-32446693D01*
X67774511Y-32453517D01*
X67774509Y-32453520D01*
X67763536Y-32472075D01*
X67693855Y-32589899D01*
X67647438Y-32749669D01*
X67644500Y-32786998D01*
X67644500Y-34570002D01*
X64138711Y-34570002D01*
X64145672Y-34502062D01*
X64146000Y-34495646D01*
X64146000Y-34308115D01*
X64141525Y-34292876D01*
X64140135Y-34291671D01*
X64132452Y-34290000D01*
X63010115Y-34290000D01*
X62994876Y-34294475D01*
X62993671Y-34295865D01*
X62992000Y-34303548D01*
X62992000Y-35188384D01*
X62484000Y-35188384D01*
X62484000Y-34308115D01*
X62479525Y-34292876D01*
X62478135Y-34291671D01*
X62470452Y-34290000D01*
X61348116Y-34290000D01*
X61332877Y-34294475D01*
X61331672Y-34295865D01*
X61330001Y-34303548D01*
X61330001Y-34495595D01*
X59066000Y-34495595D01*
X59066000Y-34308115D01*
X59061525Y-34292876D01*
X59060135Y-34291671D01*
X59052452Y-34290000D01*
X57930115Y-34290000D01*
X57914876Y-34294475D01*
X57913671Y-34295865D01*
X57912000Y-34303548D01*
X57912000Y-35188384D01*
X57404000Y-35188384D01*
X57404000Y-34308115D01*
X57399525Y-34292876D01*
X57398135Y-34291671D01*
X57390452Y-34290000D01*
X56268116Y-34290000D01*
X56252877Y-34294475D01*
X56251672Y-34295865D01*
X56250001Y-34303548D01*
X56250001Y-34495595D01*
X54264309Y-34495595D01*
X54996019Y-33763885D01*
X56250000Y-33763885D01*
X56254475Y-33779124D01*
X56255865Y-33780329D01*
X56263548Y-33782000D01*
X57385885Y-33782000D01*
X57401124Y-33777525D01*
X57402329Y-33776135D01*
X57404000Y-33768452D01*
X57404000Y-33763885D01*
X57912000Y-33763885D01*
X57916475Y-33779124D01*
X57917865Y-33780329D01*
X57925548Y-33782000D01*
X59047884Y-33782000D01*
X59063123Y-33777525D01*
X59064328Y-33776135D01*
X59065999Y-33768452D01*
X59065999Y-33763885D01*
X61330000Y-33763885D01*
X61334475Y-33779124D01*
X61335865Y-33780329D01*
X61343548Y-33782000D01*
X62465885Y-33782000D01*
X62481124Y-33777525D01*
X62482329Y-33776135D01*
X62484000Y-33768452D01*
X62484000Y-33763885D01*
X62992000Y-33763885D01*
X62996475Y-33779124D01*
X62997865Y-33780329D01*
X63005548Y-33782000D01*
X64127884Y-33782000D01*
X64143123Y-33777525D01*
X64144328Y-33776135D01*
X64145999Y-33768452D01*
X64145999Y-33576405D01*
X64145662Y-33569886D01*
X64135743Y-33474294D01*
X64132851Y-33460900D01*
X64081412Y-33306716D01*
X64075239Y-33293538D01*
X63989937Y-33155693D01*
X63980901Y-33144292D01*
X63866171Y-33029761D01*
X63854760Y-33020749D01*
X63716757Y-32935684D01*
X63703576Y-32929537D01*
X63549290Y-32878362D01*
X63535914Y-32875495D01*
X63441562Y-32865828D01*
X63435145Y-32865500D01*
X63010115Y-32865500D01*
X62994876Y-32869975D01*
X62993671Y-32871365D01*
X62992000Y-32879048D01*
X62992000Y-33763885D01*
X62484000Y-33763885D01*
X62484000Y-32883616D01*
X62479525Y-32868377D01*
X62478135Y-32867172D01*
X62470452Y-32865501D01*
X62040905Y-32865501D01*
X62034386Y-32865838D01*
X61938794Y-32875757D01*
X61925400Y-32878649D01*
X61771216Y-32930088D01*
X61758038Y-32936261D01*
X61620193Y-33021563D01*
X61608792Y-33030599D01*
X61494261Y-33145329D01*
X61485249Y-33156740D01*
X61400184Y-33294743D01*
X61394037Y-33307924D01*
X61342862Y-33462210D01*
X61339995Y-33475586D01*
X61330328Y-33569938D01*
X61330000Y-33576355D01*
X61330000Y-33763885D01*
X59065999Y-33763885D01*
X59065999Y-33576405D01*
X59065662Y-33569886D01*
X59055743Y-33474294D01*
X59052851Y-33460900D01*
X59001412Y-33306716D01*
X58995239Y-33293538D01*
X58909937Y-33155693D01*
X58900901Y-33144292D01*
X58786171Y-33029761D01*
X58774760Y-33020749D01*
X58636757Y-32935684D01*
X58623576Y-32929537D01*
X58469290Y-32878362D01*
X58455914Y-32875495D01*
X58361562Y-32865828D01*
X58355145Y-32865500D01*
X57930115Y-32865500D01*
X57914876Y-32869975D01*
X57913671Y-32871365D01*
X57912000Y-32879048D01*
X57912000Y-33763885D01*
X57404000Y-33763885D01*
X57404000Y-32883616D01*
X57399525Y-32868377D01*
X57398135Y-32867172D01*
X57390452Y-32865501D01*
X56960905Y-32865501D01*
X56954386Y-32865838D01*
X56858794Y-32875757D01*
X56845400Y-32878649D01*
X56691216Y-32930088D01*
X56678038Y-32936261D01*
X56540193Y-33021563D01*
X56528792Y-33030599D01*
X56414261Y-33145329D01*
X56405249Y-33156740D01*
X56320184Y-33294743D01*
X56314037Y-33307924D01*
X56262862Y-33462210D01*
X56259995Y-33475586D01*
X56250328Y-33569938D01*
X56250000Y-33576355D01*
X56250000Y-33763885D01*
X54996019Y-33763885D01*
X56674614Y-32085290D01*
X56736926Y-32051264D01*
X56803374Y-32054791D01*
X56853139Y-32071297D01*
X56859975Y-32071997D01*
X56859978Y-32071998D01*
X56903031Y-32076409D01*
X56957600Y-32082000D01*
X58358400Y-32082000D01*
X58361646Y-32081663D01*
X58361650Y-32081663D01*
X58457308Y-32071738D01*
X58457312Y-32071737D01*
X58464166Y-32071026D01*
X58470702Y-32068845D01*
X58470704Y-32068845D01*
X58602806Y-32024772D01*
X58631946Y-32015050D01*
X58782348Y-31921978D01*
X58907305Y-31796803D01*
X58914283Y-31785483D01*
X58996275Y-31652468D01*
X58996276Y-31652466D01*
X59000115Y-31646238D01*
X59002420Y-31639289D01*
X59005226Y-31630830D01*
X59045658Y-31572471D01*
X59111223Y-31545236D01*
X59124818Y-31544500D01*
X61271314Y-31544500D01*
X61339435Y-31564502D01*
X61385928Y-31618158D01*
X61390835Y-31630615D01*
X61396450Y-31647446D01*
X61400301Y-31653670D01*
X61400302Y-31653671D01*
X61454157Y-31740699D01*
X61489522Y-31797848D01*
X61494704Y-31803021D01*
X61523696Y-31831962D01*
X61614697Y-31922805D01*
X61620927Y-31926645D01*
X61620928Y-31926646D01*
X61758090Y-32011194D01*
X61765262Y-32015615D01*
X61845005Y-32042064D01*
X61926611Y-32069132D01*
X61926613Y-32069132D01*
X61933139Y-32071297D01*
X61939975Y-32071997D01*
X61939978Y-32071998D01*
X61983031Y-32076409D01*
X62037600Y-32082000D01*
X63438400Y-32082000D01*
X63441646Y-32081663D01*
X63441650Y-32081663D01*
X63537308Y-32071738D01*
X63537312Y-32071737D01*
X63544166Y-32071026D01*
X63550702Y-32068845D01*
X63550704Y-32068845D01*
X63682806Y-32024772D01*
X63711946Y-32015050D01*
X63862348Y-31921978D01*
X63987305Y-31796803D01*
X63994283Y-31785483D01*
X64076275Y-31652468D01*
X64076276Y-31652466D01*
X64080115Y-31646238D01*
X64082420Y-31639289D01*
X64085226Y-31630830D01*
X64125658Y-31572471D01*
X64191223Y-31545236D01*
X64204818Y-31544500D01*
X66191733Y-31544500D01*
X66202916Y-31545027D01*
X66210409Y-31546702D01*
X66218335Y-31546453D01*
X66218336Y-31546453D01*
X66278486Y-31544562D01*
X66282445Y-31544500D01*
X66310356Y-31544500D01*
X66314291Y-31544003D01*
X66314356Y-31543995D01*
X66326193Y-31543062D01*
X66358451Y-31542048D01*
X66362470Y-31541922D01*
X66370389Y-31541673D01*
X66389843Y-31536021D01*
X66409200Y-31532013D01*
X66421430Y-31530468D01*
X66421431Y-31530468D01*
X66429297Y-31529474D01*
X66436668Y-31526555D01*
X66436670Y-31526555D01*
X66470412Y-31513196D01*
X66481642Y-31509351D01*
X66516483Y-31499229D01*
X66516484Y-31499229D01*
X66524093Y-31497018D01*
X66530912Y-31492985D01*
X66530917Y-31492983D01*
X66541528Y-31486707D01*
X66559276Y-31478012D01*
X66578117Y-31470552D01*
X66590863Y-31461292D01*
X66613887Y-31444564D01*
X66623807Y-31438048D01*
X66655035Y-31419580D01*
X66655038Y-31419578D01*
X66661862Y-31415542D01*
X66676183Y-31401221D01*
X66691217Y-31388380D01*
X66696066Y-31384857D01*
X66707607Y-31376472D01*
X66735798Y-31342395D01*
X66743788Y-31333616D01*
X67892611Y-30184793D01*
X67954923Y-30150767D01*
X68031747Y-30158251D01*
X68032575Y-30158609D01*
X68039399Y-30162645D01*
X68047010Y-30164856D01*
X68047012Y-30164857D01*
X68063104Y-30169532D01*
X68199169Y-30209062D01*
X68205574Y-30209566D01*
X68205579Y-30209567D01*
X68234042Y-30211807D01*
X68234050Y-30211807D01*
X68236498Y-30212000D01*
X68669502Y-30212000D01*
X68671950Y-30211807D01*
X68671958Y-30211807D01*
X68700421Y-30209567D01*
X68700426Y-30209566D01*
X68706831Y-30209062D01*
X68842896Y-30169532D01*
X68858988Y-30164857D01*
X68858990Y-30164856D01*
X68866601Y-30162645D01*
X69009807Y-30077953D01*
X69012489Y-30075271D01*
X69076861Y-30049998D01*
X69146484Y-30063900D01*
X69162312Y-30074072D01*
X69166193Y-30077953D01*
X69309399Y-30162645D01*
X69317010Y-30164856D01*
X69317012Y-30164857D01*
X69333104Y-30169532D01*
X69469169Y-30209062D01*
X69475574Y-30209566D01*
X69475579Y-30209567D01*
X69504042Y-30211807D01*
X69504050Y-30211807D01*
X69506498Y-30212000D01*
X69939502Y-30212000D01*
X69941950Y-30211807D01*
X69941958Y-30211807D01*
X69970421Y-30209567D01*
X69970426Y-30209566D01*
X69976831Y-30209062D01*
X70112896Y-30169532D01*
X70128988Y-30164857D01*
X70128990Y-30164856D01*
X70136601Y-30162645D01*
X70279807Y-30077953D01*
X70282489Y-30075271D01*
X70346861Y-30049998D01*
X70416484Y-30063900D01*
X70432312Y-30074072D01*
X70436193Y-30077953D01*
X70579399Y-30162645D01*
X70587010Y-30164856D01*
X70587012Y-30164857D01*
X70603104Y-30169532D01*
X70739169Y-30209062D01*
X70745574Y-30209566D01*
X70745579Y-30209567D01*
X70774042Y-30211807D01*
X70774050Y-30211807D01*
X70776498Y-30212000D01*
X71209502Y-30212000D01*
X71211950Y-30211807D01*
X71211958Y-30211807D01*
X71240421Y-30209567D01*
X71240426Y-30209566D01*
X71246831Y-30209062D01*
X71382896Y-30169532D01*
X71398988Y-30164857D01*
X71398990Y-30164856D01*
X71406601Y-30162645D01*
X71549807Y-30077953D01*
X71552489Y-30075271D01*
X71616861Y-30049998D01*
X71686484Y-30063900D01*
X71702312Y-30074072D01*
X71706193Y-30077953D01*
X71849399Y-30162645D01*
X71857010Y-30164856D01*
X71857012Y-30164857D01*
X71873104Y-30169532D01*
X72009169Y-30209062D01*
X72015574Y-30209566D01*
X72015579Y-30209567D01*
X72044042Y-30211807D01*
X72044050Y-30211807D01*
X72046498Y-30212000D01*
X72479502Y-30212000D01*
X72481950Y-30211807D01*
X72481958Y-30211807D01*
X72510421Y-30209567D01*
X72510426Y-30209566D01*
X72516831Y-30209062D01*
X72652896Y-30169532D01*
X72668988Y-30164857D01*
X72668990Y-30164856D01*
X72676601Y-30162645D01*
X72754922Y-30116326D01*
X72812980Y-30081991D01*
X72812983Y-30081989D01*
X72819807Y-30077953D01*
X72937453Y-29960307D01*
X72941489Y-29953483D01*
X72941491Y-29953480D01*
X73018108Y-29823927D01*
X73022145Y-29817101D01*
X73028303Y-29795907D01*
X73053150Y-29710380D01*
X73068562Y-29657331D01*
X73071222Y-29623541D01*
X73071307Y-29622458D01*
X73071307Y-29622450D01*
X73071500Y-29620002D01*
X73071500Y-29488000D01*
X73091502Y-29419879D01*
X73145158Y-29373386D01*
X73197500Y-29362000D01*
X98004812Y-29362000D01*
X98072933Y-29382002D01*
X98119426Y-29435658D01*
X98129530Y-29505932D01*
X98100036Y-29570512D01*
X98093907Y-29577095D01*
X97936802Y-29734200D01*
X97933645Y-29738708D01*
X97933643Y-29738711D01*
X97901425Y-29784723D01*
X97805477Y-29921751D01*
X97803154Y-29926733D01*
X97803151Y-29926738D01*
X97720579Y-30103817D01*
X97708716Y-30129257D01*
X97707294Y-30134565D01*
X97707293Y-30134567D01*
X97656063Y-30325758D01*
X97649457Y-30350413D01*
X97629502Y-30578500D01*
X97649457Y-30806587D01*
X97708716Y-31027743D01*
X97711039Y-31032724D01*
X97711039Y-31032725D01*
X97803151Y-31230262D01*
X97803154Y-31230267D01*
X97805477Y-31235249D01*
X97851727Y-31301301D01*
X97892788Y-31359941D01*
X97936802Y-31422800D01*
X98098700Y-31584698D01*
X98103208Y-31587855D01*
X98103211Y-31587857D01*
X98176664Y-31639289D01*
X98286251Y-31716023D01*
X98291233Y-31718346D01*
X98291238Y-31718349D01*
X98488775Y-31810461D01*
X98493757Y-31812784D01*
X98499065Y-31814206D01*
X98499067Y-31814207D01*
X98709598Y-31870619D01*
X98709600Y-31870619D01*
X98714913Y-31872043D01*
X98943000Y-31891998D01*
X99171087Y-31872043D01*
X99176400Y-31870619D01*
X99176402Y-31870619D01*
X99386933Y-31814207D01*
X99386935Y-31814206D01*
X99392243Y-31812784D01*
X99397225Y-31810461D01*
X99594762Y-31718349D01*
X99594767Y-31718346D01*
X99599749Y-31716023D01*
X99709336Y-31639289D01*
X99782789Y-31587857D01*
X99782792Y-31587855D01*
X99787300Y-31584698D01*
X99949198Y-31422800D01*
X99993213Y-31359941D01*
X100034273Y-31301301D01*
X100080523Y-31235249D01*
X100082846Y-31230267D01*
X100082849Y-31230262D01*
X100098805Y-31196043D01*
X100145722Y-31142758D01*
X100213999Y-31123297D01*
X100281959Y-31143839D01*
X100327195Y-31196043D01*
X100343151Y-31230262D01*
X100343154Y-31230267D01*
X100345477Y-31235249D01*
X100391727Y-31301301D01*
X100432788Y-31359941D01*
X100476802Y-31422800D01*
X100638700Y-31584698D01*
X100643208Y-31587855D01*
X100643211Y-31587857D01*
X100716664Y-31639289D01*
X100826251Y-31716023D01*
X100831233Y-31718346D01*
X100831238Y-31718349D01*
X101028775Y-31810461D01*
X101033757Y-31812784D01*
X101039065Y-31814206D01*
X101039067Y-31814207D01*
X101249598Y-31870619D01*
X101249600Y-31870619D01*
X101254913Y-31872043D01*
X101483000Y-31891998D01*
X101711087Y-31872043D01*
X101716400Y-31870619D01*
X101716402Y-31870619D01*
X101926933Y-31814207D01*
X101926935Y-31814206D01*
X101932243Y-31812784D01*
X101937225Y-31810461D01*
X102134762Y-31718349D01*
X102134767Y-31718346D01*
X102139749Y-31716023D01*
X102249336Y-31639289D01*
X102322789Y-31587857D01*
X102322792Y-31587855D01*
X102327300Y-31584698D01*
X102489198Y-31422800D01*
X102533213Y-31359941D01*
X102574273Y-31301301D01*
X102620523Y-31235249D01*
X102622846Y-31230267D01*
X102622849Y-31230262D01*
X102638805Y-31196043D01*
X102685722Y-31142758D01*
X102753999Y-31123297D01*
X102821959Y-31143839D01*
X102867195Y-31196043D01*
X102883151Y-31230262D01*
X102883154Y-31230267D01*
X102885477Y-31235249D01*
X102931727Y-31301301D01*
X102972788Y-31359941D01*
X103016802Y-31422800D01*
X103178700Y-31584698D01*
X103183208Y-31587855D01*
X103183211Y-31587857D01*
X103256664Y-31639289D01*
X103366251Y-31716023D01*
X103371233Y-31718346D01*
X103371238Y-31718349D01*
X103568775Y-31810461D01*
X103573757Y-31812784D01*
X103579065Y-31814206D01*
X103579067Y-31814207D01*
X103789598Y-31870619D01*
X103789600Y-31870619D01*
X103794913Y-31872043D01*
X104023000Y-31891998D01*
X104251087Y-31872043D01*
X104256400Y-31870619D01*
X104256402Y-31870619D01*
X104466933Y-31814207D01*
X104466935Y-31814206D01*
X104472243Y-31812784D01*
X104477225Y-31810461D01*
X104674762Y-31718349D01*
X104674767Y-31718346D01*
X104679749Y-31716023D01*
X104789336Y-31639289D01*
X104862789Y-31587857D01*
X104862792Y-31587855D01*
X104867300Y-31584698D01*
X105029198Y-31422800D01*
X105073213Y-31359941D01*
X105114273Y-31301301D01*
X105160523Y-31235249D01*
X105162846Y-31230267D01*
X105162849Y-31230262D01*
X105178805Y-31196043D01*
X105225722Y-31142758D01*
X105293999Y-31123297D01*
X105361959Y-31143839D01*
X105407195Y-31196043D01*
X105423151Y-31230262D01*
X105423154Y-31230267D01*
X105425477Y-31235249D01*
X105471727Y-31301301D01*
X105512788Y-31359941D01*
X105556802Y-31422800D01*
X105718700Y-31584698D01*
X105723208Y-31587855D01*
X105723211Y-31587857D01*
X105796664Y-31639289D01*
X105906251Y-31716023D01*
X105911233Y-31718346D01*
X105911238Y-31718349D01*
X106108775Y-31810461D01*
X106113757Y-31812784D01*
X106119065Y-31814206D01*
X106119067Y-31814207D01*
X106329598Y-31870619D01*
X106329600Y-31870619D01*
X106334913Y-31872043D01*
X106563000Y-31891998D01*
X106791087Y-31872043D01*
X106796400Y-31870619D01*
X106796402Y-31870619D01*
X107006933Y-31814207D01*
X107006935Y-31814206D01*
X107012243Y-31812784D01*
X107017225Y-31810461D01*
X107214762Y-31718349D01*
X107214767Y-31718346D01*
X107219749Y-31716023D01*
X107329336Y-31639289D01*
X107402789Y-31587857D01*
X107402792Y-31587855D01*
X107407300Y-31584698D01*
X107569198Y-31422800D01*
X107613213Y-31359941D01*
X107654273Y-31301301D01*
X107700523Y-31235249D01*
X107702846Y-31230267D01*
X107702849Y-31230262D01*
X107794961Y-31032725D01*
X107794961Y-31032724D01*
X107797284Y-31027743D01*
X107856543Y-30806587D01*
X107876498Y-30578500D01*
X107856543Y-30350413D01*
X107849937Y-30325758D01*
X107798707Y-30134567D01*
X107798706Y-30134565D01*
X107797284Y-30129257D01*
X107785421Y-30103817D01*
X107702849Y-29926738D01*
X107702846Y-29926733D01*
X107700523Y-29921751D01*
X107604575Y-29784723D01*
X107572357Y-29738711D01*
X107572355Y-29738708D01*
X107569198Y-29734200D01*
X107407300Y-29572302D01*
X107402792Y-29569145D01*
X107402789Y-29569143D01*
X107297194Y-29495205D01*
X107219749Y-29440977D01*
X107214767Y-29438654D01*
X107214762Y-29438651D01*
X107017225Y-29346539D01*
X107017224Y-29346539D01*
X107012243Y-29344216D01*
X107006935Y-29342794D01*
X107006933Y-29342793D01*
X106796402Y-29286381D01*
X106796400Y-29286381D01*
X106791087Y-29284957D01*
X106563000Y-29265002D01*
X106334913Y-29284957D01*
X106329602Y-29286380D01*
X106329591Y-29286382D01*
X106271459Y-29301959D01*
X106200483Y-29300270D01*
X106149754Y-29269350D01*
X105216641Y-28336236D01*
X105209112Y-28327962D01*
X105205000Y-28321482D01*
X105155348Y-28274856D01*
X105152507Y-28272102D01*
X105132770Y-28252365D01*
X105129573Y-28249885D01*
X105120551Y-28242180D01*
X105094100Y-28217341D01*
X105088321Y-28211914D01*
X105081375Y-28208095D01*
X105081372Y-28208093D01*
X105070566Y-28202152D01*
X105054047Y-28191301D01*
X105053583Y-28190941D01*
X105038041Y-28178886D01*
X105030772Y-28175741D01*
X105030768Y-28175738D01*
X104997463Y-28161326D01*
X104986813Y-28156109D01*
X104948060Y-28134805D01*
X104938203Y-28132274D01*
X104928438Y-28129767D01*
X104909734Y-28123363D01*
X104898420Y-28118467D01*
X104898419Y-28118467D01*
X104891145Y-28115319D01*
X104883322Y-28114080D01*
X104883312Y-28114077D01*
X104847476Y-28108401D01*
X104835856Y-28105995D01*
X104800711Y-28096972D01*
X104800710Y-28096972D01*
X104793030Y-28095000D01*
X104772776Y-28095000D01*
X104753065Y-28093449D01*
X104740886Y-28091520D01*
X104733057Y-28090280D01*
X104725165Y-28091026D01*
X104689039Y-28094441D01*
X104677181Y-28095000D01*
X73197500Y-28095000D01*
X73129379Y-28074998D01*
X73082886Y-28021342D01*
X73071500Y-27969000D01*
X73071500Y-27836998D01*
X73071307Y-27834542D01*
X73069067Y-27806079D01*
X73069066Y-27806074D01*
X73068562Y-27799669D01*
X73031945Y-27673631D01*
X73024357Y-27647512D01*
X73024356Y-27647510D01*
X73022145Y-27639899D01*
X72984867Y-27576865D01*
X72941491Y-27503520D01*
X72941489Y-27503517D01*
X72937453Y-27496693D01*
X72819807Y-27379047D01*
X72812983Y-27375011D01*
X72812980Y-27375009D01*
X72683427Y-27298392D01*
X72683428Y-27298392D01*
X72676601Y-27294355D01*
X72668990Y-27292144D01*
X72668988Y-27292143D01*
X72604462Y-27273397D01*
X72516831Y-27247938D01*
X72510426Y-27247434D01*
X72510421Y-27247433D01*
X72481958Y-27245193D01*
X72481950Y-27245193D01*
X72479502Y-27245000D01*
X72046498Y-27245000D01*
X72044050Y-27245193D01*
X72044042Y-27245193D01*
X72015579Y-27247433D01*
X72015574Y-27247434D01*
X72009169Y-27247938D01*
X71921538Y-27273397D01*
X71857012Y-27292143D01*
X71857010Y-27292144D01*
X71849399Y-27294355D01*
X71706193Y-27379047D01*
X71703511Y-27381729D01*
X71639139Y-27407002D01*
X71569516Y-27393100D01*
X71553688Y-27382928D01*
X71549807Y-27379047D01*
X71406601Y-27294355D01*
X71398990Y-27292144D01*
X71398988Y-27292143D01*
X71334462Y-27273397D01*
X71246831Y-27247938D01*
X71240426Y-27247434D01*
X71240421Y-27247433D01*
X71211958Y-27245193D01*
X71211950Y-27245193D01*
X71209502Y-27245000D01*
X70776498Y-27245000D01*
X70774050Y-27245193D01*
X70774042Y-27245193D01*
X70745579Y-27247433D01*
X70745574Y-27247434D01*
X70739169Y-27247938D01*
X70651538Y-27273397D01*
X70587012Y-27292143D01*
X70587010Y-27292144D01*
X70579399Y-27294355D01*
X70546637Y-27313731D01*
X70477822Y-27331189D01*
X70410491Y-27308672D01*
X70366022Y-27253327D01*
X70356500Y-27205276D01*
X70356500Y-26640046D01*
X70375240Y-26573930D01*
X70456275Y-26442468D01*
X70456276Y-26442466D01*
X70460115Y-26436238D01*
X70508614Y-26290017D01*
X70513632Y-26274889D01*
X70513632Y-26274887D01*
X70515797Y-26268361D01*
X70519216Y-26234997D01*
X70523246Y-26195658D01*
X70526500Y-26163900D01*
X70526500Y-24813100D01*
X70521777Y-24767578D01*
X70516238Y-24714192D01*
X70516237Y-24714188D01*
X70515526Y-24707334D01*
X70510340Y-24691788D01*
X70461868Y-24546502D01*
X70459550Y-24539554D01*
X70366478Y-24389152D01*
X70241303Y-24264195D01*
X70232713Y-24258900D01*
X70096968Y-24175225D01*
X70096966Y-24175224D01*
X70090738Y-24171385D01*
X69995310Y-24139733D01*
X69929389Y-24117868D01*
X69929387Y-24117868D01*
X69922861Y-24115703D01*
X69916025Y-24115003D01*
X69916022Y-24115002D01*
X69867034Y-24109983D01*
X69818400Y-24105000D01*
X68917600Y-24105000D01*
X68914354Y-24105337D01*
X68914350Y-24105337D01*
X68818692Y-24115262D01*
X68818688Y-24115263D01*
X68811834Y-24115974D01*
X68805298Y-24118155D01*
X68805296Y-24118155D01*
X68706066Y-24151261D01*
X68644054Y-24171950D01*
X68493652Y-24265022D01*
X68368695Y-24390197D01*
X68364855Y-24396427D01*
X68364854Y-24396428D01*
X68281756Y-24531238D01*
X68275885Y-24540762D01*
X68266851Y-24567999D01*
X68227042Y-24688021D01*
X68220203Y-24708639D01*
X68219503Y-24715475D01*
X68219502Y-24715478D01*
X68216660Y-24743217D01*
X68209500Y-24813100D01*
X68209500Y-26163900D01*
X68209837Y-26167146D01*
X68209837Y-26167150D01*
X68216877Y-26234997D01*
X68220474Y-26269666D01*
X68222655Y-26276202D01*
X68222655Y-26276204D01*
X68231656Y-26303183D01*
X68276450Y-26437446D01*
X68369522Y-26587848D01*
X68494697Y-26712805D01*
X68500927Y-26716645D01*
X68500928Y-26716646D01*
X68638090Y-26801194D01*
X68645262Y-26805615D01*
X68705934Y-26825739D01*
X68806611Y-26859132D01*
X68806613Y-26859132D01*
X68813139Y-26861297D01*
X68819975Y-26861997D01*
X68819978Y-26861998D01*
X68863031Y-26866409D01*
X68917600Y-26872000D01*
X68963500Y-26872000D01*
X69031621Y-26892002D01*
X69078114Y-26945658D01*
X69089500Y-26998000D01*
X69089500Y-27205276D01*
X69069498Y-27273397D01*
X69015842Y-27319890D01*
X68945568Y-27329994D01*
X68899364Y-27313731D01*
X68866601Y-27294355D01*
X68858990Y-27292144D01*
X68858988Y-27292143D01*
X68794462Y-27273397D01*
X68706831Y-27247938D01*
X68700426Y-27247434D01*
X68700421Y-27247433D01*
X68671958Y-27245193D01*
X68671950Y-27245193D01*
X68669502Y-27245000D01*
X68236498Y-27245000D01*
X68234050Y-27245193D01*
X68234042Y-27245193D01*
X68205579Y-27247433D01*
X68205574Y-27247434D01*
X68199169Y-27247938D01*
X68111538Y-27273397D01*
X68047012Y-27292143D01*
X68047010Y-27292144D01*
X68039399Y-27294355D01*
X68032572Y-27298392D01*
X68032573Y-27298392D01*
X67903020Y-27375009D01*
X67903017Y-27375011D01*
X67896193Y-27379047D01*
X67778547Y-27496693D01*
X67774511Y-27503517D01*
X67774509Y-27503520D01*
X67731133Y-27576865D01*
X67693855Y-27639899D01*
X67691644Y-27647510D01*
X67691643Y-27647512D01*
X67684055Y-27673631D01*
X67647438Y-27799669D01*
X67646934Y-27806074D01*
X67646933Y-27806079D01*
X67644693Y-27834542D01*
X67644500Y-27836998D01*
X67644500Y-28588906D01*
X67624498Y-28657027D01*
X67607595Y-28678001D01*
X66045000Y-30240595D01*
X65982688Y-30274621D01*
X65955905Y-30277500D01*
X64204686Y-30277500D01*
X64136565Y-30257498D01*
X64090072Y-30203842D01*
X64085163Y-30191379D01*
X64079550Y-30174554D01*
X64072181Y-30162645D01*
X63990332Y-30030380D01*
X63986478Y-30024152D01*
X63861303Y-29899195D01*
X63768644Y-29842079D01*
X63716968Y-29810225D01*
X63716966Y-29810224D01*
X63710738Y-29806385D01*
X63630995Y-29779936D01*
X63549389Y-29752868D01*
X63549387Y-29752868D01*
X63542861Y-29750703D01*
X63536025Y-29750003D01*
X63536022Y-29750002D01*
X63492969Y-29745591D01*
X63438400Y-29740000D01*
X62037600Y-29740000D01*
X62034354Y-29740337D01*
X62034350Y-29740337D01*
X61938692Y-29750262D01*
X61938688Y-29750263D01*
X61931834Y-29750974D01*
X61925298Y-29753155D01*
X61925296Y-29753155D01*
X61802381Y-29794163D01*
X61764054Y-29806950D01*
X61613652Y-29900022D01*
X61488695Y-30025197D01*
X61484855Y-30031427D01*
X61484854Y-30031428D01*
X61410532Y-30152001D01*
X61395885Y-30175762D01*
X61393581Y-30182709D01*
X61393580Y-30182711D01*
X61390774Y-30191170D01*
X61350342Y-30249529D01*
X61284777Y-30276764D01*
X61271182Y-30277500D01*
X59124686Y-30277500D01*
X59056565Y-30257498D01*
X59010072Y-30203842D01*
X59005163Y-30191379D01*
X58999550Y-30174554D01*
X58992181Y-30162645D01*
X58910332Y-30030380D01*
X58906478Y-30024152D01*
X58781303Y-29899195D01*
X58688644Y-29842079D01*
X58636968Y-29810225D01*
X58636966Y-29810224D01*
X58630738Y-29806385D01*
X58550995Y-29779936D01*
X58469389Y-29752868D01*
X58469387Y-29752868D01*
X58462861Y-29750703D01*
X58456025Y-29750003D01*
X58456022Y-29750002D01*
X58412969Y-29745591D01*
X58358400Y-29740000D01*
X56957600Y-29740000D01*
X56954354Y-29740337D01*
X56954350Y-29740337D01*
X56858692Y-29750262D01*
X56858688Y-29750263D01*
X56851834Y-29750974D01*
X56845298Y-29753155D01*
X56845296Y-29753155D01*
X56722381Y-29794163D01*
X56684054Y-29806950D01*
X56533652Y-29900022D01*
X56408695Y-30025197D01*
X56404855Y-30031427D01*
X56404854Y-30031428D01*
X56330532Y-30152001D01*
X56315885Y-30175762D01*
X56302910Y-30214880D01*
X56273622Y-30303183D01*
X56260203Y-30343639D01*
X56259503Y-30350475D01*
X56259502Y-30350478D01*
X56255746Y-30387143D01*
X56249500Y-30448100D01*
X56249500Y-30666406D01*
X56229498Y-30734527D01*
X56212595Y-30755501D01*
X51711248Y-35256848D01*
X51648936Y-35290874D01*
X51589541Y-35289459D01*
X51531409Y-35273882D01*
X51531398Y-35273880D01*
X51526087Y-35272457D01*
X51298000Y-35252502D01*
X51069913Y-35272457D01*
X51064600Y-35273881D01*
X51064598Y-35273881D01*
X50854067Y-35330293D01*
X50854065Y-35330294D01*
X50848757Y-35331716D01*
X50843776Y-35334039D01*
X50843775Y-35334039D01*
X50646238Y-35426151D01*
X50646233Y-35426154D01*
X50641251Y-35428477D01*
X50545875Y-35495260D01*
X50458211Y-35556643D01*
X50458208Y-35556645D01*
X50453700Y-35559802D01*
X50291802Y-35721700D01*
X50288645Y-35726208D01*
X50288643Y-35726211D01*
X50233902Y-35804389D01*
X50160477Y-35909251D01*
X50158154Y-35914233D01*
X50158151Y-35914238D01*
X50066039Y-36111775D01*
X50063716Y-36116757D01*
X50062294Y-36122065D01*
X50062293Y-36122067D01*
X50005883Y-36332591D01*
X50004457Y-36337913D01*
X49984502Y-36566000D01*
X50004457Y-36794087D01*
X50007436Y-36805203D01*
X50021460Y-36857541D01*
X50019770Y-36928518D01*
X49988848Y-36979247D01*
X45204589Y-41763506D01*
X45142277Y-41797532D01*
X45071462Y-41792467D01*
X45014626Y-41749920D01*
X44989815Y-41683400D01*
X44989974Y-41663428D01*
X44991019Y-41651485D01*
X44991019Y-41651475D01*
X44991498Y-41646000D01*
X44971543Y-41417913D01*
X44970119Y-41412598D01*
X44913707Y-41202067D01*
X44913706Y-41202065D01*
X44912284Y-41196757D01*
X44909961Y-41191775D01*
X44817849Y-40994238D01*
X44817846Y-40994233D01*
X44815523Y-40989251D01*
X44684198Y-40801700D01*
X44522300Y-40639802D01*
X44517792Y-40636645D01*
X44517789Y-40636643D01*
X44430892Y-40575797D01*
X44334749Y-40508477D01*
X44329767Y-40506154D01*
X44329762Y-40506151D01*
X44295543Y-40490195D01*
X44242258Y-40443278D01*
X44222797Y-40375001D01*
X44243339Y-40307041D01*
X44295543Y-40261805D01*
X44329762Y-40245849D01*
X44329767Y-40245846D01*
X44334749Y-40243523D01*
X44475163Y-40145204D01*
X44517789Y-40115357D01*
X44517792Y-40115355D01*
X44522300Y-40112198D01*
X44684198Y-39950300D01*
X44694230Y-39935974D01*
X44765888Y-39833635D01*
X44815523Y-39762749D01*
X44817846Y-39757767D01*
X44817849Y-39757762D01*
X44909961Y-39560225D01*
X44909961Y-39560224D01*
X44912284Y-39555243D01*
X44917003Y-39537634D01*
X44970119Y-39339402D01*
X44970119Y-39339400D01*
X44971543Y-39334087D01*
X44991498Y-39106000D01*
X44971543Y-38877913D01*
X44945789Y-38781797D01*
X44913707Y-38662067D01*
X44913706Y-38662065D01*
X44912284Y-38656757D01*
X44898591Y-38627392D01*
X44817849Y-38454238D01*
X44817846Y-38454233D01*
X44815523Y-38449251D01*
X44684198Y-38261700D01*
X44522300Y-38099802D01*
X44517792Y-38096645D01*
X44517789Y-38096643D01*
X44373310Y-37995478D01*
X44334749Y-37968477D01*
X44329767Y-37966154D01*
X44329762Y-37966151D01*
X44295543Y-37950195D01*
X44242258Y-37903278D01*
X44222797Y-37835001D01*
X44243339Y-37767041D01*
X44295543Y-37721805D01*
X44329762Y-37705849D01*
X44329767Y-37705846D01*
X44334749Y-37703523D01*
X44475057Y-37605278D01*
X44517789Y-37575357D01*
X44517792Y-37575355D01*
X44522300Y-37572198D01*
X44684198Y-37410300D01*
X44704782Y-37380904D01*
X44758424Y-37304294D01*
X44815523Y-37222749D01*
X44817846Y-37217767D01*
X44817849Y-37217762D01*
X44909961Y-37020225D01*
X44909961Y-37020224D01*
X44912284Y-37015243D01*
X44916695Y-36998783D01*
X44970119Y-36799402D01*
X44970120Y-36799398D01*
X44971543Y-36794087D01*
X44991498Y-36566000D01*
X44971543Y-36337913D01*
X44970117Y-36332591D01*
X44913707Y-36122067D01*
X44913706Y-36122065D01*
X44912284Y-36116757D01*
X44909961Y-36111775D01*
X44817849Y-35914238D01*
X44817846Y-35914233D01*
X44815523Y-35909251D01*
X44742098Y-35804389D01*
X44687357Y-35726211D01*
X44687355Y-35726208D01*
X44684198Y-35721700D01*
X44522300Y-35559802D01*
X44517792Y-35556645D01*
X44517789Y-35556643D01*
X44430125Y-35495260D01*
X44334749Y-35428477D01*
X44329767Y-35426154D01*
X44329762Y-35426151D01*
X44132225Y-35334039D01*
X44132224Y-35334039D01*
X44127243Y-35331716D01*
X44121935Y-35330294D01*
X44121933Y-35330293D01*
X43911402Y-35273881D01*
X43911400Y-35273881D01*
X43906087Y-35272457D01*
X43678000Y-35252502D01*
X43449913Y-35272457D01*
X43444600Y-35273881D01*
X43444598Y-35273881D01*
X43234067Y-35330293D01*
X43234065Y-35330294D01*
X43228757Y-35331716D01*
X43223776Y-35334039D01*
X43223775Y-35334039D01*
X43026238Y-35426151D01*
X43026233Y-35426154D01*
X43021251Y-35428477D01*
X42925875Y-35495260D01*
X42838211Y-35556643D01*
X42838208Y-35556645D01*
X42833700Y-35559802D01*
X42671802Y-35721700D01*
X42668645Y-35726208D01*
X42668643Y-35726211D01*
X42561819Y-35878771D01*
X42506362Y-35923099D01*
X42458606Y-35932500D01*
X41341350Y-35932500D01*
X41273229Y-35912498D01*
X41226736Y-35858842D01*
X41221916Y-35846604D01*
X41221868Y-35846501D01*
X41219550Y-35839554D01*
X41126478Y-35689152D01*
X41001303Y-35564195D01*
X40994176Y-35559802D01*
X40856968Y-35475225D01*
X40856966Y-35475224D01*
X40850738Y-35471385D01*
X40714361Y-35426151D01*
X40689389Y-35417868D01*
X40689387Y-35417868D01*
X40682861Y-35415703D01*
X40676025Y-35415003D01*
X40676022Y-35415002D01*
X40632969Y-35410591D01*
X40578400Y-35405000D01*
X39177600Y-35405000D01*
X39174354Y-35405337D01*
X39174350Y-35405337D01*
X39078692Y-35415262D01*
X39078688Y-35415263D01*
X39071834Y-35415974D01*
X39065298Y-35418155D01*
X39065296Y-35418155D01*
X39024895Y-35431634D01*
X38904054Y-35471950D01*
X38753652Y-35565022D01*
X38628695Y-35690197D01*
X38624855Y-35696427D01*
X38624854Y-35696428D01*
X38550310Y-35817361D01*
X38535885Y-35840762D01*
X38480203Y-36008639D01*
X38469500Y-36113100D01*
X38469500Y-37038900D01*
X38469837Y-37042146D01*
X38469837Y-37042150D01*
X38478376Y-37124444D01*
X38480474Y-37144666D01*
X38482655Y-37151202D01*
X38482655Y-37151204D01*
X38497333Y-37195199D01*
X38536450Y-37312446D01*
X38629522Y-37462848D01*
X38754697Y-37587805D01*
X38760927Y-37591645D01*
X38760928Y-37591646D01*
X38898090Y-37676194D01*
X38905262Y-37680615D01*
X38964810Y-37700366D01*
X39066611Y-37734132D01*
X39066613Y-37734132D01*
X39073139Y-37736297D01*
X39079975Y-37736997D01*
X39079978Y-37736998D01*
X39123031Y-37741409D01*
X39177600Y-37747000D01*
X40578400Y-37747000D01*
X40581646Y-37746663D01*
X40581650Y-37746663D01*
X40677308Y-37736738D01*
X40677312Y-37736737D01*
X40684166Y-37736026D01*
X40690702Y-37733845D01*
X40690704Y-37733845D01*
X40822806Y-37689772D01*
X40851946Y-37680050D01*
X41002348Y-37586978D01*
X41127305Y-37461803D01*
X41186815Y-37365261D01*
X41216275Y-37317468D01*
X41216276Y-37317466D01*
X41220115Y-37311238D01*
X41228542Y-37285833D01*
X41268970Y-37227474D01*
X41334534Y-37200236D01*
X41348134Y-37199500D01*
X42458606Y-37199500D01*
X42526727Y-37219502D01*
X42561819Y-37253229D01*
X42668643Y-37405789D01*
X42671802Y-37410300D01*
X42833700Y-37572198D01*
X42838208Y-37575355D01*
X42838211Y-37575357D01*
X42880943Y-37605278D01*
X43021251Y-37703523D01*
X43026233Y-37705846D01*
X43026238Y-37705849D01*
X43060457Y-37721805D01*
X43113742Y-37768722D01*
X43133203Y-37836999D01*
X43112661Y-37904959D01*
X43060457Y-37950195D01*
X43026238Y-37966151D01*
X43026233Y-37966154D01*
X43021251Y-37968477D01*
X42982690Y-37995478D01*
X42838211Y-38096643D01*
X42838208Y-38096645D01*
X42833700Y-38099802D01*
X42671802Y-38261700D01*
X42668645Y-38266208D01*
X42668643Y-38266211D01*
X42561819Y-38418771D01*
X42506362Y-38463099D01*
X42458606Y-38472500D01*
X37577500Y-38472500D01*
X37509379Y-38452498D01*
X37462886Y-38398842D01*
X37451500Y-38346500D01*
X37451500Y-38093100D01*
X37449630Y-38075076D01*
X37441238Y-37994192D01*
X37441237Y-37994188D01*
X37440526Y-37987334D01*
X37428136Y-37950195D01*
X37386868Y-37826502D01*
X37384550Y-37819554D01*
X37291478Y-37669152D01*
X37286296Y-37663979D01*
X37281749Y-37658242D01*
X37283872Y-37656559D01*
X37255828Y-37605278D01*
X37260847Y-37534459D01*
X37289758Y-37489398D01*
X37312134Y-37466983D01*
X37317305Y-37461803D01*
X37376815Y-37365261D01*
X37406275Y-37317468D01*
X37406276Y-37317466D01*
X37410115Y-37311238D01*
X37451023Y-37187904D01*
X37463632Y-37149889D01*
X37463632Y-37149887D01*
X37465797Y-37143361D01*
X37466733Y-37134233D01*
X37474043Y-37062878D01*
X37476500Y-37038900D01*
X37476500Y-36113100D01*
X37474537Y-36094183D01*
X37466238Y-36014192D01*
X37466237Y-36014188D01*
X37465526Y-36007334D01*
X37455502Y-35977287D01*
X37411868Y-35846502D01*
X37409550Y-35839554D01*
X37316478Y-35689152D01*
X37191303Y-35564195D01*
X37184176Y-35559802D01*
X37046968Y-35475225D01*
X37046966Y-35475224D01*
X37040738Y-35471385D01*
X36904361Y-35426151D01*
X36879389Y-35417868D01*
X36879387Y-35417868D01*
X36872861Y-35415703D01*
X36866025Y-35415003D01*
X36866022Y-35415002D01*
X36822969Y-35410591D01*
X36768400Y-35405000D01*
X35367600Y-35405000D01*
X35364354Y-35405337D01*
X35364350Y-35405337D01*
X35268692Y-35415262D01*
X35268688Y-35415263D01*
X35261834Y-35415974D01*
X35255298Y-35418155D01*
X35255296Y-35418155D01*
X35214895Y-35431634D01*
X35094054Y-35471950D01*
X34943652Y-35565022D01*
X34818695Y-35690197D01*
X34814855Y-35696427D01*
X34814854Y-35696428D01*
X34740310Y-35817361D01*
X34725885Y-35840762D01*
X34670203Y-36008639D01*
X34659500Y-36113100D01*
X34659500Y-37038900D01*
X34659837Y-37042146D01*
X34659837Y-37042150D01*
X34668376Y-37124444D01*
X34670474Y-37144666D01*
X34672655Y-37151202D01*
X34672655Y-37151204D01*
X34687333Y-37195199D01*
X34726450Y-37312446D01*
X34819522Y-37462848D01*
X34824704Y-37468021D01*
X34824708Y-37468026D01*
X34846131Y-37489412D01*
X34880210Y-37551694D01*
X34875207Y-37622514D01*
X34852225Y-37658340D01*
X34853404Y-37659271D01*
X34848866Y-37665017D01*
X34843695Y-37670197D01*
X34839855Y-37676427D01*
X34839854Y-37676428D01*
X34774447Y-37782538D01*
X34750885Y-37820762D01*
X34695203Y-37988639D01*
X34684500Y-38093100D01*
X34684500Y-38993900D01*
X34684837Y-38997146D01*
X34684837Y-38997150D01*
X34694323Y-39088570D01*
X34695474Y-39099666D01*
X34751450Y-39267446D01*
X34844522Y-39417848D01*
X34969697Y-39542805D01*
X34975927Y-39546645D01*
X34975928Y-39546646D01*
X34981261Y-39549933D01*
X35120262Y-39635615D01*
X35200005Y-39662064D01*
X35281611Y-39689132D01*
X35281613Y-39689132D01*
X35288139Y-39691297D01*
X35294975Y-39691997D01*
X35294978Y-39691998D01*
X35338031Y-39696409D01*
X35392600Y-39702000D01*
X36386559Y-39702000D01*
X36436596Y-39712362D01*
X36452355Y-39719181D01*
X36460178Y-39720420D01*
X36460188Y-39720423D01*
X36496024Y-39726099D01*
X36507644Y-39728505D01*
X36542789Y-39737528D01*
X36550470Y-39739500D01*
X36570724Y-39739500D01*
X36590434Y-39741051D01*
X36610443Y-39744220D01*
X36618335Y-39743474D01*
X36654461Y-39740059D01*
X36666319Y-39739500D01*
X42458606Y-39739500D01*
X42526727Y-39759502D01*
X42561819Y-39793229D01*
X42663097Y-39937868D01*
X42671802Y-39950300D01*
X42833700Y-40112198D01*
X42838208Y-40115355D01*
X42838211Y-40115357D01*
X42880837Y-40145204D01*
X43021251Y-40243523D01*
X43026233Y-40245846D01*
X43026238Y-40245849D01*
X43060457Y-40261805D01*
X43113742Y-40308722D01*
X43133203Y-40376999D01*
X43112661Y-40444959D01*
X43060457Y-40490195D01*
X43026238Y-40506151D01*
X43026233Y-40506154D01*
X43021251Y-40508477D01*
X42925108Y-40575797D01*
X42838211Y-40636643D01*
X42838208Y-40636645D01*
X42833700Y-40639802D01*
X42671802Y-40801700D01*
X42668645Y-40806208D01*
X42668643Y-40806211D01*
X42561819Y-40958771D01*
X42506362Y-41003099D01*
X42458606Y-41012500D01*
X37506350Y-41012500D01*
X37438229Y-40992498D01*
X37391736Y-40938842D01*
X37386916Y-40926604D01*
X37386868Y-40926501D01*
X37384550Y-40919554D01*
X37291478Y-40769152D01*
X37166303Y-40644195D01*
X37159176Y-40639802D01*
X37021968Y-40555225D01*
X37021966Y-40555224D01*
X37015738Y-40551385D01*
X36895892Y-40511634D01*
X36854389Y-40497868D01*
X36854387Y-40497868D01*
X36847861Y-40495703D01*
X36841025Y-40495003D01*
X36841022Y-40495002D01*
X36794103Y-40490195D01*
X36743400Y-40485000D01*
X35392600Y-40485000D01*
X35389354Y-40485337D01*
X35389350Y-40485337D01*
X35293692Y-40495262D01*
X35293688Y-40495263D01*
X35286834Y-40495974D01*
X35280298Y-40498155D01*
X35280296Y-40498155D01*
X35155811Y-40539687D01*
X35119054Y-40551950D01*
X34968652Y-40645022D01*
X34843695Y-40770197D01*
X34839855Y-40776427D01*
X34839854Y-40776428D01*
X34821496Y-40806211D01*
X34750885Y-40920762D01*
X34695203Y-41088639D01*
X34694503Y-41095475D01*
X34694502Y-41095478D01*
X34692624Y-41113812D01*
X34684500Y-41193100D01*
X34684500Y-42093900D01*
X34684837Y-42097146D01*
X34684837Y-42097150D01*
X34693218Y-42177919D01*
X34695474Y-42199666D01*
X34697655Y-42206202D01*
X34697655Y-42206204D01*
X34728782Y-42299502D01*
X34751450Y-42367446D01*
X34844522Y-42517848D01*
X34969697Y-42642805D01*
X34975927Y-42646645D01*
X34975928Y-42646646D01*
X35106231Y-42726966D01*
X35120262Y-42735615D01*
X35153571Y-42746663D01*
X35281611Y-42789132D01*
X35281613Y-42789132D01*
X35288139Y-42791297D01*
X35294975Y-42791997D01*
X35294978Y-42791998D01*
X35338031Y-42796409D01*
X35392600Y-42802000D01*
X35500060Y-42802000D01*
X35568181Y-42822002D01*
X35614674Y-42875658D01*
X35624778Y-42945932D01*
X35595284Y-43010512D01*
X35589233Y-43017017D01*
X35513870Y-43092512D01*
X35513866Y-43092517D01*
X35508695Y-43097697D01*
X35504855Y-43103927D01*
X35504854Y-43103928D01*
X35429047Y-43226910D01*
X35415885Y-43248262D01*
X35404827Y-43281600D01*
X35384488Y-43342923D01*
X35360203Y-43416139D01*
X35359503Y-43422975D01*
X35359502Y-43422978D01*
X35356371Y-43453538D01*
X35349500Y-43520600D01*
X35349500Y-44871400D01*
X35349837Y-44874646D01*
X35349837Y-44874650D01*
X35356543Y-44939275D01*
X35360474Y-44977166D01*
X35362655Y-44983702D01*
X35362655Y-44983704D01*
X35378201Y-45030300D01*
X35416450Y-45144946D01*
X35509522Y-45295348D01*
X35634697Y-45420305D01*
X35640927Y-45424145D01*
X35640928Y-45424146D01*
X35778090Y-45508694D01*
X35785262Y-45513115D01*
X35905875Y-45553120D01*
X35939903Y-45564407D01*
X35998263Y-45604838D01*
X36025500Y-45670402D01*
X36012967Y-45740283D01*
X35964642Y-45792295D01*
X35900236Y-45810000D01*
X27932594Y-45810000D01*
X27864473Y-45789998D01*
X27843499Y-45773095D01*
X26120894Y-44050489D01*
X26086868Y-43988177D01*
X26091933Y-43917361D01*
X26134480Y-43860526D01*
X26201000Y-43835715D01*
X26242342Y-43841695D01*
X26242709Y-43840151D01*
X26265649Y-43845605D01*
X26316514Y-43851131D01*
X26323328Y-43851500D01*
X29445885Y-43851500D01*
X29461124Y-43847025D01*
X29462329Y-43845635D01*
X29464000Y-43837952D01*
X29464000Y-43833384D01*
X29972000Y-43833384D01*
X29976475Y-43848623D01*
X29977865Y-43849828D01*
X29985548Y-43851499D01*
X33112669Y-43851499D01*
X33119490Y-43851129D01*
X33170352Y-43845605D01*
X33185604Y-43841979D01*
X33306054Y-43796824D01*
X33321649Y-43788286D01*
X33423724Y-43711785D01*
X33436285Y-43699224D01*
X33512786Y-43597149D01*
X33521324Y-43581554D01*
X33566478Y-43461106D01*
X33570105Y-43445851D01*
X33575631Y-43394986D01*
X33576000Y-43388172D01*
X33576000Y-40365615D01*
X33571525Y-40350376D01*
X33570135Y-40349171D01*
X33562452Y-40347500D01*
X29990115Y-40347500D01*
X29974876Y-40351975D01*
X29973671Y-40353365D01*
X29972000Y-40361048D01*
X29972000Y-43833384D01*
X29464000Y-43833384D01*
X29464000Y-40365615D01*
X29459525Y-40350376D01*
X29458135Y-40349171D01*
X29450452Y-40347500D01*
X25878116Y-40347500D01*
X25862877Y-40351975D01*
X25861672Y-40353365D01*
X25860001Y-40361048D01*
X25860001Y-43388169D01*
X25860371Y-43394990D01*
X25865895Y-43445852D01*
X25871349Y-43468793D01*
X25868971Y-43469358D01*
X25873272Y-43528084D01*
X25839354Y-43590454D01*
X25777100Y-43624586D01*
X25706275Y-43619642D01*
X25661011Y-43590606D01*
X24913405Y-42843000D01*
X24879379Y-42780688D01*
X24876500Y-42753905D01*
X24876500Y-41595366D01*
X24869745Y-41533184D01*
X24818615Y-41396795D01*
X24731261Y-41280239D01*
X24614705Y-41192885D01*
X24478316Y-41141755D01*
X24416134Y-41135000D01*
X22719866Y-41135000D01*
X22657684Y-41141755D01*
X22521295Y-41192885D01*
X22404739Y-41280239D01*
X22353517Y-41348584D01*
X22296661Y-41391096D01*
X22225843Y-41396122D01*
X22163549Y-41362062D01*
X22149734Y-41345647D01*
X22092344Y-41264292D01*
X22092343Y-41264291D01*
X22090313Y-41261413D01*
X21959267Y-41113812D01*
X21853137Y-40994274D01*
X21853131Y-40994268D01*
X21850804Y-40991647D01*
X21843137Y-40984743D01*
X21585337Y-40752619D01*
X21585336Y-40752618D01*
X21582717Y-40750260D01*
X21465535Y-40666366D01*
X21292260Y-40542313D01*
X21292253Y-40542309D01*
X21289393Y-40540261D01*
X20974489Y-40364267D01*
X20641930Y-40224472D01*
X20638561Y-40223481D01*
X20638557Y-40223479D01*
X20485826Y-40178528D01*
X20295860Y-40122618D01*
X19940593Y-40059975D01*
X19937084Y-40059754D01*
X19937082Y-40059754D01*
X19584076Y-40037545D01*
X19584070Y-40037545D01*
X19580558Y-40037324D01*
X19477492Y-40042365D01*
X19223749Y-40054774D01*
X19223740Y-40054775D01*
X19220242Y-40054946D01*
X19216774Y-40055508D01*
X19216771Y-40055508D01*
X18867610Y-40112060D01*
X18867607Y-40112061D01*
X18864135Y-40112623D01*
X18860748Y-40113569D01*
X18860742Y-40113570D01*
X18727801Y-40150688D01*
X18516677Y-40209635D01*
X18391977Y-40260017D01*
X18185463Y-40343454D01*
X18185459Y-40343456D01*
X18182199Y-40344773D01*
X18179112Y-40346442D01*
X18179108Y-40346444D01*
X18126293Y-40375001D01*
X17864868Y-40516353D01*
X17568641Y-40722236D01*
X17565999Y-40724549D01*
X17565995Y-40724552D01*
X17365091Y-40900431D01*
X17297209Y-40959857D01*
X17294834Y-40962458D01*
X17137282Y-41135000D01*
X17053957Y-41226252D01*
X16841915Y-41518103D01*
X16840173Y-41521169D01*
X16840172Y-41521171D01*
X16833348Y-41533184D01*
X16663727Y-41831770D01*
X16521614Y-42163346D01*
X16517214Y-42177919D01*
X16421724Y-42494197D01*
X16417346Y-42508696D01*
X16402827Y-42587805D01*
X16355719Y-42844476D01*
X16352224Y-42863516D01*
X16351978Y-42867032D01*
X16351978Y-42867033D01*
X16339070Y-43051634D01*
X16327060Y-43223385D01*
X16328069Y-43247450D01*
X16342166Y-43583815D01*
X16368439Y-43753526D01*
X16396069Y-43932000D01*
X16397356Y-43940316D01*
X16398278Y-43943708D01*
X16398278Y-43943710D01*
X16410360Y-43988177D01*
X16491940Y-44288443D01*
X16493233Y-44291708D01*
X16493234Y-44291712D01*
X16563077Y-44468115D01*
X16624739Y-44623857D01*
X16794100Y-44942377D01*
X16796085Y-44945276D01*
X16995919Y-45237128D01*
X16995924Y-45237134D01*
X16997910Y-45240035D01*
X17233630Y-45513118D01*
X17498321Y-45758225D01*
X17501143Y-45760306D01*
X17501146Y-45760308D01*
X17541417Y-45789998D01*
X17788684Y-45972299D01*
X18101100Y-46152672D01*
X18231220Y-46209520D01*
X18428454Y-46295690D01*
X18428457Y-46295691D01*
X18431675Y-46297097D01*
X18435032Y-46298136D01*
X18435037Y-46298138D01*
X18772929Y-46402733D01*
X18776289Y-46403773D01*
X18779745Y-46404432D01*
X18779744Y-46404432D01*
X19127195Y-46470712D01*
X19127200Y-46470713D01*
X19130646Y-46471370D01*
X19328306Y-46486579D01*
X19486833Y-46498777D01*
X19486834Y-46498777D01*
X19490330Y-46499046D01*
X19716025Y-46491164D01*
X19847342Y-46486579D01*
X19847346Y-46486579D01*
X19850857Y-46486456D01*
X19957475Y-46470712D01*
X20204242Y-46434273D01*
X20204248Y-46434272D01*
X20207734Y-46433757D01*
X20211138Y-46432858D01*
X20211141Y-46432857D01*
X20553122Y-46342502D01*
X20553123Y-46342502D01*
X20556513Y-46341606D01*
X20892846Y-46211151D01*
X21212541Y-46044018D01*
X21511614Y-45842291D01*
X21610392Y-45758225D01*
X21783664Y-45610759D01*
X21783665Y-45610758D01*
X21786337Y-45608484D01*
X21875892Y-45513118D01*
X22030874Y-45348079D01*
X22030878Y-45348074D01*
X22033285Y-45345511D01*
X22035390Y-45342697D01*
X22035396Y-45342690D01*
X22247272Y-45059468D01*
X22249381Y-45056649D01*
X22252516Y-45051307D01*
X22341828Y-44899077D01*
X22431931Y-44745500D01*
X22471959Y-44655595D01*
X22577228Y-44419158D01*
X22577230Y-44419153D01*
X22578660Y-44415941D01*
X22687739Y-44072080D01*
X22750815Y-43753526D01*
X22783667Y-43690588D01*
X22845332Y-43655402D01*
X22874415Y-43652000D01*
X23878406Y-43652000D01*
X23946527Y-43672002D01*
X23967501Y-43688905D01*
X27114348Y-46835753D01*
X27121888Y-46844039D01*
X27126000Y-46850518D01*
X27131777Y-46855943D01*
X27175651Y-46897143D01*
X27178493Y-46899898D01*
X27198230Y-46919635D01*
X27201427Y-46922115D01*
X27210447Y-46929818D01*
X27242679Y-46960086D01*
X27249625Y-46963905D01*
X27249628Y-46963907D01*
X27260434Y-46969848D01*
X27276954Y-46980700D01*
X27292862Y-46993039D01*
X27334430Y-47050595D01*
X27338282Y-47121487D01*
X27303196Y-47183207D01*
X27240310Y-47216161D01*
X27215638Y-47218600D01*
X15721600Y-47218600D01*
X15653479Y-47198598D01*
X15606986Y-47144942D01*
X15595600Y-47092600D01*
X15595600Y-39821385D01*
X25860000Y-39821385D01*
X25864475Y-39836624D01*
X25865865Y-39837829D01*
X25873548Y-39839500D01*
X29445885Y-39839500D01*
X29461124Y-39835025D01*
X29462329Y-39833635D01*
X29464000Y-39825952D01*
X29464000Y-39821385D01*
X29972000Y-39821385D01*
X29976475Y-39836624D01*
X29977865Y-39837829D01*
X29985548Y-39839500D01*
X33557884Y-39839500D01*
X33573123Y-39835025D01*
X33574328Y-39833635D01*
X33575999Y-39825952D01*
X33575999Y-36798831D01*
X33575629Y-36792010D01*
X33570105Y-36741148D01*
X33566479Y-36725896D01*
X33521324Y-36605446D01*
X33512786Y-36589851D01*
X33436285Y-36487776D01*
X33423724Y-36475215D01*
X33321649Y-36398714D01*
X33306054Y-36390176D01*
X33185606Y-36345022D01*
X33170351Y-36341395D01*
X33119486Y-36335869D01*
X33112672Y-36335500D01*
X29990115Y-36335500D01*
X29974876Y-36339975D01*
X29973671Y-36341365D01*
X29972000Y-36349048D01*
X29972000Y-39821385D01*
X29464000Y-39821385D01*
X29464000Y-36353616D01*
X29459525Y-36338377D01*
X29458135Y-36337172D01*
X29450452Y-36335501D01*
X26323331Y-36335501D01*
X26316510Y-36335871D01*
X26265648Y-36341395D01*
X26250396Y-36345021D01*
X26129946Y-36390176D01*
X26114351Y-36398714D01*
X26012276Y-36475215D01*
X25999715Y-36487776D01*
X25923214Y-36589851D01*
X25914676Y-36605446D01*
X25869522Y-36725894D01*
X25865895Y-36741149D01*
X25860369Y-36792014D01*
X25860000Y-36798828D01*
X25860000Y-39821385D01*
X15595600Y-39821385D01*
X15595600Y-19118443D01*
X20824780Y-19118443D01*
X20825526Y-19126335D01*
X20828941Y-19162461D01*
X20829500Y-19174319D01*
X20829500Y-29219733D01*
X20828973Y-29230916D01*
X20827298Y-29238409D01*
X20827547Y-29246335D01*
X20827547Y-29246336D01*
X20829438Y-29306486D01*
X20829500Y-29310445D01*
X20829500Y-35609733D01*
X20828973Y-35620916D01*
X20827298Y-35628409D01*
X20827547Y-35636335D01*
X20827547Y-35636336D01*
X20829438Y-35696486D01*
X20829500Y-35700445D01*
X20829500Y-35728356D01*
X20829997Y-35732290D01*
X20829997Y-35732291D01*
X20830005Y-35732356D01*
X20830938Y-35744193D01*
X20832327Y-35788389D01*
X20837978Y-35807839D01*
X20841987Y-35827200D01*
X20844526Y-35847297D01*
X20847445Y-35854668D01*
X20847445Y-35854670D01*
X20860804Y-35888412D01*
X20864649Y-35899642D01*
X20871464Y-35923099D01*
X20876982Y-35942093D01*
X20881015Y-35948912D01*
X20881017Y-35948917D01*
X20887293Y-35959528D01*
X20895988Y-35977276D01*
X20903448Y-35996117D01*
X20908110Y-36002533D01*
X20908110Y-36002534D01*
X20929436Y-36031887D01*
X20935952Y-36041807D01*
X20958458Y-36079862D01*
X20972779Y-36094183D01*
X20985619Y-36109216D01*
X20997528Y-36125607D01*
X21003634Y-36130658D01*
X21031605Y-36153798D01*
X21040384Y-36161788D01*
X22222595Y-37343999D01*
X22256621Y-37406311D01*
X22259500Y-37433094D01*
X22259500Y-38591634D01*
X22266255Y-38653816D01*
X22317385Y-38790205D01*
X22404739Y-38906761D01*
X22521295Y-38994115D01*
X22657684Y-39045245D01*
X22719866Y-39052000D01*
X24416134Y-39052000D01*
X24478316Y-39045245D01*
X24614705Y-38994115D01*
X24731261Y-38906761D01*
X24818615Y-38790205D01*
X24869745Y-38653816D01*
X24876500Y-38591634D01*
X24876500Y-36995366D01*
X24869745Y-36933184D01*
X24818615Y-36796795D01*
X24731261Y-36680239D01*
X24614705Y-36592885D01*
X24478316Y-36541755D01*
X24416134Y-36535000D01*
X23257594Y-36535000D01*
X23189473Y-36514998D01*
X23168499Y-36498095D01*
X22133405Y-35463000D01*
X22099379Y-35400688D01*
X22096500Y-35373905D01*
X22096500Y-35075595D01*
X27620001Y-35075595D01*
X27620338Y-35082114D01*
X27630257Y-35177706D01*
X27633149Y-35191100D01*
X27684588Y-35345284D01*
X27690761Y-35358462D01*
X27776063Y-35496307D01*
X27785099Y-35507708D01*
X27899829Y-35622239D01*
X27911240Y-35631251D01*
X28049243Y-35716316D01*
X28062424Y-35722463D01*
X28216710Y-35773638D01*
X28230086Y-35776505D01*
X28324438Y-35786172D01*
X28330854Y-35786500D01*
X28518385Y-35786500D01*
X28533624Y-35782025D01*
X28534829Y-35780635D01*
X28536500Y-35772952D01*
X28536500Y-35768384D01*
X29044500Y-35768384D01*
X29048975Y-35783623D01*
X29050365Y-35784828D01*
X29058048Y-35786499D01*
X29250095Y-35786499D01*
X29256614Y-35786162D01*
X29352206Y-35776243D01*
X29365600Y-35773351D01*
X29519784Y-35721912D01*
X29532962Y-35715739D01*
X29670807Y-35630437D01*
X29682208Y-35621401D01*
X29796739Y-35506671D01*
X29805751Y-35495260D01*
X29890816Y-35357257D01*
X29896963Y-35344076D01*
X29948138Y-35189790D01*
X29951005Y-35176414D01*
X29960672Y-35082062D01*
X29961000Y-35075646D01*
X29961000Y-34650615D01*
X29956525Y-34635376D01*
X29955135Y-34634171D01*
X29947452Y-34632500D01*
X29062615Y-34632500D01*
X29047376Y-34636975D01*
X29046171Y-34638365D01*
X29044500Y-34646048D01*
X29044500Y-35768384D01*
X28536500Y-35768384D01*
X28536500Y-34650615D01*
X28532025Y-34635376D01*
X28530635Y-34634171D01*
X28522952Y-34632500D01*
X27638116Y-34632500D01*
X27622877Y-34636975D01*
X27621672Y-34638365D01*
X27620001Y-34646048D01*
X27620001Y-35075595D01*
X22096500Y-35075595D01*
X22096500Y-33470899D01*
X23287712Y-33470899D01*
X23309194Y-33560037D01*
X23313083Y-33571332D01*
X23395629Y-33752882D01*
X23401576Y-33763224D01*
X23516968Y-33925897D01*
X23524761Y-33934925D01*
X23668831Y-34072842D01*
X23678196Y-34080238D01*
X23845741Y-34188421D01*
X23856345Y-34193917D01*
X24041312Y-34268461D01*
X24052770Y-34271855D01*
X24249928Y-34310357D01*
X24258791Y-34311434D01*
X24261500Y-34311500D01*
X24365885Y-34311500D01*
X24381124Y-34307025D01*
X24382329Y-34305635D01*
X24384000Y-34297952D01*
X24384000Y-34293385D01*
X24892000Y-34293385D01*
X24896475Y-34308624D01*
X24897865Y-34309829D01*
X24905548Y-34311500D01*
X24962832Y-34311500D01*
X24968808Y-34311215D01*
X25117494Y-34297029D01*
X25129228Y-34294770D01*
X25320599Y-34238628D01*
X25331675Y-34234198D01*
X25508978Y-34142881D01*
X25519024Y-34136431D01*
X25557275Y-34106385D01*
X27620000Y-34106385D01*
X27624475Y-34121624D01*
X27625865Y-34122829D01*
X27633548Y-34124500D01*
X28518385Y-34124500D01*
X28533624Y-34120025D01*
X28534829Y-34118635D01*
X28536500Y-34110952D01*
X28536500Y-34106385D01*
X29044500Y-34106385D01*
X29048975Y-34121624D01*
X29050365Y-34122829D01*
X29058048Y-34124500D01*
X29942884Y-34124500D01*
X29958123Y-34120025D01*
X29959328Y-34118635D01*
X29960999Y-34110952D01*
X29960999Y-33681405D01*
X29960662Y-33674886D01*
X29950743Y-33579294D01*
X29947851Y-33565900D01*
X29896412Y-33411716D01*
X29890239Y-33398538D01*
X29804937Y-33260693D01*
X29795901Y-33249292D01*
X29744183Y-33197664D01*
X29710104Y-33135381D01*
X29715107Y-33064561D01*
X29744029Y-33019472D01*
X29796739Y-32966671D01*
X29805751Y-32955260D01*
X29890816Y-32817257D01*
X29896963Y-32804076D01*
X29948138Y-32649790D01*
X29951005Y-32636414D01*
X29960672Y-32542062D01*
X29961000Y-32535646D01*
X29961000Y-32110615D01*
X29956525Y-32095376D01*
X29955135Y-32094171D01*
X29947452Y-32092500D01*
X29062615Y-32092500D01*
X29047376Y-32096975D01*
X29046171Y-32098365D01*
X29044500Y-32106048D01*
X29044500Y-34106385D01*
X28536500Y-34106385D01*
X28536500Y-32110615D01*
X28532025Y-32095376D01*
X28530635Y-32094171D01*
X28522952Y-32092500D01*
X27638116Y-32092500D01*
X27622877Y-32096975D01*
X27621672Y-32098365D01*
X27620001Y-32106048D01*
X27620001Y-32535595D01*
X27620338Y-32542114D01*
X27630257Y-32637706D01*
X27633149Y-32651100D01*
X27684588Y-32805284D01*
X27690761Y-32818462D01*
X27776063Y-32956307D01*
X27785099Y-32967708D01*
X27836817Y-33019336D01*
X27870896Y-33081619D01*
X27865893Y-33152439D01*
X27836971Y-33197528D01*
X27784261Y-33250329D01*
X27775249Y-33261740D01*
X27690184Y-33399743D01*
X27684037Y-33412924D01*
X27632862Y-33567210D01*
X27629995Y-33580586D01*
X27620328Y-33674938D01*
X27620000Y-33681355D01*
X27620000Y-34106385D01*
X25557275Y-34106385D01*
X25675857Y-34013238D01*
X25684506Y-34005001D01*
X25815212Y-33854377D01*
X25822147Y-33844653D01*
X25922010Y-33672033D01*
X25926984Y-33661169D01*
X25992407Y-33472773D01*
X25992648Y-33471784D01*
X25991180Y-33461492D01*
X25977615Y-33457500D01*
X24910115Y-33457500D01*
X24894876Y-33461975D01*
X24893671Y-33463365D01*
X24892000Y-33471048D01*
X24892000Y-34293385D01*
X24384000Y-34293385D01*
X24384000Y-33475615D01*
X24379525Y-33460376D01*
X24378135Y-33459171D01*
X24370452Y-33457500D01*
X23302598Y-33457500D01*
X23289067Y-33461473D01*
X23287712Y-33470899D01*
X22096500Y-33470899D01*
X22096500Y-31132095D01*
X22116502Y-31063974D01*
X22170158Y-31017481D01*
X22240432Y-31007377D01*
X22305012Y-31036871D01*
X22311595Y-31043000D01*
X22864348Y-31595753D01*
X22871888Y-31604039D01*
X22876000Y-31610518D01*
X22881777Y-31615943D01*
X22925651Y-31657143D01*
X22928493Y-31659898D01*
X22948230Y-31679635D01*
X22951427Y-31682115D01*
X22960447Y-31689818D01*
X22992679Y-31720086D01*
X22999625Y-31723905D01*
X22999628Y-31723907D01*
X23010434Y-31729848D01*
X23026953Y-31740699D01*
X23042959Y-31753114D01*
X23050228Y-31756259D01*
X23050232Y-31756262D01*
X23083537Y-31770674D01*
X23094187Y-31775891D01*
X23132940Y-31797195D01*
X23140615Y-31799166D01*
X23140616Y-31799166D01*
X23152562Y-31802233D01*
X23171267Y-31808637D01*
X23189855Y-31816681D01*
X23197678Y-31817920D01*
X23197688Y-31817923D01*
X23233524Y-31823599D01*
X23245144Y-31826005D01*
X23276959Y-31834173D01*
X23287970Y-31837000D01*
X23308224Y-31837000D01*
X23327934Y-31838551D01*
X23347943Y-31841720D01*
X23377317Y-31838943D01*
X23447017Y-31852445D01*
X23491945Y-31891485D01*
X23516584Y-31926221D01*
X23516591Y-31926229D01*
X23520054Y-31931111D01*
X23524381Y-31935253D01*
X23666495Y-32071297D01*
X23672850Y-32077381D01*
X23677881Y-32080630D01*
X23677888Y-32080635D01*
X23705607Y-32098533D01*
X23751984Y-32152289D01*
X23761937Y-32222585D01*
X23732304Y-32287102D01*
X23715091Y-32303470D01*
X23600143Y-32393762D01*
X23591494Y-32401999D01*
X23460788Y-32552623D01*
X23453853Y-32562347D01*
X23353990Y-32734967D01*
X23349016Y-32745831D01*
X23283593Y-32934227D01*
X23283352Y-32935216D01*
X23284820Y-32945508D01*
X23298385Y-32949500D01*
X25973402Y-32949500D01*
X25986933Y-32945527D01*
X25988288Y-32936101D01*
X25966806Y-32846963D01*
X25962917Y-32835668D01*
X25880371Y-32654118D01*
X25874424Y-32643776D01*
X25759032Y-32481103D01*
X25751239Y-32472075D01*
X25607169Y-32334158D01*
X25597800Y-32326759D01*
X25570423Y-32309082D01*
X25524045Y-32255328D01*
X25514091Y-32185032D01*
X25543722Y-32120515D01*
X25560937Y-32104144D01*
X25573633Y-32094171D01*
X25680920Y-32009896D01*
X25684852Y-32005365D01*
X25684855Y-32005362D01*
X25815621Y-31854667D01*
X25819552Y-31850137D01*
X25822552Y-31844951D01*
X25822555Y-31844947D01*
X25922467Y-31672242D01*
X25925473Y-31667046D01*
X25960428Y-31566385D01*
X27620000Y-31566385D01*
X27624475Y-31581624D01*
X27625865Y-31582829D01*
X27633548Y-31584500D01*
X28518385Y-31584500D01*
X28533624Y-31580025D01*
X28534829Y-31578635D01*
X28536500Y-31570952D01*
X28536500Y-31566385D01*
X29044500Y-31566385D01*
X29048975Y-31581624D01*
X29050365Y-31582829D01*
X29058048Y-31584500D01*
X29942884Y-31584500D01*
X29958123Y-31580025D01*
X29959328Y-31578635D01*
X29960999Y-31570952D01*
X29960999Y-31141405D01*
X29960662Y-31134886D01*
X29950743Y-31039294D01*
X29947851Y-31025900D01*
X29896412Y-30871716D01*
X29890239Y-30858538D01*
X29804937Y-30720693D01*
X29795901Y-30709292D01*
X29681171Y-30594761D01*
X29669760Y-30585749D01*
X29531757Y-30500684D01*
X29518576Y-30494537D01*
X29364290Y-30443362D01*
X29350914Y-30440495D01*
X29256562Y-30430828D01*
X29250145Y-30430500D01*
X29062615Y-30430500D01*
X29047376Y-30434975D01*
X29046171Y-30436365D01*
X29044500Y-30444048D01*
X29044500Y-31566385D01*
X28536500Y-31566385D01*
X28536500Y-30448616D01*
X28532025Y-30433377D01*
X28530635Y-30432172D01*
X28522952Y-30430501D01*
X28330905Y-30430501D01*
X28324386Y-30430838D01*
X28228794Y-30440757D01*
X28215400Y-30443649D01*
X28061216Y-30495088D01*
X28048038Y-30501261D01*
X27910193Y-30586563D01*
X27898792Y-30595599D01*
X27784261Y-30710329D01*
X27775249Y-30721740D01*
X27690184Y-30859743D01*
X27684037Y-30872924D01*
X27632862Y-31027210D01*
X27629995Y-31040586D01*
X27620328Y-31134938D01*
X27620000Y-31141355D01*
X27620000Y-31566385D01*
X25960428Y-31566385D01*
X25994861Y-31467229D01*
X25998147Y-31444564D01*
X26024352Y-31263836D01*
X26024352Y-31263833D01*
X26025213Y-31257896D01*
X26015433Y-31046601D01*
X25970400Y-30859743D01*
X25967281Y-30846799D01*
X25967280Y-30846797D01*
X25965875Y-30840966D01*
X25959937Y-30827905D01*
X25906006Y-30709292D01*
X25878326Y-30648413D01*
X25784669Y-30516380D01*
X25759412Y-30480775D01*
X25759411Y-30480774D01*
X25755946Y-30475889D01*
X25603150Y-30329619D01*
X25597170Y-30325758D01*
X25570837Y-30308754D01*
X25524460Y-30254999D01*
X25514507Y-30184703D01*
X25544139Y-30120186D01*
X25561353Y-30103817D01*
X25568446Y-30098246D01*
X25680920Y-30009896D01*
X25793275Y-29880418D01*
X25853027Y-29842079D01*
X25888439Y-29837000D01*
X29308405Y-29837000D01*
X29376526Y-29857002D01*
X29397501Y-29873905D01*
X29627412Y-30103817D01*
X29849353Y-30325758D01*
X29856887Y-30334037D01*
X29861000Y-30340518D01*
X29876321Y-30354905D01*
X29910651Y-30387143D01*
X29913493Y-30389898D01*
X29933230Y-30409635D01*
X29936427Y-30412115D01*
X29945447Y-30419818D01*
X29977679Y-30450086D01*
X29984625Y-30453905D01*
X29984628Y-30453907D01*
X29995434Y-30459848D01*
X30011953Y-30470699D01*
X30027959Y-30483114D01*
X30035228Y-30486259D01*
X30035232Y-30486262D01*
X30068537Y-30500674D01*
X30079187Y-30505891D01*
X30117940Y-30527195D01*
X30125615Y-30529166D01*
X30125616Y-30529166D01*
X30137562Y-30532233D01*
X30156267Y-30538637D01*
X30174855Y-30546681D01*
X30182678Y-30547920D01*
X30182688Y-30547923D01*
X30218524Y-30553599D01*
X30230144Y-30556005D01*
X30261959Y-30564173D01*
X30272970Y-30567000D01*
X30293224Y-30567000D01*
X30312934Y-30568551D01*
X30332943Y-30571720D01*
X30340835Y-30570974D01*
X30376961Y-30567559D01*
X30388819Y-30567000D01*
X30769363Y-30567000D01*
X30837484Y-30587002D01*
X30883977Y-30640658D01*
X30894081Y-30710932D01*
X30876623Y-30759115D01*
X30862458Y-30782095D01*
X30826170Y-30840966D01*
X30810885Y-30865762D01*
X30801370Y-30894450D01*
X30763914Y-31007377D01*
X30755203Y-31033639D01*
X30744500Y-31138100D01*
X30744500Y-32538900D01*
X30744837Y-32542146D01*
X30744837Y-32542150D01*
X30754752Y-32637706D01*
X30755474Y-32644666D01*
X30811450Y-32812446D01*
X30904522Y-32962848D01*
X30909704Y-32968021D01*
X30961109Y-33019337D01*
X30995188Y-33081620D01*
X30990185Y-33152440D01*
X30961265Y-33197527D01*
X30903695Y-33255197D01*
X30810885Y-33405762D01*
X30792597Y-33460900D01*
X30759715Y-33560037D01*
X30755203Y-33573639D01*
X30744500Y-33678100D01*
X30744500Y-35078900D01*
X30744837Y-35082146D01*
X30744837Y-35082150D01*
X30754752Y-35177706D01*
X30755474Y-35184666D01*
X30757655Y-35191202D01*
X30757655Y-35191204D01*
X30785239Y-35273882D01*
X30811450Y-35352446D01*
X30904522Y-35502848D01*
X31029697Y-35627805D01*
X31035927Y-35631645D01*
X31035928Y-35631646D01*
X31173288Y-35716316D01*
X31180262Y-35720615D01*
X31251366Y-35744199D01*
X31341611Y-35774132D01*
X31341613Y-35774132D01*
X31348139Y-35776297D01*
X31354975Y-35776997D01*
X31354978Y-35776998D01*
X31398031Y-35781409D01*
X31452600Y-35787000D01*
X32378400Y-35787000D01*
X32381646Y-35786663D01*
X32381650Y-35786663D01*
X32477308Y-35776738D01*
X32477312Y-35776737D01*
X32484166Y-35776026D01*
X32490702Y-35773845D01*
X32490704Y-35773845D01*
X32638931Y-35724392D01*
X32651946Y-35720050D01*
X32802348Y-35626978D01*
X32927305Y-35501803D01*
X32986768Y-35405337D01*
X33016275Y-35357468D01*
X33016276Y-35357466D01*
X33020115Y-35351238D01*
X33068677Y-35204828D01*
X33073632Y-35189889D01*
X33073632Y-35189887D01*
X33075797Y-35183361D01*
X33078006Y-35161807D01*
X33082816Y-35114857D01*
X33086500Y-35078900D01*
X33086500Y-35071926D01*
X33106502Y-35003805D01*
X33148359Y-34963474D01*
X33164028Y-34954207D01*
X33181776Y-34945512D01*
X33200617Y-34938052D01*
X33236387Y-34912064D01*
X33246307Y-34905548D01*
X33277535Y-34887080D01*
X33277538Y-34887078D01*
X33284362Y-34883042D01*
X33298683Y-34868721D01*
X33313717Y-34855880D01*
X33323694Y-34848631D01*
X33330107Y-34843972D01*
X33335157Y-34837868D01*
X33335162Y-34837863D01*
X33358293Y-34809902D01*
X33366283Y-34801121D01*
X34098501Y-34068904D01*
X34160813Y-34034879D01*
X34187596Y-34032000D01*
X34243487Y-34032000D01*
X34249939Y-34030628D01*
X34249944Y-34030628D01*
X34340336Y-34011414D01*
X34430288Y-33992294D01*
X34458654Y-33979665D01*
X34505086Y-33958992D01*
X34575453Y-33949558D01*
X34639750Y-33979665D01*
X34675859Y-34034223D01*
X34724588Y-34180284D01*
X34730761Y-34193462D01*
X34816063Y-34331307D01*
X34825099Y-34342708D01*
X34939829Y-34457239D01*
X34951240Y-34466251D01*
X35089243Y-34551316D01*
X35102424Y-34557463D01*
X35256710Y-34608638D01*
X35270086Y-34611505D01*
X35364438Y-34621172D01*
X35370854Y-34621500D01*
X35795885Y-34621500D01*
X35811124Y-34617025D01*
X35812329Y-34615635D01*
X35814000Y-34607952D01*
X35814000Y-34603384D01*
X36322000Y-34603384D01*
X36326475Y-34618623D01*
X36327865Y-34619828D01*
X36335548Y-34621499D01*
X36765095Y-34621499D01*
X36771614Y-34621162D01*
X36867206Y-34611243D01*
X36880600Y-34608351D01*
X37034784Y-34556912D01*
X37047962Y-34550739D01*
X37185807Y-34465437D01*
X37197208Y-34456401D01*
X37311739Y-34341671D01*
X37320751Y-34330260D01*
X37405816Y-34192257D01*
X37411963Y-34179076D01*
X37463138Y-34024790D01*
X37466005Y-34011414D01*
X37475672Y-33917062D01*
X37476000Y-33910646D01*
X37476000Y-33910595D01*
X38470001Y-33910595D01*
X38470338Y-33917114D01*
X38480257Y-34012706D01*
X38483149Y-34026100D01*
X38534588Y-34180284D01*
X38540761Y-34193462D01*
X38626063Y-34331307D01*
X38635099Y-34342708D01*
X38749829Y-34457239D01*
X38761240Y-34466251D01*
X38899243Y-34551316D01*
X38912424Y-34557463D01*
X39066710Y-34608638D01*
X39080086Y-34611505D01*
X39174438Y-34621172D01*
X39180854Y-34621500D01*
X39605885Y-34621500D01*
X39621124Y-34617025D01*
X39622329Y-34615635D01*
X39624000Y-34607952D01*
X39624000Y-34603384D01*
X40132000Y-34603384D01*
X40136475Y-34618623D01*
X40137865Y-34619828D01*
X40145548Y-34621499D01*
X40575095Y-34621499D01*
X40581614Y-34621162D01*
X40677206Y-34611243D01*
X40690600Y-34608351D01*
X40844784Y-34556912D01*
X40857962Y-34550739D01*
X40995807Y-34465437D01*
X41007208Y-34456401D01*
X41121739Y-34341671D01*
X41130751Y-34330260D01*
X41215816Y-34192257D01*
X41221963Y-34179076D01*
X41273138Y-34024790D01*
X41276005Y-34011414D01*
X41285672Y-33917062D01*
X41286000Y-33910646D01*
X41286000Y-33723115D01*
X41281525Y-33707876D01*
X41280135Y-33706671D01*
X41272452Y-33705000D01*
X40150115Y-33705000D01*
X40134876Y-33709475D01*
X40133671Y-33710865D01*
X40132000Y-33718548D01*
X40132000Y-34603384D01*
X39624000Y-34603384D01*
X39624000Y-33723115D01*
X39619525Y-33707876D01*
X39618135Y-33706671D01*
X39610452Y-33705000D01*
X38488116Y-33705000D01*
X38472877Y-33709475D01*
X38471672Y-33710865D01*
X38470001Y-33718548D01*
X38470001Y-33910595D01*
X37476000Y-33910595D01*
X37476000Y-33723115D01*
X37471525Y-33707876D01*
X37470135Y-33706671D01*
X37462452Y-33705000D01*
X36340115Y-33705000D01*
X36324876Y-33709475D01*
X36323671Y-33710865D01*
X36322000Y-33718548D01*
X36322000Y-34603384D01*
X35814000Y-34603384D01*
X35814000Y-33323000D01*
X35834002Y-33254879D01*
X35887658Y-33208386D01*
X35940000Y-33197000D01*
X37457884Y-33197000D01*
X37473123Y-33192525D01*
X37474328Y-33191135D01*
X37475999Y-33183452D01*
X37475999Y-33178885D01*
X38470000Y-33178885D01*
X38474475Y-33194124D01*
X38475865Y-33195329D01*
X38483548Y-33197000D01*
X39605885Y-33197000D01*
X39621124Y-33192525D01*
X39622329Y-33191135D01*
X39624000Y-33183452D01*
X39624000Y-33178885D01*
X40132000Y-33178885D01*
X40136475Y-33194124D01*
X40137865Y-33195329D01*
X40145548Y-33197000D01*
X41267884Y-33197000D01*
X41283123Y-33192525D01*
X41284328Y-33191135D01*
X41285999Y-33183452D01*
X41285999Y-32991405D01*
X41285662Y-32984886D01*
X41275743Y-32889294D01*
X41272851Y-32875900D01*
X41221412Y-32721716D01*
X41215239Y-32708538D01*
X41129937Y-32570693D01*
X41120901Y-32559292D01*
X41006171Y-32444761D01*
X40994760Y-32435749D01*
X40856757Y-32350684D01*
X40843576Y-32344537D01*
X40689290Y-32293362D01*
X40675914Y-32290495D01*
X40581562Y-32280828D01*
X40575145Y-32280500D01*
X40150115Y-32280500D01*
X40134876Y-32284975D01*
X40133671Y-32286365D01*
X40132000Y-32294048D01*
X40132000Y-33178885D01*
X39624000Y-33178885D01*
X39624000Y-32298616D01*
X39619525Y-32283377D01*
X39618135Y-32282172D01*
X39610452Y-32280501D01*
X39180905Y-32280501D01*
X39174386Y-32280838D01*
X39078794Y-32290757D01*
X39065400Y-32293649D01*
X38911216Y-32345088D01*
X38898038Y-32351261D01*
X38760193Y-32436563D01*
X38748792Y-32445599D01*
X38634261Y-32560329D01*
X38625249Y-32571740D01*
X38540184Y-32709743D01*
X38534037Y-32722924D01*
X38482862Y-32877210D01*
X38479995Y-32890586D01*
X38470328Y-32984938D01*
X38470000Y-32991355D01*
X38470000Y-33178885D01*
X37475999Y-33178885D01*
X37475999Y-32991405D01*
X37475662Y-32984886D01*
X37465743Y-32889294D01*
X37462851Y-32875900D01*
X37411412Y-32721716D01*
X37405239Y-32708538D01*
X37319937Y-32570693D01*
X37310901Y-32559292D01*
X37196171Y-32444761D01*
X37184760Y-32435749D01*
X37046757Y-32350684D01*
X37033576Y-32344537D01*
X36879290Y-32293362D01*
X36865914Y-32290495D01*
X36771562Y-32280828D01*
X36765146Y-32280500D01*
X36191094Y-32280501D01*
X36122973Y-32260499D01*
X36076480Y-32206843D01*
X36066376Y-32136570D01*
X36095869Y-32071989D01*
X36101999Y-32065406D01*
X36293500Y-31873905D01*
X36355812Y-31839879D01*
X36382595Y-31837000D01*
X39164233Y-31837000D01*
X39175416Y-31837527D01*
X39182909Y-31839202D01*
X39190835Y-31838953D01*
X39190836Y-31838953D01*
X39250986Y-31837062D01*
X39254945Y-31837000D01*
X39282856Y-31837000D01*
X39286791Y-31836503D01*
X39286856Y-31836495D01*
X39298693Y-31835562D01*
X39330951Y-31834548D01*
X39334970Y-31834422D01*
X39342889Y-31834173D01*
X39362343Y-31828521D01*
X39381700Y-31824513D01*
X39393930Y-31822968D01*
X39393931Y-31822968D01*
X39401797Y-31821974D01*
X39409168Y-31819055D01*
X39409170Y-31819055D01*
X39442912Y-31805696D01*
X39454142Y-31801851D01*
X39488983Y-31791729D01*
X39488984Y-31791729D01*
X39496593Y-31789518D01*
X39503412Y-31785485D01*
X39503417Y-31785483D01*
X39514028Y-31779207D01*
X39531776Y-31770512D01*
X39550617Y-31763052D01*
X39586387Y-31737064D01*
X39596307Y-31730548D01*
X39627535Y-31712080D01*
X39627538Y-31712078D01*
X39634362Y-31708042D01*
X39648683Y-31693721D01*
X39663717Y-31680880D01*
X39673694Y-31673631D01*
X39680107Y-31668972D01*
X39708298Y-31634895D01*
X39716288Y-31626116D01*
X41540253Y-29802152D01*
X41548539Y-29794612D01*
X41555018Y-29790500D01*
X41601644Y-29740848D01*
X41604398Y-29738007D01*
X41624135Y-29718270D01*
X41626615Y-29715073D01*
X41634320Y-29706051D01*
X41659159Y-29679600D01*
X41664586Y-29673821D01*
X41668405Y-29666875D01*
X41668407Y-29666872D01*
X41674348Y-29656066D01*
X41685199Y-29639547D01*
X41692758Y-29629801D01*
X41697614Y-29623541D01*
X41700759Y-29616272D01*
X41700762Y-29616268D01*
X41715174Y-29582963D01*
X41720391Y-29572313D01*
X41741695Y-29533560D01*
X41746733Y-29513937D01*
X41753137Y-29495234D01*
X41758033Y-29483920D01*
X41758033Y-29483919D01*
X41761181Y-29476645D01*
X41762420Y-29468822D01*
X41762423Y-29468812D01*
X41768099Y-29432976D01*
X41770505Y-29421356D01*
X41779528Y-29386211D01*
X41779528Y-29386210D01*
X41781500Y-29378530D01*
X41781500Y-29358276D01*
X41783051Y-29338565D01*
X41784980Y-29326386D01*
X41786220Y-29318557D01*
X41782059Y-29274538D01*
X41781500Y-29262681D01*
X41781500Y-25417094D01*
X41801502Y-25348973D01*
X41855158Y-25302480D01*
X41925432Y-25292376D01*
X41990012Y-25321870D01*
X41996595Y-25327999D01*
X42942798Y-26274202D01*
X42976824Y-26336514D01*
X42971759Y-26407329D01*
X42960964Y-26429411D01*
X42950885Y-26445762D01*
X42937415Y-26486372D01*
X42897879Y-26605572D01*
X42895203Y-26613639D01*
X42894503Y-26620475D01*
X42894502Y-26620478D01*
X42890091Y-26663531D01*
X42884500Y-26718100D01*
X42884500Y-28068900D01*
X42884837Y-28072146D01*
X42884837Y-28072150D01*
X42894629Y-28166521D01*
X42895474Y-28174666D01*
X42897655Y-28181202D01*
X42897655Y-28181204D01*
X42922275Y-28254999D01*
X42951450Y-28342446D01*
X43044522Y-28492848D01*
X43169697Y-28617805D01*
X43175927Y-28621645D01*
X43175928Y-28621646D01*
X43313090Y-28706194D01*
X43320262Y-28710615D01*
X43363306Y-28724892D01*
X43481611Y-28764132D01*
X43481613Y-28764132D01*
X43488139Y-28766297D01*
X43494975Y-28766997D01*
X43494978Y-28766998D01*
X43538031Y-28771409D01*
X43592600Y-28777000D01*
X44493400Y-28777000D01*
X44496646Y-28776663D01*
X44496650Y-28776663D01*
X44592308Y-28766738D01*
X44592312Y-28766737D01*
X44599166Y-28766026D01*
X44605702Y-28763845D01*
X44605704Y-28763845D01*
X44745575Y-28717180D01*
X44766946Y-28710050D01*
X44917348Y-28616978D01*
X45042305Y-28491803D01*
X45135115Y-28341238D01*
X45190797Y-28173361D01*
X45194357Y-28138621D01*
X45199551Y-28087920D01*
X45201500Y-28068900D01*
X45984500Y-28068900D01*
X45984837Y-28072146D01*
X45984837Y-28072150D01*
X45994629Y-28166521D01*
X45995474Y-28174666D01*
X45997655Y-28181202D01*
X45997655Y-28181204D01*
X46022275Y-28254999D01*
X46051450Y-28342446D01*
X46144522Y-28492848D01*
X46269697Y-28617805D01*
X46275927Y-28621645D01*
X46275928Y-28621646D01*
X46413090Y-28706194D01*
X46420262Y-28710615D01*
X46463306Y-28724892D01*
X46581611Y-28764132D01*
X46581613Y-28764132D01*
X46588139Y-28766297D01*
X46594975Y-28766997D01*
X46594978Y-28766998D01*
X46638031Y-28771409D01*
X46692600Y-28777000D01*
X47593400Y-28777000D01*
X47596646Y-28776663D01*
X47596650Y-28776663D01*
X47692308Y-28766738D01*
X47692312Y-28766737D01*
X47699166Y-28766026D01*
X47705702Y-28763845D01*
X47705704Y-28763845D01*
X47845575Y-28717180D01*
X47866946Y-28710050D01*
X48017348Y-28616978D01*
X48142305Y-28491803D01*
X48235115Y-28341238D01*
X48290797Y-28173361D01*
X48294199Y-28140158D01*
X48321040Y-28074430D01*
X48379155Y-28033648D01*
X48419543Y-28027000D01*
X49964800Y-28027000D01*
X50032921Y-28047002D01*
X50052147Y-28063343D01*
X50052420Y-28063040D01*
X50057332Y-28067463D01*
X50061747Y-28072366D01*
X50068650Y-28077381D01*
X50208359Y-28178886D01*
X50216248Y-28184618D01*
X50222276Y-28187302D01*
X50222278Y-28187303D01*
X50368411Y-28252365D01*
X50390712Y-28262294D01*
X50484113Y-28282147D01*
X50571056Y-28300628D01*
X50571061Y-28300628D01*
X50577513Y-28302000D01*
X50768487Y-28302000D01*
X50774939Y-28300628D01*
X50774944Y-28300628D01*
X50861888Y-28282147D01*
X50955288Y-28262294D01*
X50977589Y-28252365D01*
X51123722Y-28187303D01*
X51123724Y-28187302D01*
X51129752Y-28184618D01*
X51137642Y-28178886D01*
X51216422Y-28121648D01*
X51284253Y-28072366D01*
X51288675Y-28067455D01*
X51407621Y-27935352D01*
X51407622Y-27935351D01*
X51412040Y-27930444D01*
X51483842Y-27806079D01*
X51504223Y-27770779D01*
X51504224Y-27770778D01*
X51507527Y-27765056D01*
X51566542Y-27583428D01*
X51584867Y-27409080D01*
X51585814Y-27400065D01*
X51586504Y-27393500D01*
X51573881Y-27273397D01*
X51567232Y-27210135D01*
X51567232Y-27210133D01*
X51566542Y-27203572D01*
X51507527Y-27021944D01*
X51412040Y-26856556D01*
X51389851Y-26831912D01*
X51288675Y-26719545D01*
X51288674Y-26719544D01*
X51284253Y-26714634D01*
X51151277Y-26618021D01*
X51135094Y-26606263D01*
X51135093Y-26606262D01*
X51129752Y-26602382D01*
X51123724Y-26599698D01*
X51123722Y-26599697D01*
X50961319Y-26527391D01*
X50961318Y-26527391D01*
X50955288Y-26524706D01*
X50861888Y-26504853D01*
X50774944Y-26486372D01*
X50774939Y-26486372D01*
X50768487Y-26485000D01*
X50577513Y-26485000D01*
X50571061Y-26486372D01*
X50571056Y-26486372D01*
X50484113Y-26504853D01*
X50390712Y-26524706D01*
X50384682Y-26527391D01*
X50384681Y-26527391D01*
X50222278Y-26599697D01*
X50222276Y-26599698D01*
X50216248Y-26602382D01*
X50210907Y-26606262D01*
X50210906Y-26606263D01*
X50194723Y-26618021D01*
X50061747Y-26714634D01*
X50057332Y-26719537D01*
X50052420Y-26723960D01*
X50051295Y-26722711D01*
X49997986Y-26755551D01*
X49964800Y-26760000D01*
X48419450Y-26760000D01*
X48351329Y-26739998D01*
X48304836Y-26686342D01*
X48294123Y-26647003D01*
X48291238Y-26619192D01*
X48291237Y-26619188D01*
X48290526Y-26612334D01*
X48285620Y-26597627D01*
X48238130Y-26455284D01*
X48234550Y-26444554D01*
X48141478Y-26294152D01*
X48032732Y-26185595D01*
X58735001Y-26185595D01*
X58735338Y-26192114D01*
X58745257Y-26287706D01*
X58748149Y-26301100D01*
X58799588Y-26455284D01*
X58805761Y-26468462D01*
X58891063Y-26606307D01*
X58900099Y-26617708D01*
X59014829Y-26732239D01*
X59026240Y-26741251D01*
X59164243Y-26826316D01*
X59177424Y-26832463D01*
X59331710Y-26883638D01*
X59345086Y-26886505D01*
X59439438Y-26896172D01*
X59445854Y-26896500D01*
X59633385Y-26896500D01*
X59648624Y-26892025D01*
X59649829Y-26890635D01*
X59651500Y-26882952D01*
X59651500Y-26878384D01*
X60159500Y-26878384D01*
X60163975Y-26893623D01*
X60165365Y-26894828D01*
X60173048Y-26896499D01*
X60365095Y-26896499D01*
X60371614Y-26896162D01*
X60467206Y-26886243D01*
X60480600Y-26883351D01*
X60634784Y-26831912D01*
X60647962Y-26825739D01*
X60785807Y-26740437D01*
X60797208Y-26731401D01*
X60911739Y-26616671D01*
X60920751Y-26605260D01*
X61005816Y-26467257D01*
X61011963Y-26454076D01*
X61063138Y-26299790D01*
X61066005Y-26286414D01*
X61075672Y-26192062D01*
X61076000Y-26185646D01*
X61076000Y-25760615D01*
X61071525Y-25745376D01*
X61070135Y-25744171D01*
X61062452Y-25742500D01*
X60177615Y-25742500D01*
X60162376Y-25746975D01*
X60161171Y-25748365D01*
X60159500Y-25756048D01*
X60159500Y-26878384D01*
X59651500Y-26878384D01*
X59651500Y-25760615D01*
X59647025Y-25745376D01*
X59645635Y-25744171D01*
X59637952Y-25742500D01*
X58753116Y-25742500D01*
X58737877Y-25746975D01*
X58736672Y-25748365D01*
X58735001Y-25756048D01*
X58735001Y-26185595D01*
X48032732Y-26185595D01*
X48016303Y-26169195D01*
X48002415Y-26160634D01*
X47871968Y-26080225D01*
X47871966Y-26080224D01*
X47865738Y-26076385D01*
X47705254Y-26023155D01*
X47704389Y-26022868D01*
X47704387Y-26022868D01*
X47697861Y-26020703D01*
X47691025Y-26020003D01*
X47691022Y-26020002D01*
X47647969Y-26015591D01*
X47593400Y-26010000D01*
X46692600Y-26010000D01*
X46689354Y-26010337D01*
X46689350Y-26010337D01*
X46593692Y-26020262D01*
X46593688Y-26020263D01*
X46586834Y-26020974D01*
X46580298Y-26023155D01*
X46580296Y-26023155D01*
X46499740Y-26050031D01*
X46419054Y-26076950D01*
X46268652Y-26170022D01*
X46143695Y-26295197D01*
X46139855Y-26301427D01*
X46139854Y-26301428D01*
X46056756Y-26436238D01*
X46050885Y-26445762D01*
X46037415Y-26486372D01*
X45997879Y-26605572D01*
X45995203Y-26613639D01*
X45994503Y-26620475D01*
X45994502Y-26620478D01*
X45990091Y-26663531D01*
X45984500Y-26718100D01*
X45984500Y-28068900D01*
X45201500Y-28068900D01*
X45201500Y-26718100D01*
X45201163Y-26714850D01*
X45191238Y-26619192D01*
X45191237Y-26619188D01*
X45190526Y-26612334D01*
X45185620Y-26597627D01*
X45138130Y-26455284D01*
X45134550Y-26444554D01*
X45041478Y-26294152D01*
X44916303Y-26169195D01*
X44902415Y-26160634D01*
X44771968Y-26080225D01*
X44771966Y-26080224D01*
X44765738Y-26076385D01*
X44605254Y-26023155D01*
X44604389Y-26022868D01*
X44604387Y-26022868D01*
X44597861Y-26020703D01*
X44591023Y-26020002D01*
X44591021Y-26020002D01*
X44561305Y-26016957D01*
X44512350Y-26011942D01*
X44446624Y-25985101D01*
X44436098Y-25975693D01*
X43676790Y-25216385D01*
X58735000Y-25216385D01*
X58739475Y-25231624D01*
X58740865Y-25232829D01*
X58748548Y-25234500D01*
X59633385Y-25234500D01*
X59648624Y-25230025D01*
X59649829Y-25228635D01*
X59651500Y-25220952D01*
X59651500Y-24098616D01*
X59647025Y-24083377D01*
X59645635Y-24082172D01*
X59637952Y-24080501D01*
X59445905Y-24080501D01*
X59439386Y-24080838D01*
X59343794Y-24090757D01*
X59330400Y-24093649D01*
X59176216Y-24145088D01*
X59163038Y-24151261D01*
X59025193Y-24236563D01*
X59013792Y-24245599D01*
X58899261Y-24360329D01*
X58890249Y-24371740D01*
X58805184Y-24509743D01*
X58799037Y-24522924D01*
X58747862Y-24677210D01*
X58744995Y-24690586D01*
X58735328Y-24784938D01*
X58735000Y-24791355D01*
X58735000Y-25216385D01*
X43676790Y-25216385D01*
X43642500Y-25182095D01*
X43608474Y-25119783D01*
X43613539Y-25048968D01*
X43656086Y-24992132D01*
X43722606Y-24967321D01*
X43731595Y-24967000D01*
X44493400Y-24967000D01*
X44496646Y-24966663D01*
X44496650Y-24966663D01*
X44592308Y-24956738D01*
X44592312Y-24956737D01*
X44599166Y-24956026D01*
X44605702Y-24953845D01*
X44605704Y-24953845D01*
X44755757Y-24903783D01*
X44766946Y-24900050D01*
X44917348Y-24806978D01*
X45042305Y-24681803D01*
X45091072Y-24602689D01*
X45131275Y-24537468D01*
X45131276Y-24537466D01*
X45135115Y-24531238D01*
X45183729Y-24384670D01*
X45188632Y-24369889D01*
X45188632Y-24369887D01*
X45190797Y-24363361D01*
X45191869Y-24352904D01*
X45200342Y-24270204D01*
X45201500Y-24258900D01*
X45984500Y-24258900D01*
X45984837Y-24262146D01*
X45984837Y-24262150D01*
X45994629Y-24356521D01*
X45995474Y-24364666D01*
X45997655Y-24371202D01*
X45997655Y-24371204D01*
X46006296Y-24397104D01*
X46051450Y-24532446D01*
X46144522Y-24682848D01*
X46269697Y-24807805D01*
X46275927Y-24811645D01*
X46275928Y-24811646D01*
X46413090Y-24896194D01*
X46420262Y-24900615D01*
X46481248Y-24920843D01*
X46581611Y-24954132D01*
X46581613Y-24954132D01*
X46588139Y-24956297D01*
X46594975Y-24956997D01*
X46594978Y-24956998D01*
X46638031Y-24961409D01*
X46692600Y-24967000D01*
X47593400Y-24967000D01*
X47596646Y-24966663D01*
X47596650Y-24966663D01*
X47692308Y-24956738D01*
X47692312Y-24956737D01*
X47699166Y-24956026D01*
X47705702Y-24953845D01*
X47705704Y-24953845D01*
X47855757Y-24903783D01*
X47866946Y-24900050D01*
X48017348Y-24806978D01*
X48142305Y-24681803D01*
X48191072Y-24602689D01*
X48231275Y-24537468D01*
X48231276Y-24537466D01*
X48235115Y-24531238D01*
X48283729Y-24384670D01*
X48288632Y-24369889D01*
X48288632Y-24369887D01*
X48290797Y-24363361D01*
X48291869Y-24352904D01*
X48294199Y-24330158D01*
X48321040Y-24264430D01*
X48379155Y-24223648D01*
X48419543Y-24217000D01*
X49964800Y-24217000D01*
X50032921Y-24237002D01*
X50052147Y-24253343D01*
X50052420Y-24253040D01*
X50057332Y-24257463D01*
X50061747Y-24262366D01*
X50067357Y-24266442D01*
X50191340Y-24356521D01*
X50216248Y-24374618D01*
X50222276Y-24377302D01*
X50222278Y-24377303D01*
X50384681Y-24449609D01*
X50390712Y-24452294D01*
X50475503Y-24470317D01*
X50571056Y-24490628D01*
X50571061Y-24490628D01*
X50577513Y-24492000D01*
X50768487Y-24492000D01*
X50774939Y-24490628D01*
X50774944Y-24490628D01*
X50870497Y-24470317D01*
X50955288Y-24452294D01*
X50961319Y-24449609D01*
X51123722Y-24377303D01*
X51123724Y-24377302D01*
X51129752Y-24374618D01*
X51284253Y-24262366D01*
X51288675Y-24257455D01*
X51407621Y-24125352D01*
X51407622Y-24125351D01*
X51412040Y-24120444D01*
X51507527Y-23955056D01*
X51566542Y-23773428D01*
X51586504Y-23583500D01*
X51581713Y-23537920D01*
X51567232Y-23400135D01*
X51567232Y-23400133D01*
X51566542Y-23393572D01*
X51507527Y-23211944D01*
X51474432Y-23154621D01*
X51435102Y-23086500D01*
X51412040Y-23046556D01*
X51368100Y-22997755D01*
X51288675Y-22909545D01*
X51288674Y-22909544D01*
X51284253Y-22904634D01*
X51142102Y-22801355D01*
X51135094Y-22796263D01*
X51135093Y-22796262D01*
X51129752Y-22792382D01*
X51123724Y-22789698D01*
X51123722Y-22789697D01*
X50961319Y-22717391D01*
X50961318Y-22717391D01*
X50955288Y-22714706D01*
X50843535Y-22690952D01*
X50774944Y-22676372D01*
X50774939Y-22676372D01*
X50768487Y-22675000D01*
X50577513Y-22675000D01*
X50571061Y-22676372D01*
X50571056Y-22676372D01*
X50502465Y-22690952D01*
X50390712Y-22714706D01*
X50384682Y-22717391D01*
X50384681Y-22717391D01*
X50222278Y-22789697D01*
X50222276Y-22789698D01*
X50216248Y-22792382D01*
X50210907Y-22796262D01*
X50210906Y-22796263D01*
X50203898Y-22801355D01*
X50061747Y-22904634D01*
X50057332Y-22909537D01*
X50052420Y-22913960D01*
X50051295Y-22912711D01*
X49997986Y-22945551D01*
X49964800Y-22950000D01*
X48419450Y-22950000D01*
X48351329Y-22929998D01*
X48304836Y-22876342D01*
X48294123Y-22837003D01*
X48291238Y-22809192D01*
X48291237Y-22809188D01*
X48290526Y-22802334D01*
X48271268Y-22744609D01*
X48236868Y-22641502D01*
X48234550Y-22634554D01*
X48141478Y-22484152D01*
X48016303Y-22359195D01*
X47999610Y-22348905D01*
X47871968Y-22270225D01*
X47871966Y-22270224D01*
X47865738Y-22266385D01*
X47749130Y-22227708D01*
X47704389Y-22212868D01*
X47704387Y-22212868D01*
X47697861Y-22210703D01*
X47691025Y-22210003D01*
X47691022Y-22210002D01*
X47647969Y-22205591D01*
X47593400Y-22200000D01*
X46692600Y-22200000D01*
X46689354Y-22200337D01*
X46689350Y-22200337D01*
X46593692Y-22210262D01*
X46593688Y-22210263D01*
X46586834Y-22210974D01*
X46580298Y-22213155D01*
X46580296Y-22213155D01*
X46536676Y-22227708D01*
X46419054Y-22266950D01*
X46268652Y-22360022D01*
X46143695Y-22485197D01*
X46139855Y-22491427D01*
X46139854Y-22491428D01*
X46074764Y-22597024D01*
X46050885Y-22635762D01*
X45995203Y-22803639D01*
X45994503Y-22810475D01*
X45994502Y-22810478D01*
X45990091Y-22853531D01*
X45984500Y-22908100D01*
X45984500Y-24258900D01*
X45201500Y-24258900D01*
X45201500Y-22908100D01*
X45201163Y-22904850D01*
X45191238Y-22809192D01*
X45191237Y-22809188D01*
X45190526Y-22802334D01*
X45171268Y-22744609D01*
X45136868Y-22641502D01*
X45134550Y-22634554D01*
X45041478Y-22484152D01*
X44916303Y-22359195D01*
X44899610Y-22348905D01*
X44771968Y-22270225D01*
X44771966Y-22270224D01*
X44765738Y-22266385D01*
X44649130Y-22227708D01*
X44604389Y-22212868D01*
X44604387Y-22212868D01*
X44597861Y-22210703D01*
X44591025Y-22210003D01*
X44591022Y-22210002D01*
X44547969Y-22205591D01*
X44493400Y-22200000D01*
X43607595Y-22200000D01*
X43539474Y-22179998D01*
X43518499Y-22163095D01*
X43081944Y-21726539D01*
X42641647Y-21286242D01*
X42634113Y-21277963D01*
X42630000Y-21271482D01*
X42580348Y-21224856D01*
X42577507Y-21222102D01*
X42557770Y-21202365D01*
X42554573Y-21199885D01*
X42545551Y-21192180D01*
X42541397Y-21188279D01*
X42513321Y-21161914D01*
X42506375Y-21158095D01*
X42506372Y-21158093D01*
X42495566Y-21152152D01*
X42479047Y-21141301D01*
X42478583Y-21140941D01*
X42463041Y-21128886D01*
X42455772Y-21125741D01*
X42455768Y-21125738D01*
X42422463Y-21111326D01*
X42411813Y-21106109D01*
X42373060Y-21084805D01*
X42362136Y-21082000D01*
X42355627Y-21080329D01*
X42353437Y-21079767D01*
X42334734Y-21073363D01*
X42323420Y-21068467D01*
X42323419Y-21068467D01*
X42316145Y-21065319D01*
X42308322Y-21064080D01*
X42308312Y-21064077D01*
X42272476Y-21058401D01*
X42260856Y-21055995D01*
X42225711Y-21046972D01*
X42225710Y-21046972D01*
X42218030Y-21045000D01*
X42197776Y-21045000D01*
X42178065Y-21043449D01*
X42165886Y-21041520D01*
X42158057Y-21040280D01*
X42128786Y-21043047D01*
X42114039Y-21044441D01*
X42102181Y-21045000D01*
X37416768Y-21045000D01*
X37405585Y-21044473D01*
X37398092Y-21042798D01*
X37390166Y-21043047D01*
X37390165Y-21043047D01*
X37330002Y-21044938D01*
X37326044Y-21045000D01*
X37298144Y-21045000D01*
X37294154Y-21045504D01*
X37282320Y-21046436D01*
X37238111Y-21047826D01*
X37230495Y-21050039D01*
X37230493Y-21050039D01*
X37218652Y-21053479D01*
X37199293Y-21057488D01*
X37197983Y-21057654D01*
X37179203Y-21060026D01*
X37171837Y-21062942D01*
X37171831Y-21062944D01*
X37138098Y-21076300D01*
X37126868Y-21080145D01*
X37110828Y-21084805D01*
X37084407Y-21092481D01*
X37077584Y-21096516D01*
X37066966Y-21102795D01*
X37049213Y-21111492D01*
X37041568Y-21114519D01*
X37030383Y-21118948D01*
X37016705Y-21128886D01*
X36994612Y-21144937D01*
X36984695Y-21151451D01*
X36946638Y-21173958D01*
X36932317Y-21188279D01*
X36917284Y-21201119D01*
X36900893Y-21213028D01*
X36877426Y-21241395D01*
X36872712Y-21247093D01*
X36864722Y-21255874D01*
X36310742Y-21809853D01*
X36302463Y-21817387D01*
X36295982Y-21821500D01*
X36249357Y-21871151D01*
X36246602Y-21873993D01*
X36226865Y-21893730D01*
X36224385Y-21896927D01*
X36216682Y-21905947D01*
X36186414Y-21938179D01*
X36182595Y-21945125D01*
X36182593Y-21945128D01*
X36176652Y-21955934D01*
X36165801Y-21972453D01*
X36153386Y-21988459D01*
X36150241Y-21995728D01*
X36150238Y-21995732D01*
X36135826Y-22029037D01*
X36130609Y-22039687D01*
X36109305Y-22078440D01*
X36107334Y-22086115D01*
X36107334Y-22086116D01*
X36104267Y-22098062D01*
X36097863Y-22116766D01*
X36089819Y-22135355D01*
X36088580Y-22143178D01*
X36088577Y-22143188D01*
X36082901Y-22179024D01*
X36080495Y-22190644D01*
X36072369Y-22222297D01*
X36069500Y-22233470D01*
X36069500Y-22253724D01*
X36067949Y-22273434D01*
X36064780Y-22293443D01*
X36065526Y-22301335D01*
X36068941Y-22337461D01*
X36069500Y-22349319D01*
X36069500Y-24139733D01*
X36068973Y-24150916D01*
X36067298Y-24158409D01*
X36067547Y-24166335D01*
X36067547Y-24166336D01*
X36069438Y-24226486D01*
X36069500Y-24230445D01*
X36069500Y-24258356D01*
X36069997Y-24262290D01*
X36069997Y-24262291D01*
X36070005Y-24262356D01*
X36070938Y-24274193D01*
X36072327Y-24318389D01*
X36077978Y-24337839D01*
X36081987Y-24357200D01*
X36084526Y-24377297D01*
X36087445Y-24384668D01*
X36087445Y-24384670D01*
X36100804Y-24418412D01*
X36104649Y-24429642D01*
X36114771Y-24464483D01*
X36116982Y-24472093D01*
X36121015Y-24478912D01*
X36121017Y-24478917D01*
X36127293Y-24489528D01*
X36135988Y-24507276D01*
X36143448Y-24526117D01*
X36148110Y-24532533D01*
X36148110Y-24532534D01*
X36169436Y-24561887D01*
X36175952Y-24571807D01*
X36194216Y-24602689D01*
X36198458Y-24609862D01*
X36212779Y-24624183D01*
X36225619Y-24639216D01*
X36237528Y-24655607D01*
X36264644Y-24678039D01*
X36271605Y-24683798D01*
X36280384Y-24691788D01*
X37129343Y-25540747D01*
X37136887Y-25549037D01*
X37141000Y-25555518D01*
X37146777Y-25560943D01*
X37190667Y-25602158D01*
X37193509Y-25604913D01*
X37213231Y-25624635D01*
X37216355Y-25627058D01*
X37216359Y-25627062D01*
X37216424Y-25627112D01*
X37225445Y-25634817D01*
X37257679Y-25665086D01*
X37264627Y-25668905D01*
X37264629Y-25668907D01*
X37275432Y-25674846D01*
X37291959Y-25685702D01*
X37301698Y-25693257D01*
X37301700Y-25693258D01*
X37307960Y-25698114D01*
X37348540Y-25715674D01*
X37359188Y-25720891D01*
X37397940Y-25742195D01*
X37405616Y-25744166D01*
X37405619Y-25744167D01*
X37417562Y-25747233D01*
X37436266Y-25753637D01*
X37441838Y-25756048D01*
X37454855Y-25761681D01*
X37462678Y-25762920D01*
X37462688Y-25762923D01*
X37498524Y-25768599D01*
X37510144Y-25771005D01*
X37545289Y-25780028D01*
X37552970Y-25782000D01*
X37573224Y-25782000D01*
X37592934Y-25783551D01*
X37612943Y-25786720D01*
X37620835Y-25785974D01*
X37656961Y-25782559D01*
X37668819Y-25782000D01*
X37833500Y-25782000D01*
X37901621Y-25802002D01*
X37948114Y-25855658D01*
X37959500Y-25908000D01*
X37959500Y-26046634D01*
X37959869Y-26050031D01*
X37966255Y-26108816D01*
X37963826Y-26109080D01*
X37963826Y-26137920D01*
X37966255Y-26138184D01*
X37961202Y-26184703D01*
X37959500Y-26200366D01*
X37959500Y-26696634D01*
X37959869Y-26700031D01*
X37966255Y-26758816D01*
X37963826Y-26759080D01*
X37963826Y-26787920D01*
X37966255Y-26788184D01*
X37959500Y-26850366D01*
X37959500Y-27346634D01*
X37959869Y-27350031D01*
X37966255Y-27408816D01*
X37963826Y-27409080D01*
X37963826Y-27437920D01*
X37966255Y-27438184D01*
X37959500Y-27500366D01*
X37959500Y-27996634D01*
X37959869Y-28000031D01*
X37966255Y-28058816D01*
X37963826Y-28059080D01*
X37963826Y-28087920D01*
X37966255Y-28088184D01*
X37959500Y-28150366D01*
X37959500Y-28646634D01*
X37959869Y-28650031D01*
X37966255Y-28708816D01*
X37963826Y-28709080D01*
X37963826Y-28737920D01*
X37966255Y-28738184D01*
X37959500Y-28800366D01*
X37959500Y-29108905D01*
X37939498Y-29177026D01*
X37922595Y-29198000D01*
X37857500Y-29263095D01*
X37795188Y-29297121D01*
X37768405Y-29300000D01*
X37602800Y-29300000D01*
X37534679Y-29279998D01*
X37488186Y-29226342D01*
X37478082Y-29156068D01*
X37493681Y-29111000D01*
X37534223Y-29040779D01*
X37534224Y-29040778D01*
X37537527Y-29035056D01*
X37596542Y-28853428D01*
X37601899Y-28802464D01*
X37615814Y-28670065D01*
X37616504Y-28663500D01*
X37612105Y-28621646D01*
X37597232Y-28480135D01*
X37597232Y-28480133D01*
X37596542Y-28473572D01*
X37537527Y-28291944D01*
X37522804Y-28266442D01*
X37491322Y-28211914D01*
X37442040Y-28126556D01*
X37436305Y-28120186D01*
X37318675Y-27989545D01*
X37318674Y-27989544D01*
X37314253Y-27984634D01*
X37159752Y-27872382D01*
X37153724Y-27869698D01*
X37153722Y-27869697D01*
X36991319Y-27797391D01*
X36991318Y-27797391D01*
X36985288Y-27794706D01*
X36871437Y-27770506D01*
X36804944Y-27756372D01*
X36804939Y-27756372D01*
X36798487Y-27755000D01*
X36607513Y-27755000D01*
X36601053Y-27756373D01*
X36601054Y-27756373D01*
X36562535Y-27764560D01*
X36522800Y-27766225D01*
X36518030Y-27765000D01*
X36497776Y-27765000D01*
X36478065Y-27763449D01*
X36475559Y-27763052D01*
X36458057Y-27760280D01*
X36424269Y-27763474D01*
X36414039Y-27764441D01*
X36402181Y-27765000D01*
X34302500Y-27765000D01*
X34234379Y-27744998D01*
X34187886Y-27691342D01*
X34176500Y-27639000D01*
X34176500Y-27500366D01*
X34169745Y-27438184D01*
X34172174Y-27437920D01*
X34172174Y-27409080D01*
X34169745Y-27408816D01*
X34176131Y-27350031D01*
X34176500Y-27346634D01*
X34176500Y-26850366D01*
X34169745Y-26788184D01*
X34172174Y-26787920D01*
X34172174Y-26759080D01*
X34169745Y-26758816D01*
X34176131Y-26700031D01*
X34176500Y-26696634D01*
X34176500Y-26200366D01*
X34174799Y-26184703D01*
X34169745Y-26138184D01*
X34172174Y-26137920D01*
X34172174Y-26109080D01*
X34169745Y-26108816D01*
X34176131Y-26050031D01*
X34176500Y-26046634D01*
X34176500Y-25550366D01*
X34169745Y-25488184D01*
X34172174Y-25487920D01*
X34172174Y-25459080D01*
X34169745Y-25458816D01*
X34176131Y-25400031D01*
X34176500Y-25396634D01*
X34176500Y-24900366D01*
X34169745Y-24838184D01*
X34172174Y-24837920D01*
X34172174Y-24809080D01*
X34169745Y-24808816D01*
X34176131Y-24750031D01*
X34176500Y-24746634D01*
X34176500Y-24250366D01*
X34174779Y-24234519D01*
X34169745Y-24188184D01*
X34172174Y-24187920D01*
X34172174Y-24159080D01*
X34169745Y-24158816D01*
X34176131Y-24100031D01*
X34176500Y-24096634D01*
X34176500Y-23600366D01*
X34169745Y-23538184D01*
X34172174Y-23537920D01*
X34172174Y-23509080D01*
X34169745Y-23508816D01*
X34176131Y-23450031D01*
X34176500Y-23446634D01*
X34176500Y-22950366D01*
X34169745Y-22888184D01*
X34118615Y-22751795D01*
X34031261Y-22635239D01*
X33914705Y-22547885D01*
X33778316Y-22496755D01*
X33716134Y-22490000D01*
X32619866Y-22490000D01*
X32557684Y-22496755D01*
X32421295Y-22547885D01*
X32418158Y-22550236D01*
X32360450Y-22565000D01*
X26947594Y-22565000D01*
X26879473Y-22544998D01*
X26858499Y-22528095D01*
X25999861Y-21669457D01*
X25965835Y-21607145D01*
X25969928Y-21539029D01*
X25992894Y-21472894D01*
X25992895Y-21472892D01*
X25994861Y-21467229D01*
X26011219Y-21354409D01*
X26024352Y-21263836D01*
X26024352Y-21263833D01*
X26025213Y-21257896D01*
X26015433Y-21046601D01*
X25965875Y-20840966D01*
X25952905Y-20812439D01*
X25880806Y-20653868D01*
X25878326Y-20648413D01*
X25755946Y-20475889D01*
X25751619Y-20471747D01*
X25751614Y-20471741D01*
X25660683Y-20384694D01*
X25625306Y-20323139D01*
X25628825Y-20252230D01*
X25670121Y-20194479D01*
X25681504Y-20186535D01*
X25737348Y-20151978D01*
X25862305Y-20026803D01*
X25942389Y-19896884D01*
X25995162Y-19849390D01*
X26049649Y-19837000D01*
X56430906Y-19837000D01*
X56499027Y-19857002D01*
X56520001Y-19873905D01*
X60516935Y-23870839D01*
X60550961Y-23933151D01*
X60545896Y-24003966D01*
X60503349Y-24060802D01*
X60436829Y-24085613D01*
X60414998Y-24085278D01*
X60371562Y-24080828D01*
X60365145Y-24080500D01*
X60177615Y-24080500D01*
X60162376Y-24084975D01*
X60161171Y-24086365D01*
X60159500Y-24094048D01*
X60159500Y-25216385D01*
X60163975Y-25231624D01*
X60165365Y-25232829D01*
X60173048Y-25234500D01*
X61057884Y-25234500D01*
X61073123Y-25230025D01*
X61074328Y-25228635D01*
X61075999Y-25220952D01*
X61075999Y-24791405D01*
X61075662Y-24784886D01*
X61071170Y-24741594D01*
X61084035Y-24671773D01*
X61132606Y-24619991D01*
X61201462Y-24602689D01*
X61268742Y-24625360D01*
X61285592Y-24639496D01*
X61822595Y-25176499D01*
X61856621Y-25238811D01*
X61859500Y-25265594D01*
X61859500Y-26188900D01*
X61859837Y-26192146D01*
X61859837Y-26192150D01*
X61869752Y-26287706D01*
X61870474Y-26294666D01*
X61872655Y-26301202D01*
X61872655Y-26301204D01*
X61887143Y-26344629D01*
X61926450Y-26462446D01*
X62019522Y-26612848D01*
X62144697Y-26737805D01*
X62150927Y-26741645D01*
X62150928Y-26741646D01*
X62288288Y-26826316D01*
X62295262Y-26830615D01*
X62344568Y-26846969D01*
X62456611Y-26884132D01*
X62456613Y-26884132D01*
X62463139Y-26886297D01*
X62469975Y-26886997D01*
X62469978Y-26886998D01*
X62513031Y-26891409D01*
X62567600Y-26897000D01*
X63493400Y-26897000D01*
X63496646Y-26896663D01*
X63496650Y-26896663D01*
X63592308Y-26886738D01*
X63592312Y-26886737D01*
X63599166Y-26886026D01*
X63605702Y-26883845D01*
X63605704Y-26883845D01*
X63737806Y-26839772D01*
X63766946Y-26830050D01*
X63917348Y-26736978D01*
X64042305Y-26611803D01*
X64051043Y-26597627D01*
X64131275Y-26467468D01*
X64131276Y-26467466D01*
X64135115Y-26461238D01*
X64179850Y-26326366D01*
X64188632Y-26299889D01*
X64188632Y-26299887D01*
X64190797Y-26293361D01*
X64193225Y-26269666D01*
X64196761Y-26235156D01*
X64223603Y-26169429D01*
X64281718Y-26128648D01*
X64322105Y-26122000D01*
X64991550Y-26122000D01*
X65059671Y-26142002D01*
X65106164Y-26195658D01*
X65116877Y-26234996D01*
X65120474Y-26269666D01*
X65122655Y-26276202D01*
X65122655Y-26276204D01*
X65131656Y-26303183D01*
X65176450Y-26437446D01*
X65269522Y-26587848D01*
X65394697Y-26712805D01*
X65400927Y-26716645D01*
X65400928Y-26716646D01*
X65538090Y-26801194D01*
X65545262Y-26805615D01*
X65605934Y-26825739D01*
X65706611Y-26859132D01*
X65706613Y-26859132D01*
X65713139Y-26861297D01*
X65719975Y-26861997D01*
X65719978Y-26861998D01*
X65763031Y-26866409D01*
X65817600Y-26872000D01*
X66718400Y-26872000D01*
X66721646Y-26871663D01*
X66721650Y-26871663D01*
X66817308Y-26861738D01*
X66817312Y-26861737D01*
X66824166Y-26861026D01*
X66830702Y-26858845D01*
X66830704Y-26858845D01*
X66962806Y-26814772D01*
X66991946Y-26805050D01*
X67142348Y-26711978D01*
X67267305Y-26586803D01*
X67282561Y-26562053D01*
X67356275Y-26442468D01*
X67356276Y-26442466D01*
X67360115Y-26436238D01*
X67408614Y-26290017D01*
X67413632Y-26274889D01*
X67413632Y-26274887D01*
X67415797Y-26268361D01*
X67419216Y-26234997D01*
X67423246Y-26195658D01*
X67426500Y-26163900D01*
X67426500Y-24813100D01*
X67421777Y-24767578D01*
X67416238Y-24714192D01*
X67416237Y-24714188D01*
X67415526Y-24707334D01*
X67410340Y-24691788D01*
X67361868Y-24546502D01*
X67359550Y-24539554D01*
X67266478Y-24389152D01*
X67141303Y-24264195D01*
X67132713Y-24258900D01*
X66996968Y-24175225D01*
X66996966Y-24175224D01*
X66990738Y-24171385D01*
X66895310Y-24139733D01*
X66829389Y-24117868D01*
X66829387Y-24117868D01*
X66822861Y-24115703D01*
X66816025Y-24115003D01*
X66816022Y-24115002D01*
X66767034Y-24109983D01*
X66718400Y-24105000D01*
X65817600Y-24105000D01*
X65814354Y-24105337D01*
X65814350Y-24105337D01*
X65718692Y-24115262D01*
X65718688Y-24115263D01*
X65711834Y-24115974D01*
X65705298Y-24118155D01*
X65705296Y-24118155D01*
X65606066Y-24151261D01*
X65544054Y-24171950D01*
X65393652Y-24265022D01*
X65268695Y-24390197D01*
X65264855Y-24396427D01*
X65264854Y-24396428D01*
X65181756Y-24531238D01*
X65175885Y-24540762D01*
X65166851Y-24567999D01*
X65127042Y-24688021D01*
X65120203Y-24708639D01*
X65119502Y-24715477D01*
X65119502Y-24715479D01*
X65116801Y-24741842D01*
X65089960Y-24807570D01*
X65031845Y-24848352D01*
X64991457Y-24855000D01*
X64322044Y-24855000D01*
X64253923Y-24834998D01*
X64207430Y-24781342D01*
X64196717Y-24742003D01*
X64196174Y-24736764D01*
X64193832Y-24714192D01*
X64191238Y-24689193D01*
X64191237Y-24689190D01*
X64190526Y-24682334D01*
X64183295Y-24660658D01*
X64138201Y-24525498D01*
X64134550Y-24514554D01*
X64041478Y-24364152D01*
X63916303Y-24239195D01*
X63908717Y-24234519D01*
X63771968Y-24150225D01*
X63771966Y-24150224D01*
X63765738Y-24146385D01*
X63642485Y-24105504D01*
X63604389Y-24092868D01*
X63604387Y-24092868D01*
X63597861Y-24090703D01*
X63591025Y-24090003D01*
X63591022Y-24090002D01*
X63544913Y-24085278D01*
X63493400Y-24080000D01*
X62570095Y-24080000D01*
X62501974Y-24059998D01*
X62481000Y-24043095D01*
X60233500Y-21795595D01*
X63870001Y-21795595D01*
X63870338Y-21802114D01*
X63880257Y-21897706D01*
X63883149Y-21911100D01*
X63934588Y-22065284D01*
X63940761Y-22078462D01*
X64026063Y-22216307D01*
X64035099Y-22227708D01*
X64149829Y-22342239D01*
X64161240Y-22351251D01*
X64299243Y-22436316D01*
X64312424Y-22442463D01*
X64466710Y-22493638D01*
X64480086Y-22496505D01*
X64574438Y-22506172D01*
X64580854Y-22506500D01*
X65005885Y-22506500D01*
X65021124Y-22502025D01*
X65022329Y-22500635D01*
X65024000Y-22492952D01*
X65024000Y-22488384D01*
X65532000Y-22488384D01*
X65536475Y-22503623D01*
X65537865Y-22504828D01*
X65545548Y-22506499D01*
X65975095Y-22506499D01*
X65981614Y-22506162D01*
X66077206Y-22496243D01*
X66090600Y-22493351D01*
X66244784Y-22441912D01*
X66257962Y-22435739D01*
X66395807Y-22350437D01*
X66407208Y-22341401D01*
X66521739Y-22226671D01*
X66530751Y-22215260D01*
X66615816Y-22077257D01*
X66621963Y-22064076D01*
X66673138Y-21909790D01*
X66676005Y-21896414D01*
X66685672Y-21802062D01*
X66686000Y-21795646D01*
X66686000Y-21795595D01*
X67680001Y-21795595D01*
X67680338Y-21802114D01*
X67690257Y-21897706D01*
X67693149Y-21911100D01*
X67744588Y-22065284D01*
X67750761Y-22078462D01*
X67836063Y-22216307D01*
X67845099Y-22227708D01*
X67959829Y-22342239D01*
X67971240Y-22351251D01*
X68109243Y-22436316D01*
X68122424Y-22442463D01*
X68276710Y-22493638D01*
X68290086Y-22496505D01*
X68384438Y-22506172D01*
X68390854Y-22506500D01*
X68815885Y-22506500D01*
X68831124Y-22502025D01*
X68832329Y-22500635D01*
X68834000Y-22492952D01*
X68834000Y-22488384D01*
X69342000Y-22488384D01*
X69346475Y-22503623D01*
X69347865Y-22504828D01*
X69355548Y-22506499D01*
X69785095Y-22506499D01*
X69791614Y-22506162D01*
X69887206Y-22496243D01*
X69900600Y-22493351D01*
X70054784Y-22441912D01*
X70067962Y-22435739D01*
X70205807Y-22350437D01*
X70217208Y-22341401D01*
X70331739Y-22226671D01*
X70340751Y-22215260D01*
X70425816Y-22077257D01*
X70431963Y-22064076D01*
X70483138Y-21909790D01*
X70486005Y-21896414D01*
X70495672Y-21802062D01*
X70496000Y-21795646D01*
X70496000Y-21608115D01*
X70491525Y-21592876D01*
X70490135Y-21591671D01*
X70482452Y-21590000D01*
X69360115Y-21590000D01*
X69344876Y-21594475D01*
X69343671Y-21595865D01*
X69342000Y-21603548D01*
X69342000Y-22488384D01*
X68834000Y-22488384D01*
X68834000Y-21608115D01*
X68829525Y-21592876D01*
X68828135Y-21591671D01*
X68820452Y-21590000D01*
X67698116Y-21590000D01*
X67682877Y-21594475D01*
X67681672Y-21595865D01*
X67680001Y-21603548D01*
X67680001Y-21795595D01*
X66686000Y-21795595D01*
X66686000Y-21608115D01*
X66681525Y-21592876D01*
X66680135Y-21591671D01*
X66672452Y-21590000D01*
X65550115Y-21590000D01*
X65534876Y-21594475D01*
X65533671Y-21595865D01*
X65532000Y-21603548D01*
X65532000Y-22488384D01*
X65024000Y-22488384D01*
X65024000Y-21608115D01*
X65019525Y-21592876D01*
X65018135Y-21591671D01*
X65010452Y-21590000D01*
X63888116Y-21590000D01*
X63872877Y-21594475D01*
X63871672Y-21595865D01*
X63870001Y-21603548D01*
X63870001Y-21795595D01*
X60233500Y-21795595D01*
X59501790Y-21063885D01*
X63870000Y-21063885D01*
X63874475Y-21079124D01*
X63875865Y-21080329D01*
X63883548Y-21082000D01*
X65005885Y-21082000D01*
X65021124Y-21077525D01*
X65022329Y-21076135D01*
X65024000Y-21068452D01*
X65024000Y-21063885D01*
X65532000Y-21063885D01*
X65536475Y-21079124D01*
X65537865Y-21080329D01*
X65545548Y-21082000D01*
X66667884Y-21082000D01*
X66683123Y-21077525D01*
X66684328Y-21076135D01*
X66685999Y-21068452D01*
X66685999Y-21063885D01*
X67680000Y-21063885D01*
X67684475Y-21079124D01*
X67685865Y-21080329D01*
X67693548Y-21082000D01*
X68815885Y-21082000D01*
X68831124Y-21077525D01*
X68832329Y-21076135D01*
X68834000Y-21068452D01*
X68834000Y-21063885D01*
X69342000Y-21063885D01*
X69346475Y-21079124D01*
X69347865Y-21080329D01*
X69355548Y-21082000D01*
X70477884Y-21082000D01*
X70493123Y-21077525D01*
X70494328Y-21076135D01*
X70495999Y-21068452D01*
X70495999Y-20876405D01*
X70495662Y-20869886D01*
X70485743Y-20774294D01*
X70482851Y-20760900D01*
X70431412Y-20606716D01*
X70425239Y-20593538D01*
X70339937Y-20455693D01*
X70330901Y-20444292D01*
X70216171Y-20329761D01*
X70204760Y-20320749D01*
X70066757Y-20235684D01*
X70053576Y-20229537D01*
X69899290Y-20178362D01*
X69885914Y-20175495D01*
X69791562Y-20165828D01*
X69785145Y-20165500D01*
X69360115Y-20165500D01*
X69344876Y-20169975D01*
X69343671Y-20171365D01*
X69342000Y-20179048D01*
X69342000Y-21063885D01*
X68834000Y-21063885D01*
X68834000Y-20183616D01*
X68829525Y-20168377D01*
X68828135Y-20167172D01*
X68820452Y-20165501D01*
X68390905Y-20165501D01*
X68384386Y-20165838D01*
X68288794Y-20175757D01*
X68275400Y-20178649D01*
X68121216Y-20230088D01*
X68108038Y-20236261D01*
X67970193Y-20321563D01*
X67958792Y-20330599D01*
X67844261Y-20445329D01*
X67835249Y-20456740D01*
X67750184Y-20594743D01*
X67744037Y-20607924D01*
X67692862Y-20762210D01*
X67689995Y-20775586D01*
X67680328Y-20869938D01*
X67680000Y-20876355D01*
X67680000Y-21063885D01*
X66685999Y-21063885D01*
X66685999Y-20876405D01*
X66685662Y-20869886D01*
X66675743Y-20774294D01*
X66672851Y-20760900D01*
X66621412Y-20606716D01*
X66615239Y-20593538D01*
X66529937Y-20455693D01*
X66520901Y-20444292D01*
X66406171Y-20329761D01*
X66394760Y-20320749D01*
X66256757Y-20235684D01*
X66243576Y-20229537D01*
X66089290Y-20178362D01*
X66075914Y-20175495D01*
X65981562Y-20165828D01*
X65975145Y-20165500D01*
X65550115Y-20165500D01*
X65534876Y-20169975D01*
X65533671Y-20171365D01*
X65532000Y-20179048D01*
X65532000Y-21063885D01*
X65024000Y-21063885D01*
X65024000Y-20183616D01*
X65019525Y-20168377D01*
X65018135Y-20167172D01*
X65010452Y-20165501D01*
X64580905Y-20165501D01*
X64574386Y-20165838D01*
X64478794Y-20175757D01*
X64465400Y-20178649D01*
X64311216Y-20230088D01*
X64298038Y-20236261D01*
X64160193Y-20321563D01*
X64148792Y-20330599D01*
X64034261Y-20445329D01*
X64025249Y-20456740D01*
X63940184Y-20594743D01*
X63934037Y-20607924D01*
X63882862Y-20762210D01*
X63879995Y-20775586D01*
X63870328Y-20869938D01*
X63870000Y-20876355D01*
X63870000Y-21063885D01*
X59501790Y-21063885D01*
X57249152Y-18811247D01*
X57241612Y-18802961D01*
X57237500Y-18796482D01*
X57230190Y-18789617D01*
X57187849Y-18749857D01*
X57185007Y-18747102D01*
X57165270Y-18727365D01*
X57162136Y-18724934D01*
X57159391Y-18722514D01*
X57121520Y-18662461D01*
X57122129Y-18591467D01*
X57161023Y-18532072D01*
X57225854Y-18503133D01*
X57242716Y-18502000D01*
X63743500Y-18502000D01*
X63811621Y-18522002D01*
X63858114Y-18575658D01*
X63869500Y-18628000D01*
X63869500Y-18673900D01*
X63869837Y-18677146D01*
X63869837Y-18677150D01*
X63878164Y-18757400D01*
X63880474Y-18779666D01*
X63882655Y-18786202D01*
X63882655Y-18786204D01*
X63901695Y-18843272D01*
X63936450Y-18947446D01*
X64029522Y-19097848D01*
X64154697Y-19222805D01*
X64160927Y-19226645D01*
X64160928Y-19226646D01*
X64298090Y-19311194D01*
X64305262Y-19315615D01*
X64385005Y-19342064D01*
X64466611Y-19369132D01*
X64466613Y-19369132D01*
X64473139Y-19371297D01*
X64479975Y-19371997D01*
X64479978Y-19371998D01*
X64523031Y-19376409D01*
X64577600Y-19382000D01*
X65978400Y-19382000D01*
X65981646Y-19381663D01*
X65981650Y-19381663D01*
X66077308Y-19371738D01*
X66077312Y-19371737D01*
X66084166Y-19371026D01*
X66090702Y-19368845D01*
X66090704Y-19368845D01*
X66222806Y-19324772D01*
X66251946Y-19315050D01*
X66402348Y-19221978D01*
X66527305Y-19096803D01*
X66538449Y-19078724D01*
X66616275Y-18952468D01*
X66616276Y-18952466D01*
X66620115Y-18946238D01*
X66666232Y-18807199D01*
X66673632Y-18784889D01*
X66673632Y-18784887D01*
X66675797Y-18778361D01*
X66678718Y-18749857D01*
X66682982Y-18708231D01*
X66686500Y-18673900D01*
X66686500Y-18628000D01*
X66706502Y-18559879D01*
X66760158Y-18513386D01*
X66812500Y-18502000D01*
X67553500Y-18502000D01*
X67621621Y-18522002D01*
X67668114Y-18575658D01*
X67679500Y-18628000D01*
X67679500Y-18673900D01*
X67679837Y-18677146D01*
X67679837Y-18677150D01*
X67688164Y-18757400D01*
X67690474Y-18779666D01*
X67692655Y-18786202D01*
X67692655Y-18786204D01*
X67711695Y-18843272D01*
X67746450Y-18947446D01*
X67839522Y-19097848D01*
X67964697Y-19222805D01*
X67970927Y-19226645D01*
X67970928Y-19226646D01*
X68108090Y-19311194D01*
X68115262Y-19315615D01*
X68195005Y-19342064D01*
X68276611Y-19369132D01*
X68276613Y-19369132D01*
X68283139Y-19371297D01*
X68289975Y-19371997D01*
X68289978Y-19371998D01*
X68333031Y-19376409D01*
X68387600Y-19382000D01*
X69788400Y-19382000D01*
X69791646Y-19381663D01*
X69791650Y-19381663D01*
X69887308Y-19371738D01*
X69887312Y-19371737D01*
X69894166Y-19371026D01*
X69900702Y-19368845D01*
X69900704Y-19368845D01*
X70032806Y-19324772D01*
X70061946Y-19315050D01*
X70212348Y-19221978D01*
X70337305Y-19096803D01*
X70348449Y-19078724D01*
X70426275Y-18952468D01*
X70426276Y-18952466D01*
X70430115Y-18946238D01*
X70476232Y-18807199D01*
X70483632Y-18784889D01*
X70483632Y-18784887D01*
X70485797Y-18778361D01*
X70488718Y-18749857D01*
X70492982Y-18708231D01*
X70496500Y-18673900D01*
X70496500Y-18628000D01*
X70516502Y-18559879D01*
X70570158Y-18513386D01*
X70622500Y-18502000D01*
X81233301Y-18502000D01*
X81301422Y-18522002D01*
X81347915Y-18575658D01*
X81358019Y-18645932D01*
X81328525Y-18710512D01*
X81280501Y-18744825D01*
X81083799Y-18824297D01*
X81083795Y-18824299D01*
X81080535Y-18825616D01*
X81077448Y-18827285D01*
X81077444Y-18827287D01*
X81017888Y-18859489D01*
X80770893Y-18993039D01*
X80481844Y-19193934D01*
X80479202Y-19196247D01*
X80479198Y-19196250D01*
X80279243Y-19371297D01*
X80216989Y-19425796D01*
X80214613Y-19428398D01*
X80214611Y-19428400D01*
X80190806Y-19454470D01*
X79979631Y-19685737D01*
X79977565Y-19688580D01*
X79977563Y-19688583D01*
X79957495Y-19716204D01*
X79772727Y-19970516D01*
X79770985Y-19973582D01*
X79770984Y-19973584D01*
X79744291Y-20020572D01*
X79598857Y-20276583D01*
X79571270Y-20340948D01*
X79491096Y-20528009D01*
X79460187Y-20600124D01*
X79459170Y-20603493D01*
X79416259Y-20745622D01*
X79358446Y-20937106D01*
X79336626Y-21055995D01*
X79298073Y-21266054D01*
X79294902Y-21283329D01*
X79271512Y-21617814D01*
X79270347Y-21634478D01*
X79285088Y-21986175D01*
X79299371Y-22078440D01*
X79334164Y-22303183D01*
X79338940Y-22334037D01*
X79339862Y-22337429D01*
X79339862Y-22337431D01*
X79343092Y-22349319D01*
X79431232Y-22673729D01*
X79560814Y-23001016D01*
X79562460Y-23004112D01*
X79562462Y-23004116D01*
X79623925Y-23119711D01*
X79726071Y-23311818D01*
X79728056Y-23314717D01*
X79922951Y-23599356D01*
X79922956Y-23599362D01*
X79924942Y-23602263D01*
X79927245Y-23604931D01*
X80145174Y-23857404D01*
X80154950Y-23868730D01*
X80413228Y-24107897D01*
X80416054Y-24109980D01*
X80416057Y-24109983D01*
X80465373Y-24146342D01*
X80696555Y-24316784D01*
X80699592Y-24318538D01*
X80699596Y-24318540D01*
X80801377Y-24377303D01*
X81001401Y-24492787D01*
X81137696Y-24552333D01*
X81320745Y-24632306D01*
X81320749Y-24632307D01*
X81323966Y-24633713D01*
X81327323Y-24634752D01*
X81327328Y-24634754D01*
X81650390Y-24734758D01*
X81660230Y-24737804D01*
X81663686Y-24738463D01*
X81663685Y-24738463D01*
X82002550Y-24803105D01*
X82002555Y-24803106D01*
X82006001Y-24803763D01*
X82197314Y-24818484D01*
X82353472Y-24830500D01*
X82353474Y-24830500D01*
X82356969Y-24830769D01*
X82577221Y-24823078D01*
X82705246Y-24818607D01*
X82705250Y-24818607D01*
X82708761Y-24818484D01*
X82723436Y-24816317D01*
X83053499Y-24767578D01*
X83053505Y-24767577D01*
X83056991Y-24767062D01*
X83060395Y-24766163D01*
X83060398Y-24766162D01*
X83393927Y-24678039D01*
X83393928Y-24678039D01*
X83397318Y-24677143D01*
X83725502Y-24549849D01*
X84037451Y-24386766D01*
X84211504Y-24269366D01*
X84326361Y-24191894D01*
X84326363Y-24191893D01*
X84329277Y-24189927D01*
X84356997Y-24166336D01*
X84594670Y-23964060D01*
X84594671Y-23964059D01*
X84597343Y-23961785D01*
X84677803Y-23876104D01*
X84835896Y-23707752D01*
X84835900Y-23707747D01*
X84838307Y-23705184D01*
X84840412Y-23702370D01*
X84840418Y-23702363D01*
X85047058Y-23426140D01*
X85049167Y-23423321D01*
X85078635Y-23373095D01*
X85169494Y-23218229D01*
X85227294Y-23119711D01*
X85262050Y-23041648D01*
X85369036Y-22801355D01*
X85369038Y-22801350D01*
X85370468Y-22798138D01*
X85476904Y-22462609D01*
X85545276Y-22117307D01*
X85560318Y-21938179D01*
X85574548Y-21768720D01*
X85574549Y-21768709D01*
X85574731Y-21766536D01*
X85574825Y-21759843D01*
X85575930Y-21680678D01*
X85575930Y-21680666D01*
X85575960Y-21678500D01*
X85575455Y-21669457D01*
X85556506Y-21330552D01*
X85556310Y-21327043D01*
X85549409Y-21286242D01*
X85498194Y-20983434D01*
X85498192Y-20983426D01*
X85497607Y-20979966D01*
X85400581Y-20641597D01*
X85332281Y-20475889D01*
X85267780Y-20319396D01*
X85267776Y-20319388D01*
X85266442Y-20316151D01*
X85096862Y-20007686D01*
X85070642Y-19970516D01*
X84976456Y-19837000D01*
X84893954Y-19720046D01*
X84884738Y-19709666D01*
X84662579Y-19459442D01*
X84662575Y-19459438D01*
X84660248Y-19456817D01*
X84657647Y-19454475D01*
X84657642Y-19454470D01*
X84401277Y-19223638D01*
X84401276Y-19223637D01*
X84398657Y-19221279D01*
X84112440Y-19016368D01*
X84109377Y-19014656D01*
X84109372Y-19014653D01*
X83841060Y-18864698D01*
X83805167Y-18844638D01*
X83801922Y-18843274D01*
X83801918Y-18843272D01*
X83634289Y-18772808D01*
X83566124Y-18744155D01*
X83511078Y-18699318D01*
X83489010Y-18631838D01*
X83506928Y-18563140D01*
X83559143Y-18515034D01*
X83614952Y-18502000D01*
X88458406Y-18502000D01*
X88526527Y-18522002D01*
X88547501Y-18538905D01*
X91902325Y-21893730D01*
X95254348Y-25245753D01*
X95261888Y-25254039D01*
X95266000Y-25260518D01*
X95271777Y-25265943D01*
X95315651Y-25307143D01*
X95318493Y-25309898D01*
X95338230Y-25329635D01*
X95341427Y-25332115D01*
X95350447Y-25339818D01*
X95382679Y-25370086D01*
X95389625Y-25373905D01*
X95389628Y-25373907D01*
X95400434Y-25379848D01*
X95416953Y-25390699D01*
X95432959Y-25403114D01*
X95440228Y-25406259D01*
X95440232Y-25406262D01*
X95473537Y-25420674D01*
X95484187Y-25425891D01*
X95522940Y-25447195D01*
X95530615Y-25449166D01*
X95530616Y-25449166D01*
X95542562Y-25452233D01*
X95561266Y-25458637D01*
X95567402Y-25461292D01*
X95579855Y-25466681D01*
X95587678Y-25467920D01*
X95587688Y-25467923D01*
X95623524Y-25473599D01*
X95635144Y-25476005D01*
X95666959Y-25484173D01*
X95677970Y-25487000D01*
X95698224Y-25487000D01*
X95717934Y-25488551D01*
X95737943Y-25491720D01*
X95745835Y-25490974D01*
X95764580Y-25489202D01*
X95781962Y-25487559D01*
X95793819Y-25487000D01*
X104589233Y-25487000D01*
X104600416Y-25487527D01*
X104607909Y-25489202D01*
X104615835Y-25488953D01*
X104615836Y-25488953D01*
X104675986Y-25487062D01*
X104679945Y-25487000D01*
X104707856Y-25487000D01*
X104711791Y-25486503D01*
X104711856Y-25486495D01*
X104723693Y-25485562D01*
X104755951Y-25484548D01*
X104759970Y-25484422D01*
X104767889Y-25484173D01*
X104787343Y-25478521D01*
X104806700Y-25474513D01*
X104818930Y-25472968D01*
X104818931Y-25472968D01*
X104826797Y-25471974D01*
X104834168Y-25469055D01*
X104834170Y-25469055D01*
X104867912Y-25455696D01*
X104879142Y-25451851D01*
X104913983Y-25441729D01*
X104913984Y-25441729D01*
X104921593Y-25439518D01*
X104928412Y-25435485D01*
X104928417Y-25435483D01*
X104939028Y-25429207D01*
X104956776Y-25420512D01*
X104975617Y-25413052D01*
X105011387Y-25387064D01*
X105021307Y-25380548D01*
X105052535Y-25362080D01*
X105052538Y-25362078D01*
X105059362Y-25358042D01*
X105073683Y-25343721D01*
X105088717Y-25330880D01*
X105098694Y-25323631D01*
X105105107Y-25318972D01*
X105133298Y-25284895D01*
X105141288Y-25276116D01*
X106149752Y-24267652D01*
X106212064Y-24233626D01*
X106271459Y-24235041D01*
X106329591Y-24250618D01*
X106329602Y-24250620D01*
X106334913Y-24252043D01*
X106563000Y-24271998D01*
X106791087Y-24252043D01*
X106796400Y-24250619D01*
X106796402Y-24250619D01*
X107006933Y-24194207D01*
X107006935Y-24194206D01*
X107012243Y-24192784D01*
X107022674Y-24187920D01*
X107214762Y-24098349D01*
X107214767Y-24098346D01*
X107219749Y-24096023D01*
X107370041Y-23990787D01*
X107402789Y-23967857D01*
X107402792Y-23967855D01*
X107407300Y-23964698D01*
X107569198Y-23802800D01*
X107573442Y-23796740D01*
X107627098Y-23720111D01*
X107700523Y-23615249D01*
X107702846Y-23610267D01*
X107702849Y-23610262D01*
X107794961Y-23412725D01*
X107794961Y-23412724D01*
X107797284Y-23407743D01*
X107802764Y-23387294D01*
X107855119Y-23191902D01*
X107855119Y-23191900D01*
X107856543Y-23186587D01*
X107876498Y-22958500D01*
X107856543Y-22730413D01*
X107848028Y-22698635D01*
X107798707Y-22514567D01*
X107798706Y-22514565D01*
X107797284Y-22509257D01*
X107788482Y-22490380D01*
X107702849Y-22306738D01*
X107702846Y-22306733D01*
X107700523Y-22301751D01*
X107614588Y-22179024D01*
X107572357Y-22118711D01*
X107572355Y-22118708D01*
X107569198Y-22114200D01*
X107407300Y-21952302D01*
X107402792Y-21949145D01*
X107402789Y-21949143D01*
X107293444Y-21872579D01*
X107219749Y-21820977D01*
X107214767Y-21818654D01*
X107214762Y-21818651D01*
X107017225Y-21726539D01*
X107017224Y-21726539D01*
X107012243Y-21724216D01*
X107006935Y-21722794D01*
X107006933Y-21722793D01*
X106796402Y-21666381D01*
X106796400Y-21666381D01*
X106791087Y-21664957D01*
X106563000Y-21645002D01*
X106334913Y-21664957D01*
X106329600Y-21666381D01*
X106329598Y-21666381D01*
X106119067Y-21722793D01*
X106119065Y-21722794D01*
X106113757Y-21724216D01*
X106108776Y-21726539D01*
X106108775Y-21726539D01*
X105911238Y-21818651D01*
X105911233Y-21818654D01*
X105906251Y-21820977D01*
X105832556Y-21872579D01*
X105723211Y-21949143D01*
X105723208Y-21949145D01*
X105718700Y-21952302D01*
X105556802Y-22114200D01*
X105553645Y-22118708D01*
X105553643Y-22118711D01*
X105511412Y-22179024D01*
X105425477Y-22301751D01*
X105423154Y-22306733D01*
X105423151Y-22306738D01*
X105407195Y-22340957D01*
X105360278Y-22394242D01*
X105292001Y-22413703D01*
X105224041Y-22393161D01*
X105178805Y-22340957D01*
X105162849Y-22306738D01*
X105162846Y-22306733D01*
X105160523Y-22301751D01*
X105074588Y-22179024D01*
X105032357Y-22118711D01*
X105032355Y-22118708D01*
X105029198Y-22114200D01*
X104867300Y-21952302D01*
X104862792Y-21949145D01*
X104862789Y-21949143D01*
X104753444Y-21872579D01*
X104679749Y-21820977D01*
X104674767Y-21818654D01*
X104674762Y-21818651D01*
X104477225Y-21726539D01*
X104477224Y-21726539D01*
X104472243Y-21724216D01*
X104466935Y-21722794D01*
X104466933Y-21722793D01*
X104256402Y-21666381D01*
X104256400Y-21666381D01*
X104251087Y-21664957D01*
X104023000Y-21645002D01*
X103794913Y-21664957D01*
X103789600Y-21666381D01*
X103789598Y-21666381D01*
X103579067Y-21722793D01*
X103579065Y-21722794D01*
X103573757Y-21724216D01*
X103568776Y-21726539D01*
X103568775Y-21726539D01*
X103371238Y-21818651D01*
X103371233Y-21818654D01*
X103366251Y-21820977D01*
X103292556Y-21872579D01*
X103183211Y-21949143D01*
X103183208Y-21949145D01*
X103178700Y-21952302D01*
X103016802Y-22114200D01*
X103013645Y-22118708D01*
X103013643Y-22118711D01*
X102971412Y-22179024D01*
X102885477Y-22301751D01*
X102883154Y-22306733D01*
X102883151Y-22306738D01*
X102867195Y-22340957D01*
X102820278Y-22394242D01*
X102752001Y-22413703D01*
X102684041Y-22393161D01*
X102638805Y-22340957D01*
X102622849Y-22306738D01*
X102622846Y-22306733D01*
X102620523Y-22301751D01*
X102534588Y-22179024D01*
X102492357Y-22118711D01*
X102492355Y-22118708D01*
X102489198Y-22114200D01*
X102327300Y-21952302D01*
X102322792Y-21949145D01*
X102322789Y-21949143D01*
X102213444Y-21872579D01*
X102139749Y-21820977D01*
X102134767Y-21818654D01*
X102134762Y-21818651D01*
X101937225Y-21726539D01*
X101937224Y-21726539D01*
X101932243Y-21724216D01*
X101926935Y-21722794D01*
X101926933Y-21722793D01*
X101716402Y-21666381D01*
X101716400Y-21666381D01*
X101711087Y-21664957D01*
X101483000Y-21645002D01*
X101254913Y-21664957D01*
X101249600Y-21666381D01*
X101249598Y-21666381D01*
X101039067Y-21722793D01*
X101039065Y-21722794D01*
X101033757Y-21724216D01*
X101028776Y-21726539D01*
X101028775Y-21726539D01*
X100831238Y-21818651D01*
X100831233Y-21818654D01*
X100826251Y-21820977D01*
X100752556Y-21872579D01*
X100643211Y-21949143D01*
X100643208Y-21949145D01*
X100638700Y-21952302D01*
X100476802Y-22114200D01*
X100473643Y-22118711D01*
X100470108Y-22122924D01*
X100469140Y-22122112D01*
X100418506Y-22162590D01*
X100347887Y-22169904D01*
X100284524Y-22137876D01*
X100248536Y-22076677D01*
X100245480Y-22059599D01*
X100245105Y-22056148D01*
X100241479Y-22040896D01*
X100196324Y-21920446D01*
X100187786Y-21904851D01*
X100111285Y-21802776D01*
X100098724Y-21790215D01*
X99996649Y-21713714D01*
X99981054Y-21705176D01*
X99860606Y-21660022D01*
X99845351Y-21656395D01*
X99794486Y-21650869D01*
X99787672Y-21650500D01*
X99215115Y-21650500D01*
X99199876Y-21654975D01*
X99198671Y-21656365D01*
X99197000Y-21664048D01*
X99197000Y-23086500D01*
X99176998Y-23154621D01*
X99123342Y-23201114D01*
X99071000Y-23212500D01*
X97653116Y-23212500D01*
X97637877Y-23216975D01*
X97636672Y-23218365D01*
X97635001Y-23226048D01*
X97635001Y-23803169D01*
X97635371Y-23809990D01*
X97640895Y-23860852D01*
X97644521Y-23876104D01*
X97689676Y-23996554D01*
X97698213Y-24012147D01*
X97702927Y-24018437D01*
X97727773Y-24084944D01*
X97712719Y-24154326D01*
X97662543Y-24204555D01*
X97602099Y-24220000D01*
X96072594Y-24220000D01*
X96004473Y-24199998D01*
X95983499Y-24183095D01*
X94486789Y-22686385D01*
X97635000Y-22686385D01*
X97639475Y-22701624D01*
X97640865Y-22702829D01*
X97648548Y-22704500D01*
X98670885Y-22704500D01*
X98686124Y-22700025D01*
X98687329Y-22698635D01*
X98689000Y-22690952D01*
X98689000Y-21668616D01*
X98684525Y-21653377D01*
X98683135Y-21652172D01*
X98675452Y-21650501D01*
X98098331Y-21650501D01*
X98091510Y-21650871D01*
X98040648Y-21656395D01*
X98025396Y-21660021D01*
X97904946Y-21705176D01*
X97889351Y-21713714D01*
X97787276Y-21790215D01*
X97774715Y-21802776D01*
X97698214Y-21904851D01*
X97689676Y-21920446D01*
X97644522Y-22040894D01*
X97640895Y-22056149D01*
X97635369Y-22107014D01*
X97635000Y-22113828D01*
X97635000Y-22686385D01*
X94486789Y-22686385D01*
X92641371Y-20840966D01*
X89276652Y-17476247D01*
X89269112Y-17467961D01*
X89265000Y-17461482D01*
X89215348Y-17414856D01*
X89212507Y-17412102D01*
X89192770Y-17392365D01*
X89189573Y-17389885D01*
X89180551Y-17382180D01*
X89167116Y-17369564D01*
X89148321Y-17351914D01*
X89141375Y-17348095D01*
X89141372Y-17348093D01*
X89130566Y-17342152D01*
X89114047Y-17331301D01*
X89113583Y-17330941D01*
X89098041Y-17318886D01*
X89090772Y-17315741D01*
X89090768Y-17315738D01*
X89057463Y-17301326D01*
X89046813Y-17296109D01*
X89008060Y-17274805D01*
X88988437Y-17269767D01*
X88969734Y-17263363D01*
X88958420Y-17258467D01*
X88958419Y-17258467D01*
X88951145Y-17255319D01*
X88943322Y-17254080D01*
X88943312Y-17254077D01*
X88907476Y-17248401D01*
X88895856Y-17245995D01*
X88860711Y-17236972D01*
X88860710Y-17236972D01*
X88853030Y-17235000D01*
X88832776Y-17235000D01*
X88813065Y-17233449D01*
X88800886Y-17231520D01*
X88793057Y-17230280D01*
X88749653Y-17234383D01*
X88749039Y-17234441D01*
X88737181Y-17235000D01*
X70299026Y-17235000D01*
X70230905Y-17214998D01*
X70220932Y-17207880D01*
X70216484Y-17204367D01*
X70211303Y-17199195D01*
X70136020Y-17152790D01*
X70066968Y-17110225D01*
X70066966Y-17110224D01*
X70060738Y-17106385D01*
X69900254Y-17053155D01*
X69899389Y-17052868D01*
X69899387Y-17052868D01*
X69892861Y-17050703D01*
X69886025Y-17050003D01*
X69886022Y-17050002D01*
X69842969Y-17045591D01*
X69788400Y-17040000D01*
X68387600Y-17040000D01*
X68384354Y-17040337D01*
X68384350Y-17040337D01*
X68288692Y-17050262D01*
X68288688Y-17050263D01*
X68281834Y-17050974D01*
X68275298Y-17053155D01*
X68275296Y-17053155D01*
X68143194Y-17097228D01*
X68114054Y-17106950D01*
X67963652Y-17200022D01*
X67958484Y-17205199D01*
X67955269Y-17207747D01*
X67889458Y-17234383D01*
X67877007Y-17235000D01*
X66489026Y-17235000D01*
X66420905Y-17214998D01*
X66410932Y-17207880D01*
X66406484Y-17204367D01*
X66401303Y-17199195D01*
X66326020Y-17152790D01*
X66256968Y-17110225D01*
X66256966Y-17110224D01*
X66250738Y-17106385D01*
X66090254Y-17053155D01*
X66089389Y-17052868D01*
X66089387Y-17052868D01*
X66082861Y-17050703D01*
X66076025Y-17050003D01*
X66076022Y-17050002D01*
X66032969Y-17045591D01*
X65978400Y-17040000D01*
X64577600Y-17040000D01*
X64574354Y-17040337D01*
X64574350Y-17040337D01*
X64478692Y-17050262D01*
X64478688Y-17050263D01*
X64471834Y-17050974D01*
X64465298Y-17053155D01*
X64465296Y-17053155D01*
X64333194Y-17097228D01*
X64304054Y-17106950D01*
X64153652Y-17200022D01*
X64148484Y-17205199D01*
X64145269Y-17207747D01*
X64079458Y-17234383D01*
X64067007Y-17235000D01*
X22811767Y-17235000D01*
X22800584Y-17234473D01*
X22793091Y-17232798D01*
X22785165Y-17233047D01*
X22785164Y-17233047D01*
X22725014Y-17234938D01*
X22721055Y-17235000D01*
X22693144Y-17235000D01*
X22689210Y-17235497D01*
X22689209Y-17235497D01*
X22689144Y-17235505D01*
X22677307Y-17236438D01*
X22645490Y-17237438D01*
X22641029Y-17237578D01*
X22633110Y-17237827D01*
X22615454Y-17242956D01*
X22613658Y-17243478D01*
X22594306Y-17247486D01*
X22587235Y-17248380D01*
X22574203Y-17250026D01*
X22566834Y-17252943D01*
X22566832Y-17252944D01*
X22533097Y-17266300D01*
X22521869Y-17270145D01*
X22479407Y-17282482D01*
X22472585Y-17286516D01*
X22472579Y-17286519D01*
X22461968Y-17292794D01*
X22444218Y-17301490D01*
X22432756Y-17306028D01*
X22432751Y-17306031D01*
X22425383Y-17308948D01*
X22407970Y-17321599D01*
X22389625Y-17334927D01*
X22379707Y-17341443D01*
X22368463Y-17348093D01*
X22341637Y-17363958D01*
X22327313Y-17378282D01*
X22312281Y-17391121D01*
X22295893Y-17403028D01*
X22267712Y-17437093D01*
X22259722Y-17445873D01*
X21070747Y-18634848D01*
X21062461Y-18642388D01*
X21055982Y-18646500D01*
X21050557Y-18652277D01*
X21009357Y-18696151D01*
X21006602Y-18698993D01*
X20986865Y-18718730D01*
X20984385Y-18721927D01*
X20976682Y-18730947D01*
X20946414Y-18763179D01*
X20942595Y-18770125D01*
X20942593Y-18770128D01*
X20936652Y-18780934D01*
X20925801Y-18797453D01*
X20913386Y-18813459D01*
X20910241Y-18820728D01*
X20910238Y-18820732D01*
X20895826Y-18854037D01*
X20890609Y-18864687D01*
X20869305Y-18903440D01*
X20867334Y-18911115D01*
X20867334Y-18911116D01*
X20864267Y-18923062D01*
X20857863Y-18941766D01*
X20849819Y-18960355D01*
X20848580Y-18968178D01*
X20848577Y-18968188D01*
X20842901Y-19004024D01*
X20840495Y-19015644D01*
X20839784Y-19018415D01*
X20829500Y-19058470D01*
X20829500Y-19078724D01*
X20827949Y-19098434D01*
X20824780Y-19118443D01*
X15595600Y-19118443D01*
X15595600Y-15975600D01*
X15615602Y-15907479D01*
X15669258Y-15860986D01*
X15721600Y-15849600D01*
X109703600Y-15849600D01*
X109771721Y-15869602D01*
G37*
G04 #@! TD.AperFunction*
G04 #@! TA.AperFunction,Conductor*
G36*
X32101621Y-25152002D02*
G01*
X32148114Y-25205658D01*
X32159500Y-25258000D01*
X32159500Y-25396634D01*
X32159869Y-25400031D01*
X32166255Y-25458816D01*
X32163826Y-25459080D01*
X32163826Y-25487920D01*
X32166255Y-25488184D01*
X32159500Y-25550366D01*
X32159500Y-26046634D01*
X32159869Y-26050031D01*
X32166255Y-26108816D01*
X32163826Y-26109080D01*
X32163826Y-26137920D01*
X32166255Y-26138184D01*
X32161202Y-26184703D01*
X32159500Y-26200366D01*
X32159500Y-26696634D01*
X32159869Y-26700031D01*
X32166255Y-26758816D01*
X32163826Y-26759080D01*
X32163826Y-26787920D01*
X32166255Y-26788184D01*
X32159500Y-26850366D01*
X32159500Y-27346634D01*
X32159869Y-27350031D01*
X32166255Y-27408816D01*
X32163826Y-27409080D01*
X32163826Y-27437920D01*
X32166255Y-27438184D01*
X32159500Y-27500366D01*
X32159500Y-27996634D01*
X32159869Y-28000031D01*
X32166255Y-28058816D01*
X32163826Y-28059080D01*
X32163826Y-28087920D01*
X32166255Y-28088184D01*
X32159500Y-28150366D01*
X32159500Y-28646634D01*
X32159869Y-28650031D01*
X32166255Y-28708816D01*
X32164116Y-28709048D01*
X32164166Y-28738012D01*
X32166748Y-28738293D01*
X32160369Y-28797014D01*
X32160000Y-28803828D01*
X32160000Y-28830385D01*
X32164475Y-28845624D01*
X32165865Y-28846829D01*
X32182991Y-28850554D01*
X32245303Y-28884578D01*
X32257035Y-28898110D01*
X32304739Y-28961761D01*
X32311919Y-28967142D01*
X32384681Y-29021674D01*
X32427196Y-29078533D01*
X32432222Y-29149351D01*
X32398162Y-29211645D01*
X32335831Y-29245635D01*
X32309116Y-29248500D01*
X32178116Y-29248500D01*
X32162877Y-29252975D01*
X32159812Y-29256512D01*
X32100086Y-29294896D01*
X32064587Y-29300000D01*
X30667595Y-29300000D01*
X30599474Y-29279998D01*
X30578499Y-29263095D01*
X30367432Y-29052027D01*
X30126647Y-28811242D01*
X30119113Y-28802963D01*
X30115000Y-28796482D01*
X30065348Y-28749856D01*
X30062507Y-28747102D01*
X30042770Y-28727365D01*
X30039573Y-28724885D01*
X30030551Y-28717180D01*
X29998321Y-28686914D01*
X29991375Y-28683095D01*
X29991372Y-28683093D01*
X29980566Y-28677152D01*
X29964047Y-28666301D01*
X29960436Y-28663500D01*
X29948041Y-28653886D01*
X29940772Y-28650741D01*
X29940768Y-28650738D01*
X29907463Y-28636326D01*
X29896813Y-28631109D01*
X29858060Y-28609805D01*
X29838437Y-28604767D01*
X29819734Y-28598363D01*
X29808420Y-28593467D01*
X29808419Y-28593467D01*
X29801145Y-28590319D01*
X29793322Y-28589080D01*
X29793312Y-28589077D01*
X29757476Y-28583401D01*
X29745856Y-28580995D01*
X29710711Y-28571972D01*
X29710710Y-28571972D01*
X29703030Y-28570000D01*
X29682776Y-28570000D01*
X29663065Y-28568449D01*
X29650886Y-28566520D01*
X29643057Y-28565280D01*
X29635165Y-28566026D01*
X29599039Y-28569441D01*
X29587181Y-28570000D01*
X25887807Y-28570000D01*
X25819686Y-28549998D01*
X25785037Y-28516899D01*
X25759416Y-28480780D01*
X25759413Y-28480776D01*
X25755946Y-28475889D01*
X25609291Y-28335498D01*
X25607480Y-28333764D01*
X25603150Y-28329619D01*
X25590548Y-28321482D01*
X25570837Y-28308754D01*
X25524460Y-28254999D01*
X25514507Y-28184703D01*
X25544139Y-28120186D01*
X25561353Y-28103817D01*
X25568446Y-28098246D01*
X25680920Y-28009896D01*
X25793275Y-27880418D01*
X25853027Y-27842079D01*
X25888439Y-27837000D01*
X27289233Y-27837000D01*
X27300416Y-27837527D01*
X27307909Y-27839202D01*
X27315835Y-27838953D01*
X27315836Y-27838953D01*
X27375986Y-27837062D01*
X27379945Y-27837000D01*
X27407856Y-27837000D01*
X27411791Y-27836503D01*
X27411856Y-27836495D01*
X27423693Y-27835562D01*
X27456152Y-27834542D01*
X27459970Y-27834422D01*
X27467889Y-27834173D01*
X27487343Y-27828521D01*
X27506700Y-27824513D01*
X27518930Y-27822968D01*
X27518931Y-27822968D01*
X27526797Y-27821974D01*
X27534168Y-27819055D01*
X27534170Y-27819055D01*
X27567912Y-27805696D01*
X27579142Y-27801851D01*
X27613983Y-27791729D01*
X27613984Y-27791729D01*
X27621593Y-27789518D01*
X27628412Y-27785485D01*
X27628417Y-27785483D01*
X27639028Y-27779207D01*
X27656776Y-27770512D01*
X27675617Y-27763052D01*
X27684812Y-27756372D01*
X27711387Y-27737064D01*
X27721307Y-27730548D01*
X27752535Y-27712080D01*
X27752538Y-27712078D01*
X27759362Y-27708042D01*
X27773683Y-27693721D01*
X27788717Y-27680880D01*
X27798694Y-27673631D01*
X27805107Y-27668972D01*
X27833298Y-27634895D01*
X27841288Y-27626116D01*
X30298499Y-25168905D01*
X30360811Y-25134879D01*
X30387594Y-25132000D01*
X32033500Y-25132000D01*
X32101621Y-25152002D01*
G37*
G04 #@! TD.AperFunction*
M02*
