G04 #@! TF.GenerationSoftware,KiCad,Pcbnew,(6.0.2)*
G04 #@! TF.CreationDate,2022-03-10T22:37:30+00:00*
G04 #@! TF.ProjectId,EncoderCMOS,456e636f-6465-4724-934d-4f532e6b6963,rev?*
G04 #@! TF.SameCoordinates,Original*
G04 #@! TF.FileFunction,Legend,Top*
G04 #@! TF.FilePolarity,Positive*
%FSLAX46Y46*%
G04 Gerber Fmt 4.6, Leading zero omitted, Abs format (unit mm)*
G04 Created by KiCad (PCBNEW (6.0.2)) date 2022-03-10 22:37:30*
%MOMM*%
%LPD*%
G01*
G04 APERTURE LIST*
%ADD10C,0.150000*%
%ADD11C,0.120000*%
G04 APERTURE END LIST*
D10*
X15733028Y-21495880D02*
X15733028Y-20495880D01*
X15947314Y-20495880D01*
X16075885Y-20543500D01*
X16161600Y-20638738D01*
X16204457Y-20733976D01*
X16247314Y-20924452D01*
X16247314Y-21067309D01*
X16204457Y-21257785D01*
X16161600Y-21353023D01*
X16075885Y-21448261D01*
X15947314Y-21495880D01*
X15733028Y-21495880D01*
X16633028Y-21495880D02*
X16633028Y-20495880D01*
X17018742Y-21448261D02*
X17147314Y-21495880D01*
X17361600Y-21495880D01*
X17447314Y-21448261D01*
X17490171Y-21400642D01*
X17533028Y-21305404D01*
X17533028Y-21210166D01*
X17490171Y-21114928D01*
X17447314Y-21067309D01*
X17361600Y-21019690D01*
X17190171Y-20972071D01*
X17104457Y-20924452D01*
X17061600Y-20876833D01*
X17018742Y-20781595D01*
X17018742Y-20686357D01*
X17061600Y-20591119D01*
X17104457Y-20543500D01*
X17190171Y-20495880D01*
X17404457Y-20495880D01*
X17533028Y-20543500D01*
X15698114Y-18463880D02*
X15998114Y-19463880D01*
X16298114Y-18463880D01*
X16598114Y-19463880D02*
X16598114Y-18463880D01*
X17026685Y-19463880D02*
X17026685Y-18463880D01*
X17240971Y-18463880D01*
X17369542Y-18511500D01*
X17455257Y-18606738D01*
X17498114Y-18701976D01*
X17540971Y-18892452D01*
X17540971Y-19035309D01*
X17498114Y-19225785D01*
X17455257Y-19321023D01*
X17369542Y-19416261D01*
X17240971Y-19463880D01*
X17026685Y-19463880D01*
X15721942Y-29227071D02*
X16021942Y-29227071D01*
X16150514Y-29750880D02*
X15721942Y-29750880D01*
X15721942Y-28750880D01*
X16150514Y-28750880D01*
X16707657Y-28750880D02*
X16879085Y-28750880D01*
X16964800Y-28798500D01*
X17050514Y-28893738D01*
X17093371Y-29084214D01*
X17093371Y-29417547D01*
X17050514Y-29608023D01*
X16964800Y-29703261D01*
X16879085Y-29750880D01*
X16707657Y-29750880D01*
X16621942Y-29703261D01*
X16536228Y-29608023D01*
X16493371Y-29417547D01*
X16493371Y-29084214D01*
X16536228Y-28893738D01*
X16621942Y-28798500D01*
X16707657Y-28750880D01*
X17436228Y-29703261D02*
X17564800Y-29750880D01*
X17779085Y-29750880D01*
X17864800Y-29703261D01*
X17907657Y-29655642D01*
X17950514Y-29560404D01*
X17950514Y-29465166D01*
X17907657Y-29369928D01*
X17864800Y-29322309D01*
X17779085Y-29274690D01*
X17607657Y-29227071D01*
X17521942Y-29179452D01*
X17479085Y-29131833D01*
X17436228Y-29036595D01*
X17436228Y-28941357D01*
X17479085Y-28846119D01*
X17521942Y-28798500D01*
X17607657Y-28750880D01*
X17821942Y-28750880D01*
X17950514Y-28798500D01*
X15706800Y-25893261D02*
X15835371Y-25940880D01*
X16049657Y-25940880D01*
X16135371Y-25893261D01*
X16178228Y-25845642D01*
X16221085Y-25750404D01*
X16221085Y-25655166D01*
X16178228Y-25559928D01*
X16135371Y-25512309D01*
X16049657Y-25464690D01*
X15878228Y-25417071D01*
X15792514Y-25369452D01*
X15749657Y-25321833D01*
X15706800Y-25226595D01*
X15706800Y-25131357D01*
X15749657Y-25036119D01*
X15792514Y-24988500D01*
X15878228Y-24940880D01*
X16092514Y-24940880D01*
X16221085Y-24988500D01*
X16478228Y-24940880D02*
X16992514Y-24940880D01*
X16735371Y-25940880D02*
X16735371Y-24940880D01*
X16279085Y-27750642D02*
X16236228Y-27798261D01*
X16107657Y-27845880D01*
X16021942Y-27845880D01*
X15893371Y-27798261D01*
X15807657Y-27703023D01*
X15764800Y-27607785D01*
X15721942Y-27417309D01*
X15721942Y-27274452D01*
X15764800Y-27083976D01*
X15807657Y-26988738D01*
X15893371Y-26893500D01*
X16021942Y-26845880D01*
X16107657Y-26845880D01*
X16236228Y-26893500D01*
X16279085Y-26941119D01*
X17093371Y-27845880D02*
X16664800Y-27845880D01*
X16664800Y-26845880D01*
X17393371Y-27845880D02*
X17393371Y-26845880D01*
X17907657Y-27845880D02*
X17521942Y-27274452D01*
X17907657Y-26845880D02*
X17393371Y-27417309D01*
X16230685Y-30703500D02*
X16144971Y-30655880D01*
X16016400Y-30655880D01*
X15887828Y-30703500D01*
X15802114Y-30798738D01*
X15759257Y-30893976D01*
X15716400Y-31084452D01*
X15716400Y-31227309D01*
X15759257Y-31417785D01*
X15802114Y-31513023D01*
X15887828Y-31608261D01*
X16016400Y-31655880D01*
X16102114Y-31655880D01*
X16230685Y-31608261D01*
X16273542Y-31560642D01*
X16273542Y-31227309D01*
X16102114Y-31227309D01*
X16659257Y-31655880D02*
X16659257Y-30655880D01*
X17173542Y-31655880D01*
X17173542Y-30655880D01*
X17602114Y-31655880D02*
X17602114Y-30655880D01*
X17816400Y-30655880D01*
X17944971Y-30703500D01*
X18030685Y-30798738D01*
X18073542Y-30893976D01*
X18116400Y-31084452D01*
X18116400Y-31227309D01*
X18073542Y-31417785D01*
X18030685Y-31513023D01*
X17944971Y-31608261D01*
X17816400Y-31655880D01*
X17602114Y-31655880D01*
X16186171Y-32560880D02*
X15757600Y-32560880D01*
X15714742Y-33037071D01*
X15757600Y-32989452D01*
X15843314Y-32941833D01*
X16057600Y-32941833D01*
X16143314Y-32989452D01*
X16186171Y-33037071D01*
X16229028Y-33132309D01*
X16229028Y-33370404D01*
X16186171Y-33465642D01*
X16143314Y-33513261D01*
X16057600Y-33560880D01*
X15843314Y-33560880D01*
X15757600Y-33513261D01*
X15714742Y-33465642D01*
X16486171Y-32560880D02*
X16786171Y-33560880D01*
X17086171Y-32560880D01*
X89789904Y-33502071D02*
X90123238Y-33502071D01*
X90266095Y-34025880D02*
X89789904Y-34025880D01*
X89789904Y-33025880D01*
X90266095Y-33025880D01*
X90694666Y-33359214D02*
X90694666Y-34025880D01*
X90694666Y-33454452D02*
X90742285Y-33406833D01*
X90837523Y-33359214D01*
X90980380Y-33359214D01*
X91075619Y-33406833D01*
X91123238Y-33502071D01*
X91123238Y-34025880D01*
X92028000Y-33978261D02*
X91932761Y-34025880D01*
X91742285Y-34025880D01*
X91647047Y-33978261D01*
X91599428Y-33930642D01*
X91551809Y-33835404D01*
X91551809Y-33549690D01*
X91599428Y-33454452D01*
X91647047Y-33406833D01*
X91742285Y-33359214D01*
X91932761Y-33359214D01*
X92028000Y-33406833D01*
X92599428Y-34025880D02*
X92504190Y-33978261D01*
X92456571Y-33930642D01*
X92408952Y-33835404D01*
X92408952Y-33549690D01*
X92456571Y-33454452D01*
X92504190Y-33406833D01*
X92599428Y-33359214D01*
X92742285Y-33359214D01*
X92837523Y-33406833D01*
X92885142Y-33454452D01*
X92932761Y-33549690D01*
X92932761Y-33835404D01*
X92885142Y-33930642D01*
X92837523Y-33978261D01*
X92742285Y-34025880D01*
X92599428Y-34025880D01*
X93789904Y-34025880D02*
X93789904Y-33025880D01*
X93789904Y-33978261D02*
X93694666Y-34025880D01*
X93504190Y-34025880D01*
X93408952Y-33978261D01*
X93361333Y-33930642D01*
X93313714Y-33835404D01*
X93313714Y-33549690D01*
X93361333Y-33454452D01*
X93408952Y-33406833D01*
X93504190Y-33359214D01*
X93694666Y-33359214D01*
X93789904Y-33406833D01*
X94647047Y-33978261D02*
X94551809Y-34025880D01*
X94361333Y-34025880D01*
X94266095Y-33978261D01*
X94218476Y-33883023D01*
X94218476Y-33502071D01*
X94266095Y-33406833D01*
X94361333Y-33359214D01*
X94551809Y-33359214D01*
X94647047Y-33406833D01*
X94694666Y-33502071D01*
X94694666Y-33597309D01*
X94218476Y-33692547D01*
X95123238Y-34025880D02*
X95123238Y-33359214D01*
X95123238Y-33549690D02*
X95170857Y-33454452D01*
X95218476Y-33406833D01*
X95313714Y-33359214D01*
X95408952Y-33359214D01*
X96837523Y-33502071D02*
X96980380Y-33549690D01*
X97028000Y-33597309D01*
X97075619Y-33692547D01*
X97075619Y-33835404D01*
X97028000Y-33930642D01*
X96980380Y-33978261D01*
X96885142Y-34025880D01*
X96504190Y-34025880D01*
X96504190Y-33025880D01*
X96837523Y-33025880D01*
X96932761Y-33073500D01*
X96980380Y-33121119D01*
X97028000Y-33216357D01*
X97028000Y-33311595D01*
X96980380Y-33406833D01*
X96932761Y-33454452D01*
X96837523Y-33502071D01*
X96504190Y-33502071D01*
X97647047Y-34025880D02*
X97551809Y-33978261D01*
X97504190Y-33930642D01*
X97456571Y-33835404D01*
X97456571Y-33549690D01*
X97504190Y-33454452D01*
X97551809Y-33406833D01*
X97647047Y-33359214D01*
X97789904Y-33359214D01*
X97885142Y-33406833D01*
X97932761Y-33454452D01*
X97980380Y-33549690D01*
X97980380Y-33835404D01*
X97932761Y-33930642D01*
X97885142Y-33978261D01*
X97789904Y-34025880D01*
X97647047Y-34025880D01*
X98837523Y-34025880D02*
X98837523Y-33502071D01*
X98789904Y-33406833D01*
X98694666Y-33359214D01*
X98504190Y-33359214D01*
X98408952Y-33406833D01*
X98837523Y-33978261D02*
X98742285Y-34025880D01*
X98504190Y-34025880D01*
X98408952Y-33978261D01*
X98361333Y-33883023D01*
X98361333Y-33787785D01*
X98408952Y-33692547D01*
X98504190Y-33644928D01*
X98742285Y-33644928D01*
X98837523Y-33597309D01*
X99313714Y-34025880D02*
X99313714Y-33359214D01*
X99313714Y-33549690D02*
X99361333Y-33454452D01*
X99408952Y-33406833D01*
X99504190Y-33359214D01*
X99599428Y-33359214D01*
X100361333Y-34025880D02*
X100361333Y-33025880D01*
X100361333Y-33978261D02*
X100266095Y-34025880D01*
X100075619Y-34025880D01*
X99980380Y-33978261D01*
X99932761Y-33930642D01*
X99885142Y-33835404D01*
X99885142Y-33549690D01*
X99932761Y-33454452D01*
X99980380Y-33406833D01*
X100075619Y-33359214D01*
X100266095Y-33359214D01*
X100361333Y-33406833D01*
X101504190Y-33359214D02*
X101742285Y-34025880D01*
X101980380Y-33359214D01*
X102313714Y-33121119D02*
X102361333Y-33073500D01*
X102456571Y-33025880D01*
X102694666Y-33025880D01*
X102789904Y-33073500D01*
X102837523Y-33121119D01*
X102885142Y-33216357D01*
X102885142Y-33311595D01*
X102837523Y-33454452D01*
X102266095Y-34025880D01*
X102885142Y-34025880D01*
X103313714Y-33930642D02*
X103361333Y-33978261D01*
X103313714Y-34025880D01*
X103266095Y-33978261D01*
X103313714Y-33930642D01*
X103313714Y-34025880D01*
X103980380Y-33025880D02*
X104075619Y-33025880D01*
X104170857Y-33073500D01*
X104218476Y-33121119D01*
X104266095Y-33216357D01*
X104313714Y-33406833D01*
X104313714Y-33644928D01*
X104266095Y-33835404D01*
X104218476Y-33930642D01*
X104170857Y-33978261D01*
X104075619Y-34025880D01*
X103980380Y-34025880D01*
X103885142Y-33978261D01*
X103837523Y-33930642D01*
X103789904Y-33835404D01*
X103742285Y-33644928D01*
X103742285Y-33406833D01*
X103789904Y-33216357D01*
X103837523Y-33121119D01*
X103885142Y-33073500D01*
X103980380Y-33025880D01*
X85885142Y-34873976D02*
X85789904Y-34826357D01*
X85599428Y-34826357D01*
X85504190Y-34873976D01*
X85408952Y-34969214D01*
X85361333Y-35064452D01*
X85361333Y-35254928D01*
X85408952Y-35350166D01*
X85504190Y-35445404D01*
X85599428Y-35493023D01*
X85789904Y-35493023D01*
X85885142Y-35445404D01*
X85694666Y-34493023D02*
X85456571Y-34540642D01*
X85218476Y-34683500D01*
X85075619Y-34921595D01*
X85028000Y-35159690D01*
X85075619Y-35397785D01*
X85218476Y-35635880D01*
X85456571Y-35778738D01*
X85694666Y-35826357D01*
X85932761Y-35778738D01*
X86170857Y-35635880D01*
X86313714Y-35397785D01*
X86361333Y-35159690D01*
X86313714Y-34921595D01*
X86170857Y-34683500D01*
X85932761Y-34540642D01*
X85694666Y-34493023D01*
X86742285Y-34731119D02*
X86789904Y-34683500D01*
X86885142Y-34635880D01*
X87123238Y-34635880D01*
X87218476Y-34683500D01*
X87266095Y-34731119D01*
X87313714Y-34826357D01*
X87313714Y-34921595D01*
X87266095Y-35064452D01*
X86694666Y-35635880D01*
X87313714Y-35635880D01*
X87932761Y-34635880D02*
X88028000Y-34635880D01*
X88123238Y-34683500D01*
X88170857Y-34731119D01*
X88218476Y-34826357D01*
X88266095Y-35016833D01*
X88266095Y-35254928D01*
X88218476Y-35445404D01*
X88170857Y-35540642D01*
X88123238Y-35588261D01*
X88028000Y-35635880D01*
X87932761Y-35635880D01*
X87837523Y-35588261D01*
X87789904Y-35540642D01*
X87742285Y-35445404D01*
X87694666Y-35254928D01*
X87694666Y-35016833D01*
X87742285Y-34826357D01*
X87789904Y-34731119D01*
X87837523Y-34683500D01*
X87932761Y-34635880D01*
X88647047Y-34731119D02*
X88694666Y-34683500D01*
X88789904Y-34635880D01*
X89028000Y-34635880D01*
X89123238Y-34683500D01*
X89170857Y-34731119D01*
X89218476Y-34826357D01*
X89218476Y-34921595D01*
X89170857Y-35064452D01*
X88599428Y-35635880D01*
X89218476Y-35635880D01*
X89599428Y-34731119D02*
X89647047Y-34683500D01*
X89742285Y-34635880D01*
X89980380Y-34635880D01*
X90075619Y-34683500D01*
X90123238Y-34731119D01*
X90170857Y-34826357D01*
X90170857Y-34921595D01*
X90123238Y-35064452D01*
X89551809Y-35635880D01*
X90170857Y-35635880D01*
X91313714Y-35350166D02*
X91789904Y-35350166D01*
X91218476Y-35635880D02*
X91551809Y-34635880D01*
X91885142Y-35635880D01*
X92218476Y-34969214D02*
X92218476Y-35635880D01*
X92218476Y-35064452D02*
X92266095Y-35016833D01*
X92361333Y-34969214D01*
X92504190Y-34969214D01*
X92599428Y-35016833D01*
X92647047Y-35112071D01*
X92647047Y-35635880D01*
X93551809Y-35635880D02*
X93551809Y-34635880D01*
X93551809Y-35588261D02*
X93456571Y-35635880D01*
X93266095Y-35635880D01*
X93170857Y-35588261D01*
X93123238Y-35540642D01*
X93075619Y-35445404D01*
X93075619Y-35159690D01*
X93123238Y-35064452D01*
X93170857Y-35016833D01*
X93266095Y-34969214D01*
X93456571Y-34969214D01*
X93551809Y-35016833D01*
X94028000Y-35635880D02*
X94028000Y-34969214D01*
X94028000Y-35159690D02*
X94075619Y-35064452D01*
X94123238Y-35016833D01*
X94218476Y-34969214D01*
X94313714Y-34969214D01*
X95028000Y-35588261D02*
X94932761Y-35635880D01*
X94742285Y-35635880D01*
X94647047Y-35588261D01*
X94599428Y-35493023D01*
X94599428Y-35112071D01*
X94647047Y-35016833D01*
X94742285Y-34969214D01*
X94932761Y-34969214D01*
X95028000Y-35016833D01*
X95075619Y-35112071D01*
X95075619Y-35207309D01*
X94599428Y-35302547D01*
X95408952Y-34969214D02*
X95599428Y-35635880D01*
X95789904Y-35159690D01*
X95980380Y-35635880D01*
X96170857Y-34969214D01*
X97218476Y-34635880D02*
X97456571Y-35635880D01*
X97647047Y-34921595D01*
X97837523Y-35635880D01*
X98075619Y-34635880D01*
X98599428Y-35635880D02*
X98504190Y-35588261D01*
X98456571Y-35540642D01*
X98408952Y-35445404D01*
X98408952Y-35159690D01*
X98456571Y-35064452D01*
X98504190Y-35016833D01*
X98599428Y-34969214D01*
X98742285Y-34969214D01*
X98837523Y-35016833D01*
X98885142Y-35064452D01*
X98932761Y-35159690D01*
X98932761Y-35445404D01*
X98885142Y-35540642D01*
X98837523Y-35588261D01*
X98742285Y-35635880D01*
X98599428Y-35635880D01*
X99504190Y-35635880D02*
X99408952Y-35588261D01*
X99361333Y-35540642D01*
X99313714Y-35445404D01*
X99313714Y-35159690D01*
X99361333Y-35064452D01*
X99408952Y-35016833D01*
X99504190Y-34969214D01*
X99647047Y-34969214D01*
X99742285Y-35016833D01*
X99789904Y-35064452D01*
X99837523Y-35159690D01*
X99837523Y-35445404D01*
X99789904Y-35540642D01*
X99742285Y-35588261D01*
X99647047Y-35635880D01*
X99504190Y-35635880D01*
X100694666Y-35635880D02*
X100694666Y-34635880D01*
X100694666Y-35588261D02*
X100599428Y-35635880D01*
X100408952Y-35635880D01*
X100313714Y-35588261D01*
X100266095Y-35540642D01*
X100218476Y-35445404D01*
X100218476Y-35159690D01*
X100266095Y-35064452D01*
X100313714Y-35016833D01*
X100408952Y-34969214D01*
X100599428Y-34969214D01*
X100694666Y-35016833D01*
X101075619Y-34969214D02*
X101266095Y-35635880D01*
X101456571Y-35159690D01*
X101647047Y-35635880D01*
X101837523Y-34969214D01*
X102647047Y-35635880D02*
X102647047Y-35112071D01*
X102599428Y-35016833D01*
X102504190Y-34969214D01*
X102313714Y-34969214D01*
X102218476Y-35016833D01*
X102647047Y-35588261D02*
X102551809Y-35635880D01*
X102313714Y-35635880D01*
X102218476Y-35588261D01*
X102170857Y-35493023D01*
X102170857Y-35397785D01*
X102218476Y-35302547D01*
X102313714Y-35254928D01*
X102551809Y-35254928D01*
X102647047Y-35207309D01*
X103123238Y-35635880D02*
X103123238Y-34969214D01*
X103123238Y-35159690D02*
X103170857Y-35064452D01*
X103218476Y-35016833D01*
X103313714Y-34969214D01*
X103408952Y-34969214D01*
X104170857Y-35635880D02*
X104170857Y-34635880D01*
X104170857Y-35588261D02*
X104075619Y-35635880D01*
X103885142Y-35635880D01*
X103789904Y-35588261D01*
X103742285Y-35540642D01*
X103694666Y-35445404D01*
X103694666Y-35159690D01*
X103742285Y-35064452D01*
X103789904Y-35016833D01*
X103885142Y-34969214D01*
X104075619Y-34969214D01*
X104170857Y-35016833D01*
X104647047Y-35254928D02*
X105408952Y-35254928D01*
X105885142Y-35635880D02*
X105885142Y-34635880D01*
X106218476Y-35350166D01*
X106551809Y-34635880D01*
X106551809Y-35635880D01*
X107456571Y-35635880D02*
X107456571Y-35112071D01*
X107408952Y-35016833D01*
X107313714Y-34969214D01*
X107123238Y-34969214D01*
X107027999Y-35016833D01*
X107456571Y-35588261D02*
X107361333Y-35635880D01*
X107123238Y-35635880D01*
X107027999Y-35588261D01*
X106980380Y-35493023D01*
X106980380Y-35397785D01*
X107027999Y-35302547D01*
X107123238Y-35254928D01*
X107361333Y-35254928D01*
X107456571Y-35207309D01*
X107837523Y-34969214D02*
X108075619Y-35635880D01*
X108313714Y-34969214D02*
X108075619Y-35635880D01*
X107980380Y-35873976D01*
X107932761Y-35921595D01*
X107837523Y-35969214D01*
X34575142Y-35180166D02*
X34622761Y-35227785D01*
X34670380Y-35370642D01*
X34670380Y-35465880D01*
X34622761Y-35608738D01*
X34527523Y-35703976D01*
X34432285Y-35751595D01*
X34241809Y-35799214D01*
X34098952Y-35799214D01*
X33908476Y-35751595D01*
X33813238Y-35703976D01*
X33718000Y-35608738D01*
X33670380Y-35465880D01*
X33670380Y-35370642D01*
X33718000Y-35227785D01*
X33765619Y-35180166D01*
X34003714Y-34323023D02*
X34670380Y-34323023D01*
X33622761Y-34561119D02*
X34337047Y-34799214D01*
X34337047Y-34180166D01*
X60825142Y-23940642D02*
X60777523Y-23988261D01*
X60634666Y-24035880D01*
X60539428Y-24035880D01*
X60396571Y-23988261D01*
X60301333Y-23893023D01*
X60253714Y-23797785D01*
X60206095Y-23607309D01*
X60206095Y-23464452D01*
X60253714Y-23273976D01*
X60301333Y-23178738D01*
X60396571Y-23083500D01*
X60539428Y-23035880D01*
X60634666Y-23035880D01*
X60777523Y-23083500D01*
X60825142Y-23131119D01*
X61777523Y-24035880D02*
X61206095Y-24035880D01*
X61491809Y-24035880D02*
X61491809Y-23035880D01*
X61396571Y-23178738D01*
X61301333Y-23273976D01*
X61206095Y-23321595D01*
X62158476Y-23131119D02*
X62206095Y-23083500D01*
X62301333Y-23035880D01*
X62539428Y-23035880D01*
X62634666Y-23083500D01*
X62682285Y-23131119D01*
X62729904Y-23226357D01*
X62729904Y-23321595D01*
X62682285Y-23464452D01*
X62110857Y-24035880D01*
X62729904Y-24035880D01*
X30368476Y-43990880D02*
X30701809Y-44990880D01*
X31035142Y-43990880D01*
X31939904Y-44990880D02*
X31606571Y-44514690D01*
X31368476Y-44990880D02*
X31368476Y-43990880D01*
X31749428Y-43990880D01*
X31844666Y-44038500D01*
X31892285Y-44086119D01*
X31939904Y-44181357D01*
X31939904Y-44324214D01*
X31892285Y-44419452D01*
X31844666Y-44467071D01*
X31749428Y-44514690D01*
X31368476Y-44514690D01*
X32892285Y-44990880D02*
X32320857Y-44990880D01*
X32606571Y-44990880D02*
X32606571Y-43990880D01*
X32511333Y-44133738D01*
X32416095Y-44228976D01*
X32320857Y-44276595D01*
X45426333Y-22215880D02*
X45093000Y-21739690D01*
X44854904Y-22215880D02*
X44854904Y-21215880D01*
X45235857Y-21215880D01*
X45331095Y-21263500D01*
X45378714Y-21311119D01*
X45426333Y-21406357D01*
X45426333Y-21549214D01*
X45378714Y-21644452D01*
X45331095Y-21692071D01*
X45235857Y-21739690D01*
X44854904Y-21739690D01*
X45807285Y-21311119D02*
X45854904Y-21263500D01*
X45950142Y-21215880D01*
X46188238Y-21215880D01*
X46283476Y-21263500D01*
X46331095Y-21311119D01*
X46378714Y-21406357D01*
X46378714Y-21501595D01*
X46331095Y-21644452D01*
X45759666Y-22215880D01*
X46378714Y-22215880D01*
X59865142Y-32640166D02*
X59912761Y-32687785D01*
X59960380Y-32830642D01*
X59960380Y-32925880D01*
X59912761Y-33068738D01*
X59817523Y-33163976D01*
X59722285Y-33211595D01*
X59531809Y-33259214D01*
X59388952Y-33259214D01*
X59198476Y-33211595D01*
X59103238Y-33163976D01*
X59008000Y-33068738D01*
X58960380Y-32925880D01*
X58960380Y-32830642D01*
X59008000Y-32687785D01*
X59055619Y-32640166D01*
X58960380Y-31783023D02*
X58960380Y-31973500D01*
X59008000Y-32068738D01*
X59055619Y-32116357D01*
X59198476Y-32211595D01*
X59388952Y-32259214D01*
X59769904Y-32259214D01*
X59865142Y-32211595D01*
X59912761Y-32163976D01*
X59960380Y-32068738D01*
X59960380Y-31878261D01*
X59912761Y-31783023D01*
X59865142Y-31735404D01*
X59769904Y-31687785D01*
X59531809Y-31687785D01*
X59436571Y-31735404D01*
X59388952Y-31783023D01*
X59341333Y-31878261D01*
X59341333Y-32068738D01*
X59388952Y-32163976D01*
X59436571Y-32211595D01*
X59531809Y-32259214D01*
X67485142Y-20416357D02*
X67532761Y-20463976D01*
X67580380Y-20606833D01*
X67580380Y-20702071D01*
X67532761Y-20844928D01*
X67437523Y-20940166D01*
X67342285Y-20987785D01*
X67151809Y-21035404D01*
X67008952Y-21035404D01*
X66818476Y-20987785D01*
X66723238Y-20940166D01*
X66628000Y-20844928D01*
X66580380Y-20702071D01*
X66580380Y-20606833D01*
X66628000Y-20463976D01*
X66675619Y-20416357D01*
X67580380Y-19463976D02*
X67580380Y-20035404D01*
X67580380Y-19749690D02*
X66580380Y-19749690D01*
X66723238Y-19844928D01*
X66818476Y-19940166D01*
X66866095Y-20035404D01*
X66580380Y-18844928D02*
X66580380Y-18749690D01*
X66628000Y-18654452D01*
X66675619Y-18606833D01*
X66770857Y-18559214D01*
X66961333Y-18511595D01*
X67199428Y-18511595D01*
X67389904Y-18559214D01*
X67485142Y-18606833D01*
X67532761Y-18654452D01*
X67580380Y-18749690D01*
X67580380Y-18844928D01*
X67532761Y-18940166D01*
X67485142Y-18987785D01*
X67389904Y-19035404D01*
X67199428Y-19083023D01*
X66961333Y-19083023D01*
X66770857Y-19035404D01*
X66675619Y-18987785D01*
X66628000Y-18940166D01*
X66580380Y-18844928D01*
X37891333Y-46468380D02*
X37558000Y-45992190D01*
X37319904Y-46468380D02*
X37319904Y-45468380D01*
X37700857Y-45468380D01*
X37796095Y-45516000D01*
X37843714Y-45563619D01*
X37891333Y-45658857D01*
X37891333Y-45801714D01*
X37843714Y-45896952D01*
X37796095Y-45944571D01*
X37700857Y-45992190D01*
X37319904Y-45992190D01*
X38748476Y-45801714D02*
X38748476Y-46468380D01*
X38510380Y-45420761D02*
X38272285Y-46135047D01*
X38891333Y-46135047D01*
X67651333Y-24035880D02*
X67318000Y-23559690D01*
X67079904Y-24035880D02*
X67079904Y-23035880D01*
X67460857Y-23035880D01*
X67556095Y-23083500D01*
X67603714Y-23131119D01*
X67651333Y-23226357D01*
X67651333Y-23369214D01*
X67603714Y-23464452D01*
X67556095Y-23512071D01*
X67460857Y-23559690D01*
X67079904Y-23559690D01*
X68556095Y-23035880D02*
X68079904Y-23035880D01*
X68032285Y-23512071D01*
X68079904Y-23464452D01*
X68175142Y-23416833D01*
X68413238Y-23416833D01*
X68508476Y-23464452D01*
X68556095Y-23512071D01*
X68603714Y-23607309D01*
X68603714Y-23845404D01*
X68556095Y-23940642D01*
X68508476Y-23988261D01*
X68413238Y-24035880D01*
X68175142Y-24035880D01*
X68079904Y-23988261D01*
X68032285Y-23940642D01*
X61707404Y-39275880D02*
X61707404Y-38275880D01*
X61945500Y-38275880D01*
X62088357Y-38323500D01*
X62183595Y-38418738D01*
X62231214Y-38513976D01*
X62278833Y-38704452D01*
X62278833Y-38847309D01*
X62231214Y-39037785D01*
X62183595Y-39133023D01*
X62088357Y-39228261D01*
X61945500Y-39275880D01*
X61707404Y-39275880D01*
X63231214Y-39275880D02*
X62659785Y-39275880D01*
X62945500Y-39275880D02*
X62945500Y-38275880D01*
X62850261Y-38418738D01*
X62755023Y-38513976D01*
X62659785Y-38561595D01*
X71295142Y-20416357D02*
X71342761Y-20463976D01*
X71390380Y-20606833D01*
X71390380Y-20702071D01*
X71342761Y-20844928D01*
X71247523Y-20940166D01*
X71152285Y-20987785D01*
X70961809Y-21035404D01*
X70818952Y-21035404D01*
X70628476Y-20987785D01*
X70533238Y-20940166D01*
X70438000Y-20844928D01*
X70390380Y-20702071D01*
X70390380Y-20606833D01*
X70438000Y-20463976D01*
X70485619Y-20416357D01*
X71390380Y-19463976D02*
X71390380Y-20035404D01*
X71390380Y-19749690D02*
X70390380Y-19749690D01*
X70533238Y-19844928D01*
X70628476Y-19940166D01*
X70676095Y-20035404D01*
X70390380Y-19130642D02*
X70390380Y-18511595D01*
X70771333Y-18844928D01*
X70771333Y-18702071D01*
X70818952Y-18606833D01*
X70866571Y-18559214D01*
X70961809Y-18511595D01*
X71199904Y-18511595D01*
X71295142Y-18559214D01*
X71342761Y-18606833D01*
X71390380Y-18702071D01*
X71390380Y-18987785D01*
X71342761Y-19083023D01*
X71295142Y-19130642D01*
X26640380Y-26536833D02*
X27354666Y-26536833D01*
X27497523Y-26584452D01*
X27592761Y-26679690D01*
X27640380Y-26822547D01*
X27640380Y-26917785D01*
X27640380Y-25536833D02*
X27640380Y-26108261D01*
X27640380Y-25822547D02*
X26640380Y-25822547D01*
X26783238Y-25917785D01*
X26878476Y-26013023D01*
X26926095Y-26108261D01*
X74525142Y-38990166D02*
X74572761Y-39037785D01*
X74620380Y-39180642D01*
X74620380Y-39275880D01*
X74572761Y-39418738D01*
X74477523Y-39513976D01*
X74382285Y-39561595D01*
X74191809Y-39609214D01*
X74048952Y-39609214D01*
X73858476Y-39561595D01*
X73763238Y-39513976D01*
X73668000Y-39418738D01*
X73620380Y-39275880D01*
X73620380Y-39180642D01*
X73668000Y-39037785D01*
X73715619Y-38990166D01*
X74620380Y-38513976D02*
X74620380Y-38323500D01*
X74572761Y-38228261D01*
X74525142Y-38180642D01*
X74382285Y-38085404D01*
X74191809Y-38037785D01*
X73810857Y-38037785D01*
X73715619Y-38085404D01*
X73668000Y-38133023D01*
X73620380Y-38228261D01*
X73620380Y-38418738D01*
X73668000Y-38513976D01*
X73715619Y-38561595D01*
X73810857Y-38609214D01*
X74048952Y-38609214D01*
X74144190Y-38561595D01*
X74191809Y-38513976D01*
X74239428Y-38418738D01*
X74239428Y-38228261D01*
X74191809Y-38133023D01*
X74144190Y-38085404D01*
X74048952Y-38037785D01*
X64945142Y-32640166D02*
X64992761Y-32687785D01*
X65040380Y-32830642D01*
X65040380Y-32925880D01*
X64992761Y-33068738D01*
X64897523Y-33163976D01*
X64802285Y-33211595D01*
X64611809Y-33259214D01*
X64468952Y-33259214D01*
X64278476Y-33211595D01*
X64183238Y-33163976D01*
X64088000Y-33068738D01*
X64040380Y-32925880D01*
X64040380Y-32830642D01*
X64088000Y-32687785D01*
X64135619Y-32640166D01*
X64040380Y-32306833D02*
X64040380Y-31640166D01*
X65040380Y-32068738D01*
X45426333Y-29665880D02*
X45093000Y-29189690D01*
X44854904Y-29665880D02*
X44854904Y-28665880D01*
X45235857Y-28665880D01*
X45331095Y-28713500D01*
X45378714Y-28761119D01*
X45426333Y-28856357D01*
X45426333Y-28999214D01*
X45378714Y-29094452D01*
X45331095Y-29142071D01*
X45235857Y-29189690D01*
X44854904Y-29189690D01*
X46378714Y-29665880D02*
X45807285Y-29665880D01*
X46093000Y-29665880D02*
X46093000Y-28665880D01*
X45997761Y-28808738D01*
X45902523Y-28903976D01*
X45807285Y-28951595D01*
X34700380Y-40260166D02*
X34224190Y-40593500D01*
X34700380Y-40831595D02*
X33700380Y-40831595D01*
X33700380Y-40450642D01*
X33748000Y-40355404D01*
X33795619Y-40307785D01*
X33890857Y-40260166D01*
X34033714Y-40260166D01*
X34128952Y-40307785D01*
X34176571Y-40355404D01*
X34224190Y-40450642D01*
X34224190Y-40831595D01*
X33700380Y-39926833D02*
X33700380Y-39307785D01*
X34081333Y-39641119D01*
X34081333Y-39498261D01*
X34128952Y-39403023D01*
X34176571Y-39355404D01*
X34271809Y-39307785D01*
X34509904Y-39307785D01*
X34605142Y-39355404D01*
X34652761Y-39403023D01*
X34700380Y-39498261D01*
X34700380Y-39783976D01*
X34652761Y-39879214D01*
X34605142Y-39926833D01*
X72277642Y-38831357D02*
X72325261Y-38878976D01*
X72372880Y-39021833D01*
X72372880Y-39117071D01*
X72325261Y-39259928D01*
X72230023Y-39355166D01*
X72134785Y-39402785D01*
X71944309Y-39450404D01*
X71801452Y-39450404D01*
X71610976Y-39402785D01*
X71515738Y-39355166D01*
X71420500Y-39259928D01*
X71372880Y-39117071D01*
X71372880Y-39021833D01*
X71420500Y-38878976D01*
X71468119Y-38831357D01*
X72372880Y-37878976D02*
X72372880Y-38450404D01*
X72372880Y-38164690D02*
X71372880Y-38164690D01*
X71515738Y-38259928D01*
X71610976Y-38355166D01*
X71658595Y-38450404D01*
X72372880Y-36926595D02*
X72372880Y-37498023D01*
X72372880Y-37212309D02*
X71372880Y-37212309D01*
X71515738Y-37307547D01*
X71610976Y-37402785D01*
X71658595Y-37498023D01*
X38385142Y-35180166D02*
X38432761Y-35227785D01*
X38480380Y-35370642D01*
X38480380Y-35465880D01*
X38432761Y-35608738D01*
X38337523Y-35703976D01*
X38242285Y-35751595D01*
X38051809Y-35799214D01*
X37908952Y-35799214D01*
X37718476Y-35751595D01*
X37623238Y-35703976D01*
X37528000Y-35608738D01*
X37480380Y-35465880D01*
X37480380Y-35370642D01*
X37528000Y-35227785D01*
X37575619Y-35180166D01*
X38480380Y-34227785D02*
X38480380Y-34799214D01*
X38480380Y-34513500D02*
X37480380Y-34513500D01*
X37623238Y-34608738D01*
X37718476Y-34703976D01*
X37766095Y-34799214D01*
X66444904Y-39275880D02*
X66444904Y-38275880D01*
X66683000Y-38275880D01*
X66825857Y-38323500D01*
X66921095Y-38418738D01*
X66968714Y-38513976D01*
X67016333Y-38704452D01*
X67016333Y-38847309D01*
X66968714Y-39037785D01*
X66921095Y-39133023D01*
X66825857Y-39228261D01*
X66683000Y-39275880D01*
X66444904Y-39275880D01*
X67397285Y-38371119D02*
X67444904Y-38323500D01*
X67540142Y-38275880D01*
X67778238Y-38275880D01*
X67873476Y-38323500D01*
X67921095Y-38371119D01*
X67968714Y-38466357D01*
X67968714Y-38561595D01*
X67921095Y-38704452D01*
X67349666Y-39275880D01*
X67968714Y-39275880D01*
X30186333Y-30290642D02*
X30138714Y-30338261D01*
X29995857Y-30385880D01*
X29900619Y-30385880D01*
X29757761Y-30338261D01*
X29662523Y-30243023D01*
X29614904Y-30147785D01*
X29567285Y-29957309D01*
X29567285Y-29814452D01*
X29614904Y-29623976D01*
X29662523Y-29528738D01*
X29757761Y-29433500D01*
X29900619Y-29385880D01*
X29995857Y-29385880D01*
X30138714Y-29433500D01*
X30186333Y-29481119D01*
X30519666Y-29385880D02*
X31138714Y-29385880D01*
X30805380Y-29766833D01*
X30948238Y-29766833D01*
X31043476Y-29814452D01*
X31091095Y-29862071D01*
X31138714Y-29957309D01*
X31138714Y-30195404D01*
X31091095Y-30290642D01*
X31043476Y-30338261D01*
X30948238Y-30385880D01*
X30662523Y-30385880D01*
X30567285Y-30338261D01*
X30519666Y-30290642D01*
X46726095Y-45968380D02*
X46726095Y-46777904D01*
X46773714Y-46873142D01*
X46821333Y-46920761D01*
X46916571Y-46968380D01*
X47107047Y-46968380D01*
X47202285Y-46920761D01*
X47249904Y-46873142D01*
X47297523Y-46777904D01*
X47297523Y-45968380D01*
X47726095Y-46063619D02*
X47773714Y-46016000D01*
X47868952Y-45968380D01*
X48107047Y-45968380D01*
X48202285Y-46016000D01*
X48249904Y-46063619D01*
X48297523Y-46158857D01*
X48297523Y-46254095D01*
X48249904Y-46396952D01*
X47678476Y-46968380D01*
X48297523Y-46968380D01*
X35306095Y-21275880D02*
X35306095Y-22085404D01*
X35353714Y-22180642D01*
X35401333Y-22228261D01*
X35496571Y-22275880D01*
X35687047Y-22275880D01*
X35782285Y-22228261D01*
X35829904Y-22180642D01*
X35877523Y-22085404D01*
X35877523Y-21275880D01*
X36877523Y-22275880D02*
X36306095Y-22275880D01*
X36591809Y-22275880D02*
X36591809Y-21275880D01*
X36496571Y-21418738D01*
X36401333Y-21513976D01*
X36306095Y-21561595D01*
X56856333Y-39180642D02*
X56808714Y-39228261D01*
X56665857Y-39275880D01*
X56570619Y-39275880D01*
X56427761Y-39228261D01*
X56332523Y-39133023D01*
X56284904Y-39037785D01*
X56237285Y-38847309D01*
X56237285Y-38704452D01*
X56284904Y-38513976D01*
X56332523Y-38418738D01*
X56427761Y-38323500D01*
X56570619Y-38275880D01*
X56665857Y-38275880D01*
X56808714Y-38323500D01*
X56856333Y-38371119D01*
X57761095Y-38275880D02*
X57284904Y-38275880D01*
X57237285Y-38752071D01*
X57284904Y-38704452D01*
X57380142Y-38656833D01*
X57618238Y-38656833D01*
X57713476Y-38704452D01*
X57761095Y-38752071D01*
X57808714Y-38847309D01*
X57808714Y-39085404D01*
X57761095Y-39180642D01*
X57713476Y-39228261D01*
X57618238Y-39275880D01*
X57380142Y-39275880D01*
X57284904Y-39228261D01*
X57237285Y-39180642D01*
X30186333Y-36585642D02*
X30138714Y-36633261D01*
X29995857Y-36680880D01*
X29900619Y-36680880D01*
X29757761Y-36633261D01*
X29662523Y-36538023D01*
X29614904Y-36442785D01*
X29567285Y-36252309D01*
X29567285Y-36109452D01*
X29614904Y-35918976D01*
X29662523Y-35823738D01*
X29757761Y-35728500D01*
X29900619Y-35680880D01*
X29995857Y-35680880D01*
X30138714Y-35728500D01*
X30186333Y-35776119D01*
X30567285Y-35776119D02*
X30614904Y-35728500D01*
X30710142Y-35680880D01*
X30948238Y-35680880D01*
X31043476Y-35728500D01*
X31091095Y-35776119D01*
X31138714Y-35871357D01*
X31138714Y-35966595D01*
X31091095Y-36109452D01*
X30519666Y-36680880D01*
X31138714Y-36680880D01*
X73210380Y-31965404D02*
X74019904Y-31965404D01*
X74115142Y-31917785D01*
X74162761Y-31870166D01*
X74210380Y-31774928D01*
X74210380Y-31584452D01*
X74162761Y-31489214D01*
X74115142Y-31441595D01*
X74019904Y-31393976D01*
X73210380Y-31393976D01*
X73543714Y-30489214D02*
X74210380Y-30489214D01*
X73162761Y-30727309D02*
X73877047Y-30965404D01*
X73877047Y-30346357D01*
X77065142Y-38990166D02*
X77112761Y-39037785D01*
X77160380Y-39180642D01*
X77160380Y-39275880D01*
X77112761Y-39418738D01*
X77017523Y-39513976D01*
X76922285Y-39561595D01*
X76731809Y-39609214D01*
X76588952Y-39609214D01*
X76398476Y-39561595D01*
X76303238Y-39513976D01*
X76208000Y-39418738D01*
X76160380Y-39275880D01*
X76160380Y-39180642D01*
X76208000Y-39037785D01*
X76255619Y-38990166D01*
X76588952Y-38418738D02*
X76541333Y-38513976D01*
X76493714Y-38561595D01*
X76398476Y-38609214D01*
X76350857Y-38609214D01*
X76255619Y-38561595D01*
X76208000Y-38513976D01*
X76160380Y-38418738D01*
X76160380Y-38228261D01*
X76208000Y-38133023D01*
X76255619Y-38085404D01*
X76350857Y-38037785D01*
X76398476Y-38037785D01*
X76493714Y-38085404D01*
X76541333Y-38133023D01*
X76588952Y-38228261D01*
X76588952Y-38418738D01*
X76636571Y-38513976D01*
X76684190Y-38561595D01*
X76779428Y-38609214D01*
X76969904Y-38609214D01*
X77065142Y-38561595D01*
X77112761Y-38513976D01*
X77160380Y-38418738D01*
X77160380Y-38228261D01*
X77112761Y-38133023D01*
X77065142Y-38085404D01*
X76969904Y-38037785D01*
X76779428Y-38037785D01*
X76684190Y-38085404D01*
X76636571Y-38133023D01*
X76588952Y-38228261D01*
D11*
X36978000Y-35724752D02*
X36978000Y-34302248D01*
X35158000Y-35724752D02*
X35158000Y-34302248D01*
X62179252Y-24578500D02*
X60756748Y-24578500D01*
X62179252Y-26398500D02*
X60756748Y-26398500D01*
X24668000Y-43443500D02*
X23568000Y-43443500D01*
X26168000Y-43543500D02*
X24668000Y-43543500D01*
X24668000Y-36643500D02*
X24668000Y-36743500D01*
X24668000Y-36743500D02*
X22768000Y-36743500D01*
X26168000Y-36643500D02*
X24668000Y-36643500D01*
X24668000Y-43543500D02*
X24668000Y-43443500D01*
X44865936Y-24493500D02*
X46320064Y-24493500D01*
X44865936Y-22673500D02*
X46320064Y-22673500D01*
X56748000Y-31762248D02*
X56748000Y-33184752D01*
X58568000Y-31762248D02*
X58568000Y-33184752D01*
X64368000Y-19062248D02*
X64368000Y-20484752D01*
X66188000Y-19062248D02*
X66188000Y-20484752D01*
X38785064Y-45106000D02*
X37330936Y-45106000D01*
X38785064Y-43286000D02*
X37330936Y-43286000D01*
X68545064Y-24578500D02*
X67090936Y-24578500D01*
X68545064Y-26398500D02*
X67090936Y-26398500D01*
X63580500Y-44233500D02*
X63580500Y-40173500D01*
X63580500Y-40173500D02*
X61310500Y-40173500D01*
X61310500Y-40173500D02*
X61310500Y-44233500D01*
X68178000Y-19062248D02*
X68178000Y-20484752D01*
X69998000Y-19062248D02*
X69998000Y-20484752D01*
X22138000Y-33503500D02*
X22138000Y-34503500D01*
X20538000Y-34503500D02*
X20538000Y-33503500D01*
X22138000Y-34503500D02*
X20538000Y-34503500D01*
X24498000Y-18343500D02*
X25713000Y-18343500D01*
X26098000Y-34343500D02*
X24498000Y-34343500D01*
X20538000Y-18903500D02*
X18278000Y-18903500D01*
X18278000Y-17143500D02*
X18278000Y-35263500D01*
X22138000Y-17903500D02*
X20538000Y-17903500D01*
X18278000Y-19703500D02*
X22638000Y-19703500D01*
X20538000Y-33503500D02*
X22138000Y-33503500D01*
X18278000Y-35263500D02*
X26098000Y-35263500D01*
X24498000Y-35263500D02*
X24498000Y-34343500D01*
X24498000Y-34343500D02*
X24498000Y-34063500D01*
X24498000Y-18343500D02*
X24498000Y-18063500D01*
X20538000Y-18403500D02*
X18278000Y-18403500D01*
X26098000Y-18063500D02*
X26098000Y-17143500D01*
X20538000Y-17903500D02*
X20538000Y-18903500D01*
X24498000Y-18063500D02*
X26098000Y-18063500D01*
X22638000Y-32703500D02*
X18278000Y-32703500D01*
X22138000Y-18903500D02*
X22138000Y-17903500D01*
X26098000Y-35263500D02*
X26098000Y-34343500D01*
X24498000Y-17143500D02*
X24498000Y-18063500D01*
X26098000Y-17143500D02*
X18278000Y-17143500D01*
X20538000Y-18903500D02*
X22138000Y-18903500D01*
X22638000Y-19703500D02*
X22638000Y-32703500D01*
X75078000Y-41922248D02*
X75078000Y-43344752D01*
X73258000Y-41922248D02*
X73258000Y-43344752D01*
X63648000Y-31762248D02*
X63648000Y-33184752D01*
X61828000Y-31762248D02*
X61828000Y-33184752D01*
X46320064Y-26483500D02*
X44865936Y-26483500D01*
X46320064Y-28303500D02*
X44865936Y-28303500D01*
X35158000Y-40820564D02*
X35158000Y-39366436D01*
X36978000Y-40820564D02*
X36978000Y-39366436D01*
X72538000Y-43344752D02*
X72538000Y-41922248D01*
X70718000Y-43344752D02*
X70718000Y-41922248D01*
X38968000Y-35724752D02*
X38968000Y-34302248D01*
X40788000Y-35724752D02*
X40788000Y-34302248D01*
X65065500Y-42498500D02*
X69125500Y-42498500D01*
X65065500Y-40228500D02*
X65065500Y-42498500D01*
X69125500Y-40228500D02*
X65065500Y-40228500D01*
X31064252Y-32748500D02*
X29641748Y-32748500D01*
X31064252Y-30928500D02*
X29641748Y-30928500D01*
X48488000Y-45516000D02*
X50138000Y-45516000D01*
X50138000Y-45516000D02*
X50138000Y-35236000D01*
X44838000Y-45516000D02*
X46488000Y-45516000D01*
X44838000Y-35236000D02*
X44838000Y-45516000D01*
X50138000Y-35236000D02*
X44838000Y-35236000D01*
X48488000Y-45516000D02*
G75*
G03*
X46488000Y-45516000I-1000000J0D01*
G01*
D10*
X33743000Y-29498500D02*
X33743000Y-29473500D01*
X32668000Y-22673500D02*
X38393000Y-22673500D01*
X38393000Y-22673500D02*
X38393000Y-22773500D01*
X38393000Y-29498500D02*
X38393000Y-29473500D01*
X33743000Y-29498500D02*
X38393000Y-29498500D01*
D11*
X56654248Y-40453500D02*
X58076752Y-40453500D01*
X56654248Y-42273500D02*
X58076752Y-42273500D01*
X31064252Y-33468500D02*
X29641748Y-33468500D01*
X31064252Y-35288500D02*
X29641748Y-35288500D01*
X72918000Y-31203500D02*
X72918000Y-27753500D01*
X72918000Y-31203500D02*
X72918000Y-33153500D01*
X67798000Y-31203500D02*
X67798000Y-29253500D01*
X67798000Y-31203500D02*
X67798000Y-33153500D01*
X77618000Y-41922248D02*
X77618000Y-43344752D01*
X75798000Y-41922248D02*
X75798000Y-43344752D01*
M02*
