  0
SECTION
  2
HEADER
  9
$ANGBASE
  50
0.0
  9
$ANGDIR
  70
1
  9
$MEASUREMENT
  70
1
  0
ENDSEC
  0
SECTION
  2
TABLES
  0
TABLE
  2
LTYPE
  70
4
  0
LTYPE
  5
40F
  2
CONTINUOUS
  70
0
  3
Solid line
  72
65
  73
0
  40
0.0
  0
LTYPE
  5
410
  2
DASHDOT
 70
0
  3
Dash Dot ____ _ ____ _
 72
65
 73
4
 40
2.0
 49
1.25
 49
-0.25
 49
0.25
 49
-0.25
  0
LTYPE
  5
411
  2
DASHED
 70
0
  3
Dashed __ __ __ __ __
 72
65
 73
2
 40
0.75
 49
0.5
 49
-0.25
  0
LTYPE
  5
43B
  2
DOTTED
 70
0
  3
Dotted .  .  .  .
 72
65
 73
2
 40
0.2
 49
0.0
 49
-0.2
  0
ENDTAB
  0
TABLE
  2
STYLE
  70
4
  0
STYLE
  2
KICAD
  70
0
  40
0
  41
1
  42
1
  50
0
  71
0
  3
isocp.shx
  0
STYLE
  2
KICADB
  70
0
  40
0
  41
1
  42
1
  50
0
  71
0
  3
isocp.shx
  0
STYLE
  2
KICADI
  70
0
  40
0
  41
1
  42
1
  50
15
  71
0
  3
isocp.shx
  0
STYLE
  2
KICADBI
  70
0
  40
0
  41
1
  42
1
  50
15
  71
0
  3
isocp.shx
  0
ENDTAB
  0
TABLE
  2
LAYER
  70
1
  0
LAYER
  2
BLACK
  70
0
  62
7
  6
CONTINUOUS
  0
ENDTAB
  0
ENDSEC
  0
SECTION
  2
ENTITIES
0
LINE
8
BLACK
6
CONTINUOUS
10
107.697
20
-44.679
11
107.697
21
-44.679
0
LINE
8
BLACK
6
CONTINUOUS
10
107.697
20
-44.679
11
107.701
21
-44.6794
0
LINE
8
BLACK
6
CONTINUOUS
10
107.701
20
-44.6794
11
107.706
21
-44.6808
0
LINE
8
BLACK
6
CONTINUOUS
10
107.706
20
-44.6808
11
107.71
21
-44.6831
0
LINE
8
BLACK
6
CONTINUOUS
10
107.71
20
-44.6831
11
107.714
21
-44.6862
0
LINE
8
BLACK
6
CONTINUOUS
10
107.714
20
-44.6862
11
107.717
21
-44.69
0
LINE
8
BLACK
6
CONTINUOUS
10
107.717
20
-44.69
11
107.719
21
-44.6944
0
LINE
8
BLACK
6
CONTINUOUS
10
107.719
20
-44.6944
11
107.721
21
-44.6991
0
LINE
8
BLACK
6
CONTINUOUS
10
107.721
20
-44.6991
11
107.721
21
-44.704
0
LINE
8
BLACK
6
CONTINUOUS
10
107.721
20
-44.704
11
107.721
21
-44.7052
0
LINE
8
BLACK
6
CONTINUOUS
10
107.721
20
-44.7052
11
107.721
21
-111.759
0
LINE
8
BLACK
6
CONTINUOUS
10
107.721
20
-111.759
11
107.721
21
-111.76
0
LINE
8
BLACK
6
CONTINUOUS
10
107.721
20
-111.76
11
107.721
21
-111.761
0
LINE
8
BLACK
6
CONTINUOUS
10
107.721
20
-111.761
11
107.721
21
-111.761
0
LINE
8
BLACK
6
CONTINUOUS
10
107.721
20
-111.761
11
107.721
21
-111.765
0
LINE
8
BLACK
6
CONTINUOUS
10
107.721
20
-111.765
11
107.719
21
-111.77
0
LINE
8
BLACK
6
CONTINUOUS
10
107.719
20
-111.77
11
107.717
21
-111.774
0
LINE
8
BLACK
6
CONTINUOUS
10
107.717
20
-111.774
11
107.714
21
-111.778
0
LINE
8
BLACK
6
CONTINUOUS
10
107.714
20
-111.778
11
107.71
21
-111.781
0
LINE
8
BLACK
6
CONTINUOUS
10
107.71
20
-111.781
11
107.706
21
-111.783
0
LINE
8
BLACK
6
CONTINUOUS
10
107.706
20
-111.783
11
107.701
21
-111.785
0
LINE
8
BLACK
6
CONTINUOUS
10
107.701
20
-111.785
11
107.696
21
-111.785
0
LINE
8
BLACK
6
CONTINUOUS
10
107.696
20
-111.785
11
107.695
21
-111.785
0
LINE
8
BLACK
6
CONTINUOUS
10
107.695
20
-111.785
11
30.4812
21
-111.785
0
LINE
8
BLACK
6
CONTINUOUS
10
30.4812
20
-111.785
11
30.48
21
-111.785
0
LINE
8
BLACK
6
CONTINUOUS
10
30.48
20
-111.785
11
30.4751
21
-111.785
0
LINE
8
BLACK
6
CONTINUOUS
10
30.4751
20
-111.785
11
30.4704
21
-111.783
0
LINE
8
BLACK
6
CONTINUOUS
10
30.4704
20
-111.783
11
30.466
21
-111.781
0
LINE
8
BLACK
6
CONTINUOUS
10
30.466
20
-111.781
11
30.4622
21
-111.778
0
LINE
8
BLACK
6
CONTINUOUS
10
30.4622
20
-111.778
11
30.4591
21
-111.774
0
LINE
8
BLACK
6
CONTINUOUS
10
30.4591
20
-111.774
11
30.4568
21
-111.77
0
LINE
8
BLACK
6
CONTINUOUS
10
30.4568
20
-111.77
11
30.4554
21
-111.765
0
LINE
8
BLACK
6
CONTINUOUS
10
30.4554
20
-111.765
11
30.4549
21
-111.76
0
LINE
8
BLACK
6
CONTINUOUS
10
30.4549
20
-111.76
11
30.455
21
-111.759
0
LINE
8
BLACK
6
CONTINUOUS
10
30.455
20
-111.759
11
30.455
21
-44.7052
0
LINE
8
BLACK
6
CONTINUOUS
10
30.455
20
-44.7052
11
30.4549
21
-44.704
0
LINE
8
BLACK
6
CONTINUOUS
10
30.4549
20
-44.704
11
30.4554
21
-44.6991
0
LINE
8
BLACK
6
CONTINUOUS
10
30.4554
20
-44.6991
11
30.4568
21
-44.6944
0
LINE
8
BLACK
6
CONTINUOUS
10
30.4568
20
-44.6944
11
30.4591
21
-44.69
0
LINE
8
BLACK
6
CONTINUOUS
10
30.4591
20
-44.69
11
30.4622
21
-44.6862
0
LINE
8
BLACK
6
CONTINUOUS
10
30.4622
20
-44.6862
11
30.466
21
-44.6831
0
LINE
8
BLACK
6
CONTINUOUS
10
30.466
20
-44.6831
11
30.4704
21
-44.6808
0
LINE
8
BLACK
6
CONTINUOUS
10
30.4704
20
-44.6808
11
30.4751
21
-44.6794
0
LINE
8
BLACK
6
CONTINUOUS
10
30.4751
20
-44.6794
11
30.4788
21
-44.679
0
LINE
8
BLACK
6
CONTINUOUS
10
30.4788
20
-44.679
11
30.4788
21
-44.679
0
LINE
8
BLACK
6
CONTINUOUS
10
30.4788
20
-44.679
11
30.48
21
-44.6789
0
LINE
8
BLACK
6
CONTINUOUS
10
30.48
20
-44.6789
11
30.4812
21
-44.679
0
LINE
8
BLACK
6
CONTINUOUS
10
30.4812
20
-44.679
11
107.695
21
-44.679
0
LINE
8
BLACK
6
CONTINUOUS
10
107.695
20
-44.679
11
107.696
21
-44.6789
0
LINE
8
BLACK
6
CONTINUOUS
10
107.696
20
-44.6789
11
107.697
21
-44.679
0
LINE
8
BLACK
6
CONTINUOUS
10
30.505
20
-44.729
11
30.505
21
-111.735
0
LINE
8
BLACK
6
CONTINUOUS
10
30.505
20
-111.735
11
107.671
21
-111.735
0
LINE
8
BLACK
6
CONTINUOUS
10
107.671
20
-111.735
11
107.671
21
-44.729
0
LINE
8
BLACK
6
CONTINUOUS
10
107.671
20
-44.729
11
30.505
21
-44.729
  0
ENDSEC
  0
EOF
